<?xml version="1.0" encoding="UTF-8" standalone="no"?>
<!DOCTYPE svg PUBLIC "-//W3C//DTD SVG 1.1//EN"
 "http://www.w3.org/Graphics/SVG/1.1/DTD/svg11.dtd">
<!-- Generated by graphviz version 2.40.1 (20161225.0304)
 -->
<!-- Title: BR1 Pages: 1 -->
<svg width="1738pt" height="1297pt"
 viewBox="0.00 0.00 1737.73 1296.60" xmlns="http://www.w3.org/2000/svg" xmlns:xlink="http://www.w3.org/1999/xlink">
<g id="graph0" class="graph" transform="scale(1 1) rotate(0) translate(4 1292.6)">
<title>BR1</title>
<polygon fill="#ffffff" stroke="transparent" points="-4,4 -4,-1292.6 1733.7348,-1292.6 1733.7348,4 -4,4"/>
<!-- BR1 -->
<g id="node1" class="node">
<title>BR1</title>
<ellipse fill="none" stroke="#000000" cx="322" cy="-1270.6" rx="28.9929" ry="18"/>
<text text-anchor="middle" x="322" y="-1266.4" font-family="Times,serif" font-size="14.00" fill="#000000">BR1</text>
</g>
<!-- UPF -->
<g id="node2" class="node">
<title>UPF</title>
<path fill="#00ff00" stroke="#000000" d="M283.0312,-1149.7C283.0312,-1149.7 360.9688,-1149.7 360.9688,-1149.7 366.9688,-1149.7 372.9688,-1155.7 372.9688,-1161.7 372.9688,-1161.7 372.9688,-1187.3 372.9688,-1187.3 372.9688,-1193.3 366.9688,-1199.3 360.9688,-1199.3 360.9688,-1199.3 283.0312,-1199.3 283.0312,-1199.3 277.0312,-1199.3 271.0312,-1193.3 271.0312,-1187.3 271.0312,-1187.3 271.0312,-1161.7 271.0312,-1161.7 271.0312,-1155.7 277.0312,-1149.7 283.0312,-1149.7"/>
<text text-anchor="middle" x="322" y="-1182.7" font-family="Times,serif" font-size="14.00" fill="#000000">UPF</text>
<polyline fill="none" stroke="#000000" points="271.0312,-1174.5 372.9688,-1174.5 "/>
<text text-anchor="middle" x="322" y="-1157.9" font-family="Times,serif" font-size="14.00" fill="#000000">PIO 20 SET 50</text>
</g>
<!-- BR1&#45;&gt;UPF -->
<g id="edge1" class="edge">
<title>BR1&#45;&gt;UPF</title>
<path fill="none" stroke="#000000" d="M322,-1242.2679C322,-1228.664 322,-1212.509 322,-1199.3848"/>
<polygon fill="#000000" stroke="#000000" points="318.5001,-1242.5243 322,-1252.5243 325.5001,-1242.5244 318.5001,-1242.5243"/>
<text text-anchor="middle" x="342.4463" y="-1222" font-family="Times,serif" font-size="14.00" fill="#000000">1 @ 4d</text>
</g>
<!-- PSL -->
<g id="node3" class="node">
<title>PSL</title>
<ellipse fill="none" stroke="#000000" cx="144" cy="-1040.2" rx="27.8461" ry="18"/>
<text text-anchor="middle" x="144" y="-1036" font-family="Times,serif" font-size="14.00" fill="#000000">PSL</text>
</g>
<!-- UPF&#45;&gt;PSL -->
<g id="edge2" class="edge">
<title>UPF&#45;&gt;PSL</title>
<path fill="none" stroke="#000000" d="M275.4992,-1143.8591C261.0456,-1134.0185 245.1877,-1122.8925 231,-1112.2 205.792,-1093.202 177.8804,-1069.6223 160.6362,-1054.7379"/>
<polygon fill="#000000" stroke="#000000" points="273.58,-1146.7864 283.8237,-1149.4915 277.5027,-1140.9888 273.58,-1146.7864"/>
</g>
<!-- PSM -->
<g id="node4" class="node">
<title>PSM</title>
<ellipse fill="none" stroke="#000000" cx="42" cy="-210.2" rx="30.215" ry="18"/>
<text text-anchor="middle" x="42" y="-206" font-family="Times,serif" font-size="14.00" fill="#000000">PSM</text>
</g>
<!-- UPF&#45;&gt;PSM -->
<g id="edge3" class="edge">
<title>UPF&#45;&gt;PSM</title>
<path fill="none" stroke="#000000" d="M260.7987,-1171.6532C167.3971,-1165.6139 0,-1147.3729 0,-1094.2 0,-1094.2 0,-1094.2 0,-306.3 0,-276.4392 17.2368,-245.398 29.6258,-226.9438"/>
<polygon fill="#000000" stroke="#000000" points="260.7813,-1175.1587 270.9781,-1172.2821 261.213,-1168.172 260.7813,-1175.1587"/>
</g>
<!-- FET -->
<g id="node5" class="node">
<title>FET</title>
<ellipse fill="none" stroke="#000000" cx="268" cy="-1094.2" rx="28.4088" ry="18"/>
<text text-anchor="middle" x="268" y="-1090" font-family="Times,serif" font-size="14.00" fill="#000000">FET</text>
</g>
<!-- UPF&#45;&gt;FET -->
<g id="edge4" class="edge">
<title>UPF&#45;&gt;FET</title>
<path fill="none" stroke="#000000" d="M299.5027,-1141.0456C292.543,-1130.6963 285.1725,-1119.7361 279.3119,-1111.0213"/>
<polygon fill="#000000" stroke="#000000" points="296.7253,-1143.1877 305.2101,-1149.5328 302.534,-1139.2814 296.7253,-1143.1877"/>
</g>
<!-- NV1 -->
<g id="node6" class="node">
<title>NV1</title>
<ellipse fill="none" stroke="#000000" cx="806" cy="-1094.2" rx="29.6166" ry="18"/>
<text text-anchor="middle" x="806" y="-1090" font-family="Times,serif" font-size="14.00" fill="#000000">NV1</text>
</g>
<!-- UPF&#45;&gt;NV1 -->
<g id="edge5" class="edge">
<title>UPF&#45;&gt;NV1</title>
<path fill="none" stroke="#000000" d="M383.5043,-1164.2959C488.8779,-1146.8134 700.0149,-1111.7839 777.0332,-1099.0059"/>
<polygon fill="#000000" stroke="#000000" points="382.6305,-1160.8929 373.3383,-1165.9825 383.7763,-1167.7985 382.6305,-1160.8929"/>
</g>
<!-- SAR -->
<g id="node7" class="node">
<title>SAR</title>
<ellipse fill="none" stroke="#000000" cx="414" cy="-917.6" rx="29.6339" ry="18"/>
<text text-anchor="middle" x="414" y="-913.4" font-family="Times,serif" font-size="14.00" fill="#000000">SAR</text>
</g>
<!-- UPF&#45;&gt;SAR -->
<g id="edge6" class="edge">
<title>UPF&#45;&gt;SAR</title>
<path fill="none" stroke="#000000" d="M334.4799,-1139.6511C354.3684,-1084.1149 392.5452,-977.5102 407.6362,-935.3702"/>
<polygon fill="#000000" stroke="#000000" points="331.0653,-1138.805 330.9889,-1149.3996 337.6555,-1141.1651 331.0653,-1138.805"/>
</g>
<!-- COM -->
<g id="node8" class="node">
<title>COM</title>
<ellipse fill="none" stroke="#000000" cx="616" cy="-1094.2" rx="33.0643" ry="18"/>
<text text-anchor="middle" x="616" y="-1090" font-family="Times,serif" font-size="14.00" fill="#000000">COM</text>
</g>
<!-- UPF&#45;&gt;COM -->
<g id="edge7" class="edge">
<title>UPF&#45;&gt;COM</title>
<path fill="none" stroke="#000000" d="M382.4497,-1146.7113C397.1431,-1140.6643 412.9604,-1134.7295 428,-1130.2 481.4578,-1114.1001 545.7171,-1103.6274 583.5785,-1098.3299"/>
<polygon fill="#000000" stroke="#000000" points="380.842,-1143.5901 372.9758,-1150.6875 383.5511,-1150.0447 380.842,-1143.5901"/>
</g>
<!-- PPF -->
<g id="node9" class="node">
<title>PPF</title>
<path fill="#00ff00" stroke="#000000" d="M137.8061,-281.5C137.8061,-281.5 172.1939,-281.5 172.1939,-281.5 178.1939,-281.5 184.1939,-287.5 184.1939,-293.5 184.1939,-293.5 184.1939,-319.1 184.1939,-319.1 184.1939,-325.1 178.1939,-331.1 172.1939,-331.1 172.1939,-331.1 137.8061,-331.1 137.8061,-331.1 131.8061,-331.1 125.8061,-325.1 125.8061,-319.1 125.8061,-319.1 125.8061,-293.5 125.8061,-293.5 125.8061,-287.5 131.8061,-281.5 137.8061,-281.5"/>
<text text-anchor="middle" x="155" y="-314.5" font-family="Times,serif" font-size="14.00" fill="#000000">PPF</text>
<polyline fill="none" stroke="#000000" points="125.8061,-306.3 184.1939,-306.3 "/>
<text text-anchor="middle" x="155" y="-289.7" font-family="Times,serif" font-size="14.00" fill="#000000">SET 50</text>
</g>
<!-- PSL&#45;&gt;PPF -->
<g id="edge8" class="edge">
<title>PSL&#45;&gt;PPF</title>
<path fill="none" stroke="#000000" d="M125.7369,-1015.3306C110.0683,-991.5017 90,-953.8969 90,-917.6 90,-917.6 90,-917.6 90,-421.6 90,-387.1313 112.316,-353.4705 130.7964,-331.5047"/>
<polygon fill="#000000" stroke="#000000" points="122.9538,-1017.462 131.4756,-1023.7573 128.7396,-1013.5218 122.9538,-1017.462"/>
<text text-anchor="middle" x="126.3916" y="-692.4" font-family="Times,serif" font-size="14.00" fill="#000000">1 @ 14h24m</text>
</g>
<!-- PSM&#45;&gt;PPF -->
<g id="edge10" class="edge">
<title>PSM&#45;&gt;PPF</title>
<path fill="none" stroke="#000000" d="M46.1477,-238.1287C48.5871,-246.897 52.4603,-256.0829 58.6094,-263 76.0391,-282.6067 104.073,-293.8199 125.4257,-299.8987"/>
<polygon fill="#000000" stroke="#000000" points="49.5183,-237.1657 43.8922,-228.188 42.6918,-238.7146 49.5183,-237.1657"/>
<text text-anchor="middle" x="83.6953" y="-250.4" font-family="Times,serif" font-size="14.00" fill="#000000">1 9h36m</text>
</g>
<!-- ASM -->
<g id="node11" class="node">
<title>ASM</title>
<path fill="#add8e6" stroke="#000000" d="M157.1462,-954.1C157.1462,-954.1 242.8538,-954.1 242.8538,-954.1 248.8538,-954.1 254.8538,-960.1 254.8538,-966.1 254.8538,-966.1 254.8538,-991.7 254.8538,-991.7 254.8538,-997.7 248.8538,-1003.7 242.8538,-1003.7 242.8538,-1003.7 157.1462,-1003.7 157.1462,-1003.7 151.1462,-1003.7 145.1462,-997.7 145.1462,-991.7 145.1462,-991.7 145.1462,-966.1 145.1462,-966.1 145.1462,-960.1 151.1462,-954.1 157.1462,-954.1"/>
<text text-anchor="middle" x="200" y="-987.1" font-family="Times,serif" font-size="14.00" fill="#000000">ASM</text>
<polyline fill="none" stroke="#000000" points="145.1462,-978.9 254.8538,-978.9 "/>
<text text-anchor="middle" x="200" y="-962.3" font-family="Times,serif" font-size="14.00" fill="#000000">TEC 50 ENG 20</text>
</g>
<!-- FET&#45;&gt;ASM -->
<g id="edge11" class="edge">
<title>FET&#45;&gt;ASM</title>
<path fill="none" stroke="#000000" d="M252.7695,-1068.3753C241.4487,-1049.1799 226.0846,-1023.1287 214.8546,-1004.0873"/>
<polygon fill="#000000" stroke="#000000" points="249.8716,-1070.3515 257.9664,-1077.1871 255.9011,-1066.7955 249.8716,-1070.3515"/>
<text text-anchor="middle" x="279.8916" y="-1036" font-family="Times,serif" font-size="14.00" fill="#000000">4 @ 9h36m</text>
</g>
<!-- APF -->
<g id="node14" class="node">
<title>APF</title>
<path fill="#add8e6" stroke="#000000" d="M828.1462,-954.1C828.1462,-954.1 913.8538,-954.1 913.8538,-954.1 919.8538,-954.1 925.8538,-960.1 925.8538,-966.1 925.8538,-966.1 925.8538,-991.7 925.8538,-991.7 925.8538,-997.7 919.8538,-1003.7 913.8538,-1003.7 913.8538,-1003.7 828.1462,-1003.7 828.1462,-1003.7 822.1462,-1003.7 816.1462,-997.7 816.1462,-991.7 816.1462,-991.7 816.1462,-966.1 816.1462,-966.1 816.1462,-960.1 822.1462,-954.1 828.1462,-954.1"/>
<text text-anchor="middle" x="871" y="-987.1" font-family="Times,serif" font-size="14.00" fill="#000000">APF</text>
<polyline fill="none" stroke="#000000" points="816.1462,-978.9 925.8538,-978.9 "/>
<text text-anchor="middle" x="871" y="-962.3" font-family="Times,serif" font-size="14.00" fill="#000000">TEC 60 ENG 20</text>
</g>
<!-- NV1&#45;&gt;APF -->
<g id="edge14" class="edge">
<title>NV1&#45;&gt;APF</title>
<path fill="none" stroke="#000000" d="M820.8558,-1067.848C831.691,-1048.6281 846.2807,-1022.7483 856.9285,-1003.8607"/>
<polygon fill="#000000" stroke="#000000" points="817.7341,-1066.2585 815.8721,-1076.6884 823.8319,-1069.6961 817.7341,-1066.2585"/>
<text text-anchor="middle" x="877.9463" y="-1036" font-family="Times,serif" font-size="14.00" fill="#000000">1 @ 1d12h</text>
</g>
<!-- ELP -->
<g id="node17" class="node">
<title>ELP</title>
<path fill="#add8e6" stroke="#000000" d="M720.0291,-723.5C720.0291,-723.5 755.9709,-723.5 755.9709,-723.5 761.9709,-723.5 767.9709,-729.5 767.9709,-735.5 767.9709,-735.5 767.9709,-761.1 767.9709,-761.1 767.9709,-767.1 761.9709,-773.1 755.9709,-773.1 755.9709,-773.1 720.0291,-773.1 720.0291,-773.1 714.0291,-773.1 708.0291,-767.1 708.0291,-761.1 708.0291,-761.1 708.0291,-735.5 708.0291,-735.5 708.0291,-729.5 714.0291,-723.5 720.0291,-723.5"/>
<text text-anchor="middle" x="738" y="-756.5" font-family="Times,serif" font-size="14.00" fill="#000000">ELP</text>
<polyline fill="none" stroke="#000000" points="708.0291,-748.3 767.9709,-748.3 "/>
<text text-anchor="middle" x="738" y="-731.7" font-family="Times,serif" font-size="14.00" fill="#000000">TEC 40</text>
</g>
<!-- SAR&#45;&gt;ELP -->
<g id="edge17" class="edge">
<title>SAR&#45;&gt;ELP</title>
<path fill="none" stroke="#000000" d="M445.8,-900.9835C508.3741,-868.2866 646.7129,-796.0003 707.8926,-764.0321"/>
<polygon fill="#000000" stroke="#000000" points="444.0251,-897.9619 436.7831,-905.6952 447.267,-904.166 444.0251,-897.9619"/>
<text text-anchor="middle" x="581.8916" y="-859.4" font-family="Times,serif" font-size="14.00" fill="#000000">1 @ 16h5m</text>
</g>
<!-- COM&#45;&gt;APF -->
<g id="edge20" class="edge">
<title>COM&#45;&gt;APF</title>
<path fill="none" stroke="#000000" d="M650.9849,-1078.3813C693.5853,-1059.1193 766.035,-1026.3606 816.0942,-1003.726"/>
<polygon fill="#000000" stroke="#000000" points="649.5239,-1075.2007 641.8541,-1082.5099 652.4079,-1081.579 649.5239,-1075.2007"/>
<text text-anchor="middle" x="797.9463" y="-1036" font-family="Times,serif" font-size="14.00" fill="#000000">1 @ 18h</text>
</g>
<!-- PPF&#45;&gt;PSM -->
<g id="edge101" class="edge">
<title>PPF&#45;&gt;PSM</title>
<path fill="none" stroke="#000000" d="M115.4931,-301.4911C91.0242,-296.2922 61.2623,-285.4797 45,-263 37.8964,-253.1806 37.3208,-239.4495 38.4298,-228.4514"/>
<polygon fill="#000000" stroke="#000000" points="115.1261,-304.9834 125.6009,-303.3932 116.4207,-298.1042 115.1261,-304.9834"/>
</g>
<!-- PG -->
<g id="node10" class="node">
<title>PG</title>
<ellipse fill="none" stroke="#000000" cx="296" cy="-210.2" rx="27" ry="18"/>
<text text-anchor="middle" x="296" y="-206" font-family="Times,serif" font-size="14.00" fill="#000000">PG</text>
</g>
<!-- PPF&#45;&gt;PG -->
<g id="edge9" class="edge">
<title>PPF&#45;&gt;PG</title>
<path fill="none" stroke="#000000" d="M193.1855,-286.5796C205.8305,-279.5922 219.7858,-271.3747 232,-263 249.1072,-251.2704 267.2188,-236.0303 279.792,-224.9404"/>
<polygon fill="#000000" stroke="#000000" points="191.3676,-283.584 184.2531,-291.4347 194.7106,-289.7342 191.3676,-283.584"/>
</g>
<!-- SFK -->
<g id="node26" class="node">
<title>SFK</title>
<ellipse fill="none" stroke="#000000" cx="1062" cy="-210.2" rx="28.991" ry="18"/>
<text text-anchor="middle" x="1062" y="-206" font-family="Times,serif" font-size="14.00" fill="#000000">SFK</text>
</g>
<!-- PPF&#45;&gt;SFK -->
<g id="edge102" class="edge">
<title>PPF&#45;&gt;SFK</title>
<path fill="none" stroke="#000000" d="M194.192,-297.8703C221.4911,-292.2921 258.8135,-285.248 292,-281 453.7694,-260.2931 866.275,-269.6841 1024,-228.2 1029.5067,-226.7517 1035.1854,-224.5149 1040.4202,-222.1046"/>
<polygon fill="#000000" stroke="#000000" points="193.333,-294.4738 184.2496,-299.9276 194.7514,-301.3286 193.333,-294.4738"/>
</g>
<!-- PSS -->
<g id="node45" class="node">
<title>PSS</title>
<ellipse fill="none" stroke="#000000" cx="186" cy="-210.2" rx="27.2835" ry="18"/>
<text text-anchor="middle" x="186" y="-206" font-family="Times,serif" font-size="14.00" fill="#000000">PSS</text>
</g>
<!-- PPF&#45;&gt;PSS -->
<g id="edge114" class="edge">
<title>PPF&#45;&gt;PSS</title>
<path fill="none" stroke="#000000" d="M192.7847,-287.7913C202.0528,-281.3084 210.7983,-273.0713 216,-263 222.7734,-249.8857 213.1662,-235.3242 203.069,-224.8204"/>
<polygon fill="#000000" stroke="#000000" points="190.7648,-284.9282 184.2128,-293.2542 194.5269,-290.8313 190.7648,-284.9282"/>
</g>
<!-- FE -->
<g id="node12" class="node">
<title>FE</title>
<ellipse fill="none" stroke="#000000" cx="507" cy="-18" rx="27" ry="18"/>
<text text-anchor="middle" x="507" y="-13.8" font-family="Times,serif" font-size="14.00" fill="#000000">FE</text>
</g>
<!-- ASM&#45;&gt;FE -->
<g id="edge12" class="edge">
<title>ASM&#45;&gt;FE</title>
<path fill="none" stroke="#000000" d="M200,-943.4784C200,-920.67 200,-890.3849 200,-863.6 200,-863.6 200,-863.6 200,-475.6 200,-434.5255 212.2726,-425.7366 221,-385.6 230.3156,-342.7582 236.055,-228.9265 260,-192.2 316.7444,-105.1661 433.4691,-48.5553 483.4472,-27.3711"/>
<polygon fill="#000000" stroke="#000000" points="196.5001,-943.7087 200,-953.7088 203.5001,-943.7088 196.5001,-943.7087"/>
</g>
<!-- TI -->
<g id="node13" class="node">
<title>TI</title>
<ellipse fill="none" stroke="#000000" cx="145" cy="-863.6" rx="27" ry="18"/>
<text text-anchor="middle" x="145" y="-859.4" font-family="Times,serif" font-size="14.00" fill="#000000">TI</text>
</g>
<!-- ASM&#45;&gt;TI -->
<g id="edge13" class="edge">
<title>ASM&#45;&gt;TI</title>
<path fill="none" stroke="#000000" d="M183.6722,-944.671C173.6953,-923.7559 161.3547,-897.8855 153.3365,-881.0763"/>
<polygon fill="#000000" stroke="#000000" points="180.6013,-946.3628 188.0658,-953.8816 186.9194,-943.349 180.6013,-946.3628"/>
</g>
<!-- WS -->
<g id="node15" class="node">
<title>WS</title>
<ellipse fill="none" stroke="#000000" cx="904" cy="-863.6" rx="27" ry="18"/>
<text text-anchor="middle" x="904" y="-859.4" font-family="Times,serif" font-size="14.00" fill="#000000">WS</text>
</g>
<!-- APF&#45;&gt;WS -->
<g id="edge15" class="edge">
<title>APF&#45;&gt;WS</title>
<path fill="none" stroke="#000000" d="M874.8393,-943.5609C876.9703,-929.6191 880.1961,-913.6165 885,-899.6 887.2454,-893.0484 890.5561,-886.2372 893.7873,-880.3253"/>
<polygon fill="#000000" stroke="#000000" points="871.3327,-943.3654 873.4151,-953.7536 878.2653,-944.3342 871.3327,-943.3654"/>
</g>
<!-- SNM -->
<g id="node16" class="node">
<title>SNM</title>
<ellipse fill="none" stroke="#000000" cx="1202" cy="-863.6" rx="31.9205" ry="18"/>
<text text-anchor="middle" x="1202" y="-859.4" font-family="Times,serif" font-size="14.00" fill="#000000">SNM</text>
</g>
<!-- APF&#45;&gt;SNM -->
<g id="edge16" class="edge">
<title>APF&#45;&gt;SNM</title>
<path fill="none" stroke="#000000" d="M936.2641,-969.2306C975.2595,-962.3116 1025.346,-951.3977 1068,-935.6 1110.1012,-920.007 1155.378,-893.373 1181.047,-877.238"/>
<polygon fill="#000000" stroke="#000000" points="935.3461,-965.8373 926.0889,-970.9904 936.5391,-972.7349 935.3461,-965.8373"/>
</g>
<!-- BWS -->
<g id="node20" class="node">
<title>BWS</title>
<ellipse fill="none" stroke="#000000" cx="827" cy="-863.6" rx="31.9205" ry="18"/>
<text text-anchor="middle" x="827" y="-859.4" font-family="Times,serif" font-size="14.00" fill="#000000">BWS</text>
</g>
<!-- APF&#45;&gt;BWS -->
<g id="edge21" class="edge">
<title>APF&#45;&gt;BWS</title>
<path fill="none" stroke="#000000" d="M857.8526,-944.4478C849.9417,-923.7176 840.1979,-898.1844 833.8034,-881.428"/>
<polygon fill="#000000" stroke="#000000" points="854.6173,-945.7867 861.4527,-953.8816 861.1572,-943.2909 854.6173,-945.7867"/>
</g>
<!-- AAR -->
<g id="node21" class="node">
<title>AAR</title>
<ellipse fill="none" stroke="#000000" cx="742" cy="-863.6" rx="31.339" ry="18"/>
<text text-anchor="middle" x="742" y="-859.4" font-family="Times,serif" font-size="14.00" fill="#000000">AAR</text>
</g>
<!-- APF&#45;&gt;AAR -->
<g id="edge22" class="edge">
<title>APF&#45;&gt;AAR</title>
<path fill="none" stroke="#000000" d="M835.2413,-946.9389C810.4707,-924.799 778.5909,-896.3049 759.2553,-879.0228"/>
<polygon fill="#000000" stroke="#000000" points="833.2206,-949.8271 843.0089,-953.8816 837.8854,-944.608 833.2206,-949.8271"/>
</g>
<!-- RAD -->
<g id="node22" class="node">
<title>RAD</title>
<ellipse fill="none" stroke="#000000" cx="1101" cy="-809.6" rx="31.339" ry="18"/>
<text text-anchor="middle" x="1101" y="-805.4" font-family="Times,serif" font-size="14.00" fill="#000000">RAD</text>
</g>
<!-- APF&#45;&gt;RAD -->
<g id="edge23" class="edge">
<title>APF&#45;&gt;RAD</title>
<path fill="none" stroke="#000000" d="M934.9647,-950.4567C943.5934,-945.8539 952.1637,-940.8587 960,-935.6 1010.4309,-901.7577 1061.6081,-851.0268 1086.1164,-825.4902"/>
<polygon fill="#000000" stroke="#000000" points="933.2528,-947.4017 925.9798,-955.1059 936.4698,-953.6187 933.2528,-947.4017"/>
</g>
<!-- DA -->
<g id="node23" class="node">
<title>DA</title>
<ellipse fill="none" stroke="#000000" cx="1686" cy="-652.2" rx="27" ry="18"/>
<text text-anchor="middle" x="1686" y="-648" font-family="Times,serif" font-size="14.00" fill="#000000">DA</text>
</g>
<!-- APF&#45;&gt;DA -->
<g id="edge25" class="edge">
<title>APF&#45;&gt;DA</title>
<path fill="none" stroke="#000000" d="M936.0661,-971.3696C986.5893,-964.6077 1058.0648,-953.0308 1119,-935.6 1364.4134,-865.3983 1445.9307,-864.7731 1645,-705 1657.4905,-694.9751 1668.4288,-680.4152 1675.8588,-669.1228"/>
<polygon fill="#000000" stroke="#000000" points="935.3924,-967.9279 925.9326,-972.6989 936.3029,-974.8684 935.3924,-967.9279"/>
</g>
<!-- WS&#45;&gt;APF -->
<g id="edge24" class="edge">
<title>WS&#45;&gt;APF</title>
<path fill="none" stroke="#000000" d="M896.1451,-891.0444C890.6844,-910.1239 883.4631,-935.3548 878.1605,-953.8816"/>
<polygon fill="#000000" stroke="#000000" points="899.5107,-892.005 898.8975,-881.428 892.7809,-890.0789 899.5107,-892.005"/>
<text text-anchor="middle" x="924.9463" y="-913.4" font-family="Times,serif" font-size="14.00" fill="#000000">20@1d19h</text>
</g>
<!-- SL -->
<g id="node28" class="node">
<title>SL</title>
<path fill="#ff69b4" stroke="#000000" d="M1411.3601,-723.5C1411.3601,-723.5 1442.6399,-723.5 1442.6399,-723.5 1448.6399,-723.5 1454.6399,-729.5 1454.6399,-735.5 1454.6399,-735.5 1454.6399,-761.1 1454.6399,-761.1 1454.6399,-767.1 1448.6399,-773.1 1442.6399,-773.1 1442.6399,-773.1 1411.3601,-773.1 1411.3601,-773.1 1405.3601,-773.1 1399.3601,-767.1 1399.3601,-761.1 1399.3601,-761.1 1399.3601,-735.5 1399.3601,-735.5 1399.3601,-729.5 1405.3601,-723.5 1411.3601,-723.5"/>
<text text-anchor="middle" x="1427" y="-756.5" font-family="Times,serif" font-size="14.00" fill="#000000">SL</text>
<polyline fill="none" stroke="#000000" points="1399.3601,-748.3 1454.6399,-748.3 "/>
<text text-anchor="middle" x="1427" y="-731.7" font-family="Times,serif" font-size="14.00" fill="#000000">SCI 20</text>
</g>
<!-- SNM&#45;&gt;SL -->
<g id="edge30" class="edge">
<title>SNM&#45;&gt;SL</title>
<path fill="none" stroke="#000000" d="M1234.5633,-846.9131C1278.87,-824.2084 1357.3957,-783.9683 1399.124,-762.5849"/>
<polygon fill="#000000" stroke="#000000" points="1232.957,-843.8034 1225.6537,-851.4788 1236.1494,-850.0331 1232.957,-843.8034"/>
<text text-anchor="middle" x="1361.4463" y="-805.4" font-family="Times,serif" font-size="14.00" fill="#000000">2 @ 2d</text>
</g>
<!-- SEN -->
<g id="node18" class="node">
<title>SEN</title>
<ellipse fill="none" stroke="#000000" cx="765" cy="-598.2" rx="29.0529" ry="18"/>
<text text-anchor="middle" x="765" y="-594" font-family="Times,serif" font-size="14.00" fill="#000000">SEN</text>
</g>
<!-- ELP&#45;&gt;SEN -->
<g id="edge18" class="edge">
<title>ELP&#45;&gt;SEN</title>
<path fill="none" stroke="#000000" d="M744.3482,-713.0089C749.8029,-682.6847 757.4477,-640.1854 761.7413,-616.3161"/>
<polygon fill="#000000" stroke="#000000" points="740.8449,-712.7149 742.5192,-723.1766 747.7344,-713.9543 740.8449,-712.7149"/>
</g>
<!-- PCB -->
<g id="node19" class="node">
<title>PCB</title>
<ellipse fill="none" stroke="#000000" cx="715" cy="-475.6" rx="29.072" ry="18"/>
<text text-anchor="middle" x="715" y="-471.4" font-family="Times,serif" font-size="14.00" fill="#000000">PCB</text>
</g>
<!-- ELP&#45;&gt;PCB -->
<g id="edge19" class="edge">
<title>ELP&#45;&gt;PCB</title>
<path fill="none" stroke="#000000" d="M735.0091,-712.8384C730.046,-653.9931 720.2831,-538.2387 716.5247,-493.6773"/>
<polygon fill="#000000" stroke="#000000" points="731.5493,-713.4634 735.8774,-723.1338 738.5245,-712.875 731.5493,-713.4634"/>
</g>
<!-- MB -->
<g id="node32" class="node">
<title>MB</title>
<ellipse fill="none" stroke="#000000" cx="537" cy="-652.2" rx="27" ry="18"/>
<text text-anchor="middle" x="537" y="-648" font-family="Times,serif" font-size="14.00" fill="#000000">MB</text>
</g>
<!-- ELP&#45;&gt;MB -->
<g id="edge35" class="edge">
<title>ELP&#45;&gt;MB</title>
<path fill="none" stroke="#000000" d="M698.8777,-729.5953C657.2527,-709.6939 592.8621,-678.9082 559.2091,-662.8184"/>
<polygon fill="#000000" stroke="#000000" points="697.3767,-732.757 707.9083,-733.9129 700.3961,-726.4417 697.3767,-732.757"/>
</g>
<!-- DCM -->
<g id="node33" class="node">
<title>DCM</title>
<ellipse fill="none" stroke="#000000" cx="345" cy="-598.2" rx="33.0643" ry="18"/>
<text text-anchor="middle" x="345" y="-594" font-family="Times,serif" font-size="14.00" fill="#000000">DCM</text>
</g>
<!-- ELP&#45;&gt;DCM -->
<g id="edge36" class="edge">
<title>ELP&#45;&gt;DCM</title>
<path fill="none" stroke="#000000" d="M698.0732,-736.6658C650.5656,-722.4745 569.1092,-697.0386 501,-670.2 453.5443,-651.5 399.882,-625.6569 369.4786,-610.557"/>
<polygon fill="#000000" stroke="#000000" points="697.0957,-740.0266 707.6785,-739.5199 699.0896,-733.3165 697.0957,-740.0266"/>
</g>
<!-- HD -->
<g id="node34" class="node">
<title>HD</title>
<ellipse fill="none" stroke="#000000" cx="647" cy="-652.2" rx="27" ry="18"/>
<text text-anchor="middle" x="647" y="-648" font-family="Times,serif" font-size="14.00" fill="#000000">HD</text>
</g>
<!-- ELP&#45;&gt;HD -->
<g id="edge37" class="edge">
<title>ELP&#45;&gt;HD</title>
<path fill="none" stroke="#000000" d="M707.4125,-715.9983C691.8963,-699.6125 673.7787,-680.4795 661.4609,-667.4713"/>
<polygon fill="#000000" stroke="#000000" points="704.9112,-718.4471 714.3284,-723.3017 709.994,-713.6341 704.9112,-718.4471"/>
</g>
<!-- KV -->
<g id="node35" class="node">
<title>KV</title>
<ellipse fill="none" stroke="#000000" cx="818" cy="-652.2" rx="27" ry="18"/>
<text text-anchor="middle" x="818" y="-648" font-family="Times,serif" font-size="14.00" fill="#000000">KV</text>
</g>
<!-- ELP&#45;&gt;KV -->
<g id="edge39" class="edge">
<title>ELP&#45;&gt;KV</title>
<path fill="none" stroke="#000000" d="M766.9892,-715.604C770.0555,-712.0458 773.1079,-708.4608 776,-705 786.0648,-692.9564 797.1005,-679.0544 805.333,-668.5394"/>
<polygon fill="#000000" stroke="#000000" points="764.2266,-713.4472 760.3109,-723.2919 769.5112,-718.0378 764.2266,-713.4472"/>
</g>
<!-- AU -->
<g id="node36" class="node">
<title>AU</title>
<ellipse fill="#ffff00" stroke="#000000" cx="1376" cy="-18" rx="27" ry="18"/>
<text text-anchor="middle" x="1376" y="-13.8" font-family="Times,serif" font-size="14.00" fill="#000000">AU</text>
</g>
<!-- ELP&#45;&gt;AU -->
<g id="edge40" class="edge">
<title>ELP&#45;&gt;AU</title>
<path fill="none" stroke="#000000" d="M778.459,-743.0948C813.4879,-737.3834 864.7152,-726.0779 905,-705 991.2299,-659.8826 1001.387,-630.2089 1071,-562.2 1087.9724,-545.6187 1194.2201,-416.7055 1214,-403.6 1234.3876,-390.0918 1243.9599,-396.1999 1266,-385.6 1293.0024,-372.6136 1295.1331,-360.6097 1323,-349.6 1362.5612,-333.9702 1383.3631,-357.6373 1417,-331.6 1468.9313,-291.4017 1481.5107,-256.0136 1466,-192.2 1450.7241,-129.3521 1408.5475,-63.8374 1387.8156,-34.2336"/>
<polygon fill="#000000" stroke="#000000" points="777.4849,-739.7038 768.138,-744.6923 778.5557,-746.6214 777.4849,-739.7038"/>
</g>
<!-- SWF -->
<g id="node37" class="node">
<title>SWF</title>
<ellipse fill="none" stroke="#000000" cx="748" cy="-210.2" rx="30.777" ry="18"/>
<text text-anchor="middle" x="748" y="-206" font-family="Times,serif" font-size="14.00" fill="#000000">SWF</text>
</g>
<!-- ELP&#45;&gt;SWF -->
<g id="edge41" class="edge">
<title>ELP&#45;&gt;SWF</title>
<path fill="none" stroke="#000000" d="M778.1653,-743.4854C828.7121,-734.9292 909,-711.9366 909,-652.2 909,-652.2 909,-652.2 909,-421.6 909,-389.0007 910.6858,-378.1775 895,-349.6 863.861,-292.8689 801.5439,-245.6745 768.9537,-223.6152"/>
<polygon fill="#000000" stroke="#000000" points="777.5128,-740.0449 768.1777,-745.0555 778.6,-746.96 777.5128,-740.0449"/>
</g>
<!-- SCA -->
<g id="node44" class="node">
<title>SCA</title>
<path fill="#add8e6" stroke="#000000" d="M705.0291,-281.5C705.0291,-281.5 740.9709,-281.5 740.9709,-281.5 746.9709,-281.5 752.9709,-287.5 752.9709,-293.5 752.9709,-293.5 752.9709,-319.1 752.9709,-319.1 752.9709,-325.1 746.9709,-331.1 740.9709,-331.1 740.9709,-331.1 705.0291,-331.1 705.0291,-331.1 699.0291,-331.1 693.0291,-325.1 693.0291,-319.1 693.0291,-319.1 693.0291,-293.5 693.0291,-293.5 693.0291,-287.5 699.0291,-281.5 705.0291,-281.5"/>
<text text-anchor="middle" x="723" y="-314.5" font-family="Times,serif" font-size="14.00" fill="#000000">SCA</text>
<polyline fill="none" stroke="#000000" points="693.0291,-306.3 752.9709,-306.3 "/>
<text text-anchor="middle" x="723" y="-289.7" font-family="Times,serif" font-size="14.00" fill="#000000">TEC 30</text>
</g>
<!-- SEN&#45;&gt;SCA -->
<g id="edge91" class="edge">
<title>SEN&#45;&gt;SCA</title>
<path fill="none" stroke="#000000" d="M775.4282,-570.7097C788.378,-532.438 806.724,-461.303 789,-403.6 780.6093,-376.2829 761.6572,-349.7442 746.2046,-331.3022"/>
<polygon fill="#000000" stroke="#000000" points="771.968,-569.9996 771.9533,-580.5944 778.5718,-572.3212 771.968,-569.9996"/>
<text text-anchor="middle" x="830.4453" y="-471.4" font-family="Times,serif" font-size="14.00" fill="#000000">20 x 6h58m</text>
</g>
<!-- PCB&#45;&gt;SCA -->
<g id="edge95" class="edge">
<title>PCB&#45;&gt;SCA</title>
<path fill="none" stroke="#000000" d="M716.3371,-447.3038C717.8721,-414.8185 720.3659,-362.0446 721.8279,-331.1047"/>
<polygon fill="#000000" stroke="#000000" points="712.8321,-447.3278 715.8561,-457.4819 719.8243,-447.6583 712.8321,-447.3278"/>
<text text-anchor="middle" x="751.8916" y="-417.4" font-family="Times,serif" font-size="14.00" fill="#000000">5 @ 6h43m</text>
</g>
<!-- BWS&#45;&gt;ELP -->
<g id="edge34" class="edge">
<title>BWS&#45;&gt;ELP</title>
<path fill="none" stroke="#000000" d="M823.0594,-835.2231C819.9782,-821.0309 814.5407,-804.2339 805,-791.6 795.4853,-779.0004 781.1583,-769.0358 768.1917,-761.8579"/>
<polygon fill="#000000" stroke="#000000" points="819.6961,-836.276 824.9853,-845.4561 826.5753,-834.9813 819.6961,-836.276"/>
<text text-anchor="middle" x="843.1963" y="-805.4" font-family="Times,serif" font-size="14.00" fill="#000000">1 @12h</text>
</g>
<!-- AAR&#45;&gt;ELP -->
<g id="edge38" class="edge">
<title>AAR&#45;&gt;ELP</title>
<path fill="none" stroke="#000000" d="M739.6322,-835.0795C739.4716,-832.5514 739.3293,-830.0304 739.2168,-827.6 738.3765,-809.4444 738.0792,-788.9283 737.9884,-773.313"/>
<polygon fill="#000000" stroke="#000000" points="736.1587,-835.5754 740.3651,-845.2994 743.1408,-835.0747 736.1587,-835.5754"/>
<text text-anchor="middle" x="772.8916" y="-805.4" font-family="Times,serif" font-size="14.00" fill="#000000">3 @ 16h5m</text>
</g>
<!-- EDM -->
<g id="node24" class="node">
<title>EDM</title>
<path fill="#00ff00" stroke="#000000" d="M1015.8061,-512.1C1015.8061,-512.1 1050.1939,-512.1 1050.1939,-512.1 1056.1939,-512.1 1062.1939,-518.1 1062.1939,-524.1 1062.1939,-524.1 1062.1939,-549.7 1062.1939,-549.7 1062.1939,-555.7 1056.1939,-561.7 1050.1939,-561.7 1050.1939,-561.7 1015.8061,-561.7 1015.8061,-561.7 1009.8061,-561.7 1003.8061,-555.7 1003.8061,-549.7 1003.8061,-549.7 1003.8061,-524.1 1003.8061,-524.1 1003.8061,-518.1 1009.8061,-512.1 1015.8061,-512.1"/>
<text text-anchor="middle" x="1033" y="-545.1" font-family="Times,serif" font-size="14.00" fill="#000000">EDM</text>
<polyline fill="none" stroke="#000000" points="1003.8061,-536.9 1062.1939,-536.9 "/>
<text text-anchor="middle" x="1033" y="-520.3" font-family="Times,serif" font-size="14.00" fill="#000000">SET 50</text>
</g>
<!-- RAD&#45;&gt;EDM -->
<g id="edge26" class="edge">
<title>RAD&#45;&gt;EDM</title>
<path fill="none" stroke="#000000" d="M1122.0924,-785.3854C1140.5796,-761.1132 1162.8015,-722.5218 1151,-688.2 1133.2902,-636.6954 1090.0695,-589.2644 1061.1479,-561.7123"/>
<polygon fill="#000000" stroke="#000000" points="1119.2505,-783.336 1115.7709,-793.3432 1124.7316,-787.6901 1119.2505,-783.336"/>
<text text-anchor="middle" x="1186.8916" y="-692.4" font-family="Times,serif" font-size="14.00" fill="#000000">1 @ 4h48m</text>
</g>
<!-- SE -->
<g id="node38" class="node">
<title>SE</title>
<path fill="#ffc0cb" stroke="#000000" d="M1440.8671,-512.1C1440.8671,-512.1 1479.1329,-512.1 1479.1329,-512.1 1485.1329,-512.1 1491.1329,-518.1 1491.1329,-524.1 1491.1329,-524.1 1491.1329,-549.7 1491.1329,-549.7 1491.1329,-555.7 1485.1329,-561.7 1479.1329,-561.7 1479.1329,-561.7 1440.8671,-561.7 1440.8671,-561.7 1434.8671,-561.7 1428.8671,-555.7 1428.8671,-549.7 1428.8671,-549.7 1428.8671,-524.1 1428.8671,-524.1 1428.8671,-518.1 1434.8671,-512.1 1440.8671,-512.1"/>
<text text-anchor="middle" x="1460" y="-545.1" font-family="Times,serif" font-size="14.00" fill="#000000">SE</text>
<polyline fill="none" stroke="#000000" points="1428.8671,-536.9 1491.1329,-536.9 "/>
<text text-anchor="middle" x="1460" y="-520.3" font-family="Times,serif" font-size="14.00" fill="#000000">ENG 30</text>
</g>
<!-- DA&#45;&gt;SE -->
<g id="edge42" class="edge">
<title>DA&#45;&gt;SE</title>
<path fill="none" stroke="#000000" d="M1655.1935,-636.4833C1612.1747,-614.536 1534.5338,-574.9254 1491.2685,-552.8525"/>
<polygon fill="#000000" stroke="#000000" points="1653.8318,-639.7177 1664.3302,-641.1446 1657.013,-633.4823 1653.8318,-639.7177"/>
<text text-anchor="middle" x="1642.9463" y="-594" font-family="Times,serif" font-size="14.00" fill="#000000">1 @ 1d12h</text>
</g>
<!-- DCS -->
<g id="node25" class="node">
<title>DCS</title>
<ellipse fill="none" stroke="#000000" cx="258" cy="-421.6" rx="29.6339" ry="18"/>
<text text-anchor="middle" x="258" y="-417.4" font-family="Times,serif" font-size="14.00" fill="#000000">DCS</text>
</g>
<!-- EDM&#45;&gt;DCS -->
<g id="edge27" class="edge">
<title>EDM&#45;&gt;DCS</title>
<path fill="none" stroke="#000000" d="M993.5238,-528.9209C964.8918,-523.3774 925.1799,-516.1889 890,-511.6 795.794,-499.3117 771.3157,-505.016 677,-493.6 524.2319,-475.1089 486.0224,-469.1338 335,-439.6 318.5626,-436.3855 300.3045,-432.1468 285.6942,-428.5902"/>
<polygon fill="#000000" stroke="#000000" points="993.0562,-532.3957 1003.5422,-530.881 994.4003,-525.526 993.0562,-532.3957"/>
</g>
<!-- EDM&#45;&gt;SFK -->
<g id="edge28" class="edge">
<title>EDM&#45;&gt;SFK</title>
<path fill="none" stroke="#000000" d="M1025.8166,-501.8408C1022.4,-483.4057 1018.697,-460.3782 1017,-439.6 1010.4587,-359.5075 1040.9552,-266.0797 1055.1097,-227.8565"/>
<polygon fill="#000000" stroke="#000000" points="1022.4119,-502.672 1027.724,-511.8389 1029.2879,-501.3601 1022.4119,-502.672"/>
</g>
<!-- POW -->
<g id="node27" class="node">
<title>POW</title>
<ellipse fill="none" stroke="#000000" cx="1135" cy="-421.6" rx="32.4827" ry="18"/>
<text text-anchor="middle" x="1135" y="-417.4" font-family="Times,serif" font-size="14.00" fill="#000000">POW</text>
</g>
<!-- EDM&#45;&gt;POW -->
<g id="edge29" class="edge">
<title>EDM&#45;&gt;POW</title>
<path fill="none" stroke="#000000" d="M1061.9152,-504.2145C1081.0264,-482.6113 1105.2656,-455.2115 1120.4587,-438.0374"/>
<polygon fill="#000000" stroke="#000000" points="1059.1369,-502.0727 1055.1325,-511.8816 1064.3798,-506.7108 1059.1369,-502.0727"/>
</g>
<!-- DCS&#45;&gt;PPF -->
<g id="edge113" class="edge">
<title>DCS&#45;&gt;PPF</title>
<path fill="none" stroke="#000000" d="M220.0724,-412.9976C194.4339,-406.3325 163.8842,-396.4312 156.1094,-385.6 144.9491,-370.0523 145.5812,-348.0096 148.49,-331.1088"/>
<polygon fill="#000000" stroke="#000000" points="219.4072,-416.4391 229.9581,-415.4754 221.1091,-409.6491 219.4072,-416.4391"/>
<text text-anchor="middle" x="186.9453" y="-363.4" font-family="Times,serif" font-size="14.00" fill="#000000">2 x 7h12m</text>
</g>
<!-- FS -->
<g id="node63" class="node">
<title>FS</title>
<path fill="#00ff00" stroke="#000000" d="M960.8061,-89.3C960.8061,-89.3 995.1939,-89.3 995.1939,-89.3 1001.1939,-89.3 1007.1939,-95.3 1007.1939,-101.3 1007.1939,-101.3 1007.1939,-126.9 1007.1939,-126.9 1007.1939,-132.9 1001.1939,-138.9 995.1939,-138.9 995.1939,-138.9 960.8061,-138.9 960.8061,-138.9 954.8061,-138.9 948.8061,-132.9 948.8061,-126.9 948.8061,-126.9 948.8061,-101.3 948.8061,-101.3 948.8061,-95.3 954.8061,-89.3 960.8061,-89.3"/>
<text text-anchor="middle" x="978" y="-122.3" font-family="Times,serif" font-size="14.00" fill="#000000">FS</text>
<polyline fill="none" stroke="#000000" points="948.8061,-114.1 1007.1939,-114.1 "/>
<text text-anchor="middle" x="978" y="-97.5" font-family="Times,serif" font-size="14.00" fill="#000000">SET 50</text>
</g>
<!-- SFK&#45;&gt;FS -->
<g id="edge82" class="edge">
<title>SFK&#45;&gt;FS</title>
<path fill="none" stroke="#000000" d="M1059.2621,-182.0859C1057.3798,-173.5488 1054.2357,-164.5466 1049,-157.4 1038.5902,-143.191 1021.9773,-132.6911 1007.4378,-125.5919"/>
<polygon fill="#000000" stroke="#000000" points="1055.8423,-182.8513 1060.9882,-192.1125 1062.7408,-181.6636 1055.8423,-182.8513"/>
<text text-anchor="middle" x="1089.4453" y="-161.6" font-family="Times,serif" font-size="14.00" fill="#000000">16 x 2h53m</text>
</g>
<!-- ECA -->
<g id="node48" class="node">
<title>ECA</title>
<path fill="#add8e6" stroke="#000000" d="M1314.0852,-281.5C1314.0852,-281.5 1395.9148,-281.5 1395.9148,-281.5 1401.9148,-281.5 1407.9148,-287.5 1407.9148,-293.5 1407.9148,-293.5 1407.9148,-319.1 1407.9148,-319.1 1407.9148,-325.1 1401.9148,-331.1 1395.9148,-331.1 1395.9148,-331.1 1314.0852,-331.1 1314.0852,-331.1 1308.0852,-331.1 1302.0852,-325.1 1302.0852,-319.1 1302.0852,-319.1 1302.0852,-293.5 1302.0852,-293.5 1302.0852,-287.5 1308.0852,-281.5 1314.0852,-281.5"/>
<text text-anchor="middle" x="1355" y="-314.5" font-family="Times,serif" font-size="14.00" fill="#000000">ECA</text>
<polyline fill="none" stroke="#000000" points="1302.0852,-306.3 1407.9148,-306.3 "/>
<text text-anchor="middle" x="1355" y="-289.7" font-family="Times,serif" font-size="14.00" fill="#000000">SET 20 TEC 20</text>
</g>
<!-- POW&#45;&gt;ECA -->
<g id="edge54" class="edge">
<title>POW&#45;&gt;ECA</title>
<path fill="none" stroke="#000000" d="M1163.1477,-400.3934C1168.8898,-395.7085 1174.7703,-390.6353 1180,-385.6 1195.2328,-370.9335 1193.3647,-361.104 1211.1074,-349.6 1226.3205,-339.7361 1267.4349,-327.8182 1301.8382,-318.985"/>
<polygon fill="#000000" stroke="#000000" points="1160.5753,-397.9672 1154.9258,-406.9301 1164.9316,-403.4466 1160.5753,-397.9672"/>
<text text-anchor="middle" x="1238.4463" y="-363.4" font-family="Times,serif" font-size="14.00" fill="#000000">1 @ 4h48</text>
</g>
<!-- SL&#45;&gt;DA -->
<g id="edge61" class="edge">
<title>SL&#45;&gt;DA</title>
<path fill="none" stroke="#000000" d="M1464.8488,-744.6389C1504.5678,-739.6926 1568.0541,-728.6101 1618,-705 1638.1341,-695.4823 1657.8666,-679.1573 1670.8443,-667.1733"/>
<polygon fill="#000000" stroke="#000000" points="1464.3188,-741.177 1454.7967,-745.8225 1465.1374,-748.129 1464.3188,-741.177"/>
</g>
<!-- WAI -->
<g id="node29" class="node">
<title>WAI</title>
<ellipse fill="none" stroke="#000000" cx="1611" cy="-652.2" rx="30.1765" ry="18"/>
<text text-anchor="middle" x="1611" y="-648" font-family="Times,serif" font-size="14.00" fill="#000000">WAI</text>
</g>
<!-- SL&#45;&gt;WAI -->
<g id="edge31" class="edge">
<title>SL&#45;&gt;WAI</title>
<path fill="none" stroke="#000000" d="M1464.987,-743.5334C1510.1056,-737.0903 1581.5906,-724.1581 1600,-705 1608.7584,-695.8853 1611.3385,-681.7006 1611.8207,-670.3278"/>
<polygon fill="#000000" stroke="#000000" points="1464.3868,-740.0831 1454.961,-744.9209 1465.3464,-747.017 1464.3868,-740.0831"/>
</g>
<!-- DV -->
<g id="node30" class="node">
<title>DV</title>
<ellipse fill="none" stroke="#000000" cx="1455" cy="-652.2" rx="27" ry="18"/>
<text text-anchor="middle" x="1455" y="-648" font-family="Times,serif" font-size="14.00" fill="#000000">DV</text>
</g>
<!-- SL&#45;&gt;DV -->
<g id="edge32" class="edge">
<title>SL&#45;&gt;DV</title>
<path fill="none" stroke="#000000" d="M1424.7136,-713.1727C1425.1068,-704.8149 1426.317,-696.0489 1429,-688.2 1431.4937,-680.9048 1436.0065,-673.8159 1440.5804,-667.8851"/>
<polygon fill="#000000" stroke="#000000" points="1421.211,-713.4042 1424.6031,-723.4413 1428.2106,-713.4795 1421.211,-713.4042"/>
</g>
<!-- IMM -->
<g id="node31" class="node">
<title>IMM</title>
<ellipse fill="none" stroke="#000000" cx="1531" cy="-652.2" rx="31.339" ry="18"/>
<text text-anchor="middle" x="1531" y="-648" font-family="Times,serif" font-size="14.00" fill="#000000">IMM</text>
</g>
<!-- SL&#45;&gt;IMM -->
<g id="edge33" class="edge">
<title>SL&#45;&gt;IMM</title>
<path fill="none" stroke="#000000" d="M1437.4517,-713.988C1441.4991,-704.782 1446.9105,-695.3974 1454,-688.2 1456.0193,-686.1499 1484.1706,-673.2302 1505.8557,-663.4495"/>
<polygon fill="#000000" stroke="#000000" points="1434.1452,-712.8317 1433.7145,-723.4178 1440.6528,-715.4108 1434.1452,-712.8317"/>
</g>
<!-- ROM -->
<g id="node42" class="node">
<title>ROM</title>
<ellipse fill="none" stroke="#000000" cx="1256" cy="-421.6" rx="33.0643" ry="18"/>
<text text-anchor="middle" x="1256" y="-417.4" font-family="Times,serif" font-size="14.00" fill="#000000">ROM</text>
</g>
<!-- SL&#45;&gt;ROM -->
<g id="edge59" class="edge">
<title>SL&#45;&gt;ROM</title>
<path fill="none" stroke="#000000" d="M1389.1893,-740.0508C1353.2947,-730.0612 1301.0676,-709.453 1275,-670.2 1226.3891,-597.0011 1242.9249,-483.5715 1251.8553,-439.7421"/>
<polygon fill="#000000" stroke="#000000" points="1388.7396,-743.5514 1399.3007,-742.7064 1390.5178,-736.781 1388.7396,-743.5514"/>
</g>
<!-- NN -->
<g id="node51" class="node">
<title>NN</title>
<ellipse fill="none" stroke="#000000" cx="1311" cy="-652.2" rx="27" ry="18"/>
<text text-anchor="middle" x="1311" y="-648" font-family="Times,serif" font-size="14.00" fill="#000000">NN</text>
</g>
<!-- SL&#45;&gt;NN -->
<g id="edge58" class="edge">
<title>SL&#45;&gt;NN</title>
<path fill="none" stroke="#000000" d="M1391.4137,-718.8186C1370.3903,-701.4018 1344.7239,-680.1385 1328.1308,-666.392"/>
<polygon fill="#000000" stroke="#000000" points="1389.2815,-721.5973 1399.2151,-725.2817 1393.7473,-716.2068 1389.2815,-721.5973"/>
</g>
<!-- DD -->
<g id="node52" class="node">
<title>DD</title>
<ellipse fill="none" stroke="#000000" cx="1383" cy="-652.2" rx="27" ry="18"/>
<text text-anchor="middle" x="1383" y="-648" font-family="Times,serif" font-size="14.00" fill="#000000">DD</text>
</g>
<!-- SL&#45;&gt;DD -->
<g id="edge62" class="edge">
<title>SL&#45;&gt;DD</title>
<path fill="none" stroke="#000000" d="M1411.3882,-714.2025C1404.4607,-699.0722 1396.6079,-681.9209 1390.9203,-669.4987"/>
<polygon fill="#000000" stroke="#000000" points="1408.2091,-715.6665 1415.5544,-723.3017 1414.5737,-712.7524 1408.2091,-715.6665"/>
</g>
<!-- WAI&#45;&gt;SL -->
<g id="edge57" class="edge">
<title>WAI&#45;&gt;SL</title>
<path fill="none" stroke="#000000" d="M1580.9461,-670.3958C1572.4176,-675.8682 1563.2429,-682.0573 1555.1074,-688.2 1546.083,-695.0138 1545.6421,-699.0926 1536,-705 1510.1298,-720.8498 1477.4492,-732.9177 1454.6498,-740.2369"/>
<polygon fill="#000000" stroke="#000000" points="1582.9366,-673.2784 1589.529,-664.9844 1579.2033,-667.357 1582.9366,-673.2784"/>
<text text-anchor="middle" x="1575.4463" y="-692.4" font-family="Times,serif" font-size="14.00" fill="#000000">1 @ 2d</text>
</g>
<!-- DV&#45;&gt;SE -->
<g id="edge67" class="edge">
<title>DV&#45;&gt;SE</title>
<path fill="none" stroke="#000000" d="M1456.22,-624.0665C1457.0416,-605.121 1458.1157,-580.3515 1458.9089,-562.0606"/>
<polygon fill="#000000" stroke="#000000" points="1452.7179,-624.0421 1455.7813,-634.1844 1459.7113,-624.3454 1452.7179,-624.0421"/>
<text text-anchor="middle" x="1488.9463" y="-594" font-family="Times,serif" font-size="14.00" fill="#000000">1 @ 1d12h</text>
</g>
<!-- IMM&#45;&gt;SL -->
<g id="edge60" class="edge">
<title>IMM&#45;&gt;SL</title>
<path fill="none" stroke="#000000" d="M1499.167,-669.6668C1490.6035,-675.0618 1481.6363,-681.393 1474.1074,-688.2 1462.7001,-698.5135 1451.9585,-711.8203 1443.6214,-723.2901"/>
<polygon fill="#000000" stroke="#000000" points="1501.1235,-672.5739 1507.8678,-664.4029 1497.5,-666.5847 1501.1235,-672.5739"/>
<text text-anchor="middle" x="1504.9463" y="-692.4" font-family="Times,serif" font-size="14.00" fill="#000000">1 @ 1d12h</text>
</g>
<!-- MCA -->
<g id="node53" class="node">
<title>MCA</title>
<path fill="#add8e6" stroke="#000000" d="M410.0852,-512.1C410.0852,-512.1 491.9148,-512.1 491.9148,-512.1 497.9148,-512.1 503.9148,-518.1 503.9148,-524.1 503.9148,-524.1 503.9148,-549.7 503.9148,-549.7 503.9148,-555.7 497.9148,-561.7 491.9148,-561.7 491.9148,-561.7 410.0852,-561.7 410.0852,-561.7 404.0852,-561.7 398.0852,-555.7 398.0852,-549.7 398.0852,-549.7 398.0852,-524.1 398.0852,-524.1 398.0852,-518.1 404.0852,-512.1 410.0852,-512.1"/>
<text text-anchor="middle" x="451" y="-545.1" font-family="Times,serif" font-size="14.00" fill="#000000">MCA</text>
<polyline fill="none" stroke="#000000" points="398.0852,-536.9 503.9148,-536.9 "/>
<text text-anchor="middle" x="451" y="-520.3" font-family="Times,serif" font-size="14.00" fill="#000000">SET 20 TEC 20</text>
</g>
<!-- MB&#45;&gt;MCA -->
<g id="edge86" class="edge">
<title>MB&#45;&gt;MCA</title>
<path fill="none" stroke="#000000" d="M511.35,-631.9592C505.986,-627.1062 500.6016,-621.7206 496.1094,-616.2 482.5134,-599.4918 470.6321,-578.1555 462.4808,-561.8239"/>
<polygon fill="#000000" stroke="#000000" points="509.2319,-634.7545 519.0878,-638.642 513.8073,-629.4568 509.2319,-634.7545"/>
<text text-anchor="middle" x="526.9453" y="-594" font-family="Times,serif" font-size="14.00" fill="#000000">4 x 7h12m</text>
</g>
<!-- DCM&#45;&gt;PPF -->
<g id="edge100" class="edge">
<title>DCM&#45;&gt;PPF</title>
<path fill="none" stroke="#000000" d="M314.7109,-578.9095C266.6079,-546.1489 174.9264,-474.4615 143,-385.6 136.6912,-368.0406 140.2748,-347.1366 145.1232,-331.2003"/>
<polygon fill="#000000" stroke="#000000" points="312.905,-581.9125 323.1614,-584.569 316.8002,-576.0963 312.905,-581.9125"/>
<text text-anchor="middle" x="237.9463" y="-471.4" font-family="Times,serif" font-size="14.00" fill="#000000">2 @ 12h</text>
</g>
<!-- HD&#45;&gt;MCA -->
<g id="edge63" class="edge">
<title>HD&#45;&gt;MCA</title>
<path fill="none" stroke="#000000" d="M623.6981,-630.7611C606.056,-615.3016 580.7166,-594.69 556,-580.2 539.8399,-570.7262 521.214,-562.3208 504.1778,-555.4956"/>
<polygon fill="#000000" stroke="#000000" points="621.4338,-633.4312 631.2323,-637.4611 626.0855,-628.2004 621.4338,-633.4312"/>
<text text-anchor="middle" x="637.8916" y="-594" font-family="Times,serif" font-size="14.00" fill="#000000">5 @ 16h5m</text>
</g>
<!-- WPL -->
<g id="node73" class="node">
<title>WPL</title>
<path fill="#00ff00" stroke="#000000" d="M834.8061,-512.1C834.8061,-512.1 869.1939,-512.1 869.1939,-512.1 875.1939,-512.1 881.1939,-518.1 881.1939,-524.1 881.1939,-524.1 881.1939,-549.7 881.1939,-549.7 881.1939,-555.7 875.1939,-561.7 869.1939,-561.7 869.1939,-561.7 834.8061,-561.7 834.8061,-561.7 828.8061,-561.7 822.8061,-555.7 822.8061,-549.7 822.8061,-549.7 822.8061,-524.1 822.8061,-524.1 822.8061,-518.1 828.8061,-512.1 834.8061,-512.1"/>
<text text-anchor="middle" x="852" y="-545.1" font-family="Times,serif" font-size="14.00" fill="#000000">WPL</text>
<polyline fill="none" stroke="#000000" points="822.8061,-536.9 881.1939,-536.9 "/>
<text text-anchor="middle" x="852" y="-520.3" font-family="Times,serif" font-size="14.00" fill="#000000">SET 70</text>
</g>
<!-- KV&#45;&gt;WPL -->
<g id="edge103" class="edge">
<title>KV&#45;&gt;WPL</title>
<path fill="none" stroke="#000000" d="M816.1747,-624.0245C816.1607,-610.4455 817.4394,-594.1247 822.2168,-580.2 824.4079,-573.8137 827.8209,-567.5014 831.5662,-561.754"/>
<polygon fill="#000000" stroke="#000000" points="812.6807,-624.316 816.421,-634.2287 819.6786,-624.1471 812.6807,-624.316"/>
<text text-anchor="middle" x="859.3916" y="-594" font-family="Times,serif" font-size="14.00" fill="#000000">1 @ 19h12m</text>
</g>
<!-- CLR -->
<g id="node59" class="node">
<title>CLR</title>
<path fill="#00ff00" stroke="#000000" d="M538.0852,-89.3C538.0852,-89.3 619.9148,-89.3 619.9148,-89.3 625.9148,-89.3 631.9148,-95.3 631.9148,-101.3 631.9148,-101.3 631.9148,-126.9 631.9148,-126.9 631.9148,-132.9 625.9148,-138.9 619.9148,-138.9 619.9148,-138.9 538.0852,-138.9 538.0852,-138.9 532.0852,-138.9 526.0852,-132.9 526.0852,-126.9 526.0852,-126.9 526.0852,-101.3 526.0852,-101.3 526.0852,-95.3 532.0852,-89.3 538.0852,-89.3"/>
<text text-anchor="middle" x="579" y="-122.3" font-family="Times,serif" font-size="14.00" fill="#000000">CLR</text>
<polyline fill="none" stroke="#000000" points="526.0852,-114.1 631.9148,-114.1 "/>
<text text-anchor="middle" x="579" y="-97.5" font-family="Times,serif" font-size="14.00" fill="#000000">SET 25 TEC 15</text>
</g>
<!-- SWF&#45;&gt;CLR -->
<g id="edge84" class="edge">
<title>SWF&#45;&gt;CLR</title>
<path fill="none" stroke="#000000" d="M718.4054,-191.3256C701.9601,-181.0164 681.0324,-168.1896 662,-157.4 651.1132,-151.2282 639.2665,-144.8518 628.0223,-138.9522"/>
<polygon fill="#000000" stroke="#000000" points="716.7134,-194.3962 727.0401,-196.765 720.4445,-188.4734 716.7134,-194.3962"/>
<text text-anchor="middle" x="713.5" y="-161.6" font-family="Times,serif" font-size="14.00" fill="#000000">30 x 12h</text>
</g>
<!-- SAL -->
<g id="node39" class="node">
<title>SAL</title>
<ellipse fill="none" stroke="#000000" cx="1408" cy="-421.6" rx="29.0529" ry="18"/>
<text text-anchor="middle" x="1408" y="-417.4" font-family="Times,serif" font-size="14.00" fill="#000000">SAL</text>
</g>
<!-- SE&#45;&gt;SAL -->
<g id="edge43" class="edge">
<title>SE&#45;&gt;SAL</title>
<path fill="none" stroke="#000000" d="M1444.5628,-502.671C1435.1301,-481.7559 1423.4627,-455.8855 1415.8818,-439.0763"/>
<polygon fill="#000000" stroke="#000000" points="1441.415,-504.2047 1448.7168,-511.8816 1447.796,-501.3269 1441.415,-504.2047"/>
</g>
<!-- LD -->
<g id="node40" class="node">
<title>LD</title>
<ellipse fill="none" stroke="#000000" cx="1482" cy="-421.6" rx="27" ry="18"/>
<text text-anchor="middle" x="1482" y="-417.4" font-family="Times,serif" font-size="14.00" fill="#000000">LD</text>
</g>
<!-- SE&#45;&gt;LD -->
<g id="edge44" class="edge">
<title>SE&#45;&gt;LD</title>
<path fill="none" stroke="#000000" d="M1466.6692,-501.9471C1470.5795,-481.4539 1475.3586,-456.4071 1478.5307,-439.7822"/>
<polygon fill="#000000" stroke="#000000" points="1463.21,-501.4028 1464.7737,-511.8816 1470.086,-502.7148 1463.21,-501.4028"/>
</g>
<!-- SA -->
<g id="node41" class="node">
<title>SA</title>
<ellipse fill="none" stroke="#000000" cx="1554" cy="-421.6" rx="27" ry="18"/>
<text text-anchor="middle" x="1554" y="-417.4" font-family="Times,serif" font-size="14.00" fill="#000000">SA</text>
</g>
<!-- SE&#45;&gt;SA -->
<g id="edge45" class="edge">
<title>SE&#45;&gt;SA</title>
<path fill="none" stroke="#000000" d="M1486.9192,-503.881C1504.6063,-482.1861 1526.9661,-454.7596 1540.8772,-437.6964"/>
<polygon fill="#000000" stroke="#000000" points="1484.0027,-501.9194 1480.3966,-511.8816 1489.4282,-506.3426 1484.0027,-501.9194"/>
</g>
<!-- SE&#45;&gt;ROM -->
<g id="edge46" class="edge">
<title>SE&#45;&gt;ROM</title>
<path fill="none" stroke="#000000" d="M1419.3298,-518.5468C1403.7033,-511.1808 1385.8265,-502.367 1370,-493.6 1336.623,-475.1108 1299.5327,-450.9769 1276.9891,-435.8822"/>
<polygon fill="#000000" stroke="#000000" points="1418.1882,-521.8763 1428.7302,-522.9326 1421.1478,-515.5327 1418.1882,-521.8763"/>
</g>
<!-- BAI -->
<g id="node56" class="node">
<title>BAI</title>
<ellipse fill="none" stroke="#000000" cx="1627" cy="-421.6" rx="27.8267" ry="18"/>
<text text-anchor="middle" x="1627" y="-417.4" font-family="Times,serif" font-size="14.00" fill="#000000">BAI</text>
</g>
<!-- SE&#45;&gt;BAI -->
<g id="edge69" class="edge">
<title>SE&#45;&gt;BAI</title>
<path fill="none" stroke="#000000" d="M1499.6598,-509.672C1507.4033,-504.3472 1515.4585,-498.8021 1523,-493.6 1552.6458,-473.1503 1586.9896,-449.3529 1607.8454,-434.8897"/>
<polygon fill="#000000" stroke="#000000" points="1497.6768,-506.7878 1491.4186,-515.3368 1501.6421,-512.5564 1497.6768,-506.7878"/>
</g>
<!-- MLI -->
<g id="node57" class="node">
<title>MLI</title>
<ellipse fill="none" stroke="#000000" cx="1701" cy="-421.6" rx="28.9715" ry="18"/>
<text text-anchor="middle" x="1701" y="-417.4" font-family="Times,serif" font-size="14.00" fill="#000000">MLI</text>
</g>
<!-- SE&#45;&gt;MLI -->
<g id="edge70" class="edge">
<title>SE&#45;&gt;MLI</title>
<path fill="none" stroke="#000000" d="M1500.9621,-520.3514C1519.7144,-512.5613 1542.1358,-502.9442 1562,-493.6 1604.0526,-473.8182 1651.9449,-448.3385 1679.1123,-433.5993"/>
<polygon fill="#000000" stroke="#000000" points="1499.4314,-517.1967 1491.5234,-524.2475 1502.1023,-523.6672 1499.4314,-517.1967"/>
</g>
<!-- NF -->
<g id="node58" class="node">
<title>NF</title>
<ellipse fill="none" stroke="#000000" cx="1334" cy="-421.6" rx="27" ry="18"/>
<text text-anchor="middle" x="1334" y="-417.4" font-family="Times,serif" font-size="14.00" fill="#000000">NF</text>
</g>
<!-- SE&#45;&gt;NF -->
<g id="edge72" class="edge">
<title>SE&#45;&gt;NF</title>
<path fill="none" stroke="#000000" d="M1424.9815,-504.8553C1400.488,-482.4418 1368.9129,-453.5481 1350.1301,-436.3603"/>
<polygon fill="#000000" stroke="#000000" points="1422.9197,-507.7128 1432.6599,-511.8816 1427.6453,-502.5486 1422.9197,-507.7128"/>
</g>
<!-- SD -->
<g id="node43" class="node">
<title>SD</title>
<path fill="#add8e6" stroke="#000000" d="M1510.0291,-281.5C1510.0291,-281.5 1545.9709,-281.5 1545.9709,-281.5 1551.9709,-281.5 1557.9709,-287.5 1557.9709,-293.5 1557.9709,-293.5 1557.9709,-319.1 1557.9709,-319.1 1557.9709,-325.1 1551.9709,-331.1 1545.9709,-331.1 1545.9709,-331.1 1510.0291,-331.1 1510.0291,-331.1 1504.0291,-331.1 1498.0291,-325.1 1498.0291,-319.1 1498.0291,-319.1 1498.0291,-293.5 1498.0291,-293.5 1498.0291,-287.5 1504.0291,-281.5 1510.0291,-281.5"/>
<text text-anchor="middle" x="1528" y="-314.5" font-family="Times,serif" font-size="14.00" fill="#000000">SD</text>
<polyline fill="none" stroke="#000000" points="1498.0291,-306.3 1557.9709,-306.3 "/>
<text text-anchor="middle" x="1528" y="-289.7" font-family="Times,serif" font-size="14.00" fill="#000000">TEC 50</text>
</g>
<!-- SAL&#45;&gt;SD -->
<g id="edge47" class="edge">
<title>SAL&#45;&gt;SD</title>
<path fill="none" stroke="#000000" d="M1404.165,-393.0591C1403.7684,-378.6872 1405.8214,-361.7778 1415.1074,-349.6 1416.4479,-347.8421 1464.9323,-329.6394 1497.9194,-317.4015"/>
<polygon fill="#000000" stroke="#000000" points="1400.6998,-393.6933 1404.8667,-403.4343 1407.6839,-393.2209 1400.6998,-393.6933"/>
<text text-anchor="middle" x="1445.9463" y="-363.4" font-family="Times,serif" font-size="14.00" fill="#000000">1 @ 1d12h</text>
</g>
<!-- LD&#45;&gt;SD -->
<g id="edge48" class="edge">
<title>LD&#45;&gt;SD</title>
<path fill="none" stroke="#000000" d="M1480.7627,-393.0638C1481.1673,-379.4008 1483.1517,-363.1135 1489.1074,-349.6 1491.96,-343.1275 1496.1605,-336.9572 1500.7585,-331.4078"/>
<polygon fill="#000000" stroke="#000000" points="1477.262,-393.3448 1480.7312,-403.3555 1484.2619,-393.3663 1477.262,-393.3448"/>
<text text-anchor="middle" x="1512.9463" y="-363.4" font-family="Times,serif" font-size="14.00" fill="#000000">1 @ 12h</text>
</g>
<!-- SA&#45;&gt;SD -->
<g id="edge49" class="edge">
<title>SA&#45;&gt;SD</title>
<path fill="none" stroke="#000000" d="M1549.6683,-393.4058C1547.4236,-380.0533 1544.4327,-363.928 1541,-349.6 1539.5736,-343.6464 1537.8096,-337.301 1536.0461,-331.3553"/>
<polygon fill="#000000" stroke="#000000" points="1546.2394,-394.1258 1551.3027,-403.4325 1553.1482,-392.9996 1546.2394,-394.1258"/>
<text text-anchor="middle" x="1568.4463" y="-363.4" font-family="Times,serif" font-size="14.00" fill="#000000">1 @ 1d</text>
</g>
<!-- ROM&#45;&gt;SCA -->
<g id="edge50" class="edge">
<title>ROM&#45;&gt;SCA</title>
<path fill="none" stroke="#000000" d="M1215.9398,-411.6029C1203.231,-408.6965 1189.0823,-405.7338 1176,-403.6 1098.4898,-390.9579 1077.333,-400.4574 1000.2168,-385.6 908.7897,-367.9854 803.8768,-334.1051 753.3383,-316.8938"/>
<polygon fill="#000000" stroke="#000000" points="1215.241,-415.0339 1225.7755,-413.9049 1216.8362,-408.2181 1215.241,-415.0339"/>
<text text-anchor="middle" x="1036.3916" y="-363.4" font-family="Times,serif" font-size="14.00" fill="#000000">10 @ 7h10m</text>
</g>
<!-- SCA&#45;&gt;SWF -->
<g id="edge96" class="edge">
<title>SCA&#45;&gt;SWF</title>
<path fill="none" stroke="#000000" d="M732.0583,-271.4798C735.8851,-256.7698 740.1785,-240.2657 743.3449,-228.0944"/>
<polygon fill="#000000" stroke="#000000" points="728.6337,-270.7426 729.5032,-281.3017 735.4082,-272.505 728.6337,-270.7426"/>
</g>
<!-- SCA&#45;&gt;PSS -->
<g id="edge51" class="edge">
<title>SCA&#45;&gt;PSS</title>
<path fill="none" stroke="#000000" d="M682.6177,-302.2751C621.4011,-295.8572 501.5874,-282.0575 401,-263 331.7036,-249.871 251.2836,-228.4351 211.291,-217.3467"/>
<polygon fill="#000000" stroke="#000000" points="682.331,-305.764 692.6387,-303.3144 683.0532,-298.8014 682.331,-305.764"/>
</g>
<!-- BGC -->
<g id="node46" class="node">
<title>BGC</title>
<ellipse fill="none" stroke="#000000" cx="984" cy="-210.2" rx="30.777" ry="18"/>
<text text-anchor="middle" x="984" y="-206" font-family="Times,serif" font-size="14.00" fill="#000000">BGC</text>
</g>
<!-- SCA&#45;&gt;BGC -->
<g id="edge52" class="edge">
<title>SCA&#45;&gt;BGC</title>
<path fill="none" stroke="#000000" d="M763.2363,-297.9673C796.0691,-290.5646 843.3427,-278.5185 883,-263 911.3756,-251.8962 942.1614,-235.0445 962.1892,-223.3786"/>
<polygon fill="#000000" stroke="#000000" points="762.1202,-294.6295 753.1117,-300.2061 763.6316,-301.4644 762.1202,-294.6295"/>
</g>
<!-- SI -->
<g id="node47" class="node">
<title>SI</title>
<ellipse fill="none" stroke="#000000" cx="411" cy="-18" rx="27" ry="18"/>
<text text-anchor="middle" x="411" y="-13.8" font-family="Times,serif" font-size="14.00" fill="#000000">SI</text>
</g>
<!-- SCA&#45;&gt;SI -->
<g id="edge53" class="edge">
<title>SCA&#45;&gt;SI</title>
<path fill="none" stroke="#000000" d="M682.8727,-298.0313C621.632,-284.6702 508.895,-256.9163 480,-228.2 425.5134,-174.0504 414.0478,-76.2136 411.6389,-36.0012"/>
<polygon fill="#000000" stroke="#000000" points="682.4452,-301.5194 692.958,-300.2031 683.9189,-294.6763 682.4452,-301.5194"/>
</g>
<!-- TRN -->
<g id="node67" class="node">
<title>TRN</title>
<ellipse fill="none" stroke="#000000" cx="519" cy="-210.2" rx="30.1958" ry="18"/>
<text text-anchor="middle" x="519" y="-206" font-family="Times,serif" font-size="14.00" fill="#000000">TRN</text>
</g>
<!-- SCA&#45;&gt;TRN -->
<g id="edge92" class="edge">
<title>SCA&#45;&gt;TRN</title>
<path fill="none" stroke="#000000" d="M683.5927,-287.7361C641.8891,-268.0904 577.427,-237.7237 542.8507,-221.4356"/>
<polygon fill="#000000" stroke="#000000" points="682.361,-291.0247 692.8991,-292.1201 685.3442,-284.6922 682.361,-291.0247"/>
</g>
<!-- H -->
<g id="node68" class="node">
<title>H</title>
<ellipse fill="none" stroke="#000000" cx="1136" cy="-210.2" rx="27" ry="18"/>
<text text-anchor="middle" x="1136" y="-206" font-family="Times,serif" font-size="14.00" fill="#000000">H</text>
</g>
<!-- SCA&#45;&gt;H -->
<g id="edge93" class="edge">
<title>SCA&#45;&gt;H</title>
<path fill="none" stroke="#000000" d="M763.1687,-301.4634C833.0904,-292.2826 981.0716,-269.4628 1100,-228.2 1105.0173,-226.4592 1110.2284,-224.1656 1115.076,-221.8008"/>
<polygon fill="#000000" stroke="#000000" points="762.5025,-298.0202 753.032,-302.7701 763.3975,-304.9628 762.5025,-298.0202"/>
</g>
<!-- N -->
<g id="node69" class="node">
<title>N</title>
<ellipse fill="#ffff00" stroke="#000000" cx="672" cy="-210.2" rx="27" ry="18"/>
<text text-anchor="middle" x="672" y="-206" font-family="Times,serif" font-size="14.00" fill="#000000">N</text>
</g>
<!-- SCA&#45;&gt;N -->
<g id="edge94" class="edge">
<title>SCA&#45;&gt;N</title>
<path fill="none" stroke="#000000" d="M704.8716,-272.1405C696.7863,-256.9051 687.6192,-239.6314 681.0237,-227.2035"/>
<polygon fill="#000000" stroke="#000000" points="701.9541,-274.1093 709.7335,-281.3017 708.1373,-270.8278 701.9541,-274.1093"/>
</g>
<!-- BCO -->
<g id="node70" class="node">
<title>BCO</title>
<ellipse fill="none" stroke="#000000" cx="904" cy="-210.2" rx="30.777" ry="18"/>
<text text-anchor="middle" x="904" y="-206" font-family="Times,serif" font-size="14.00" fill="#000000">BCO</text>
</g>
<!-- SCA&#45;&gt;BCO -->
<g id="edge97" class="edge">
<title>SCA&#45;&gt;BCO</title>
<path fill="none" stroke="#000000" d="M763.2318,-299.6083C791.7536,-293.4665 829.9607,-282.3012 859,-263 873.043,-253.6663 885.1847,-238.7503 893.3048,-227.1491"/>
<polygon fill="#000000" stroke="#000000" points="762.2985,-296.2264 753.1969,-301.6495 763.6939,-303.0859 762.2985,-296.2264"/>
</g>
<!-- PE -->
<g id="node71" class="node">
<title>PE</title>
<ellipse fill="none" stroke="#000000" cx="817" cy="-18" rx="27" ry="18"/>
<text text-anchor="middle" x="817" y="-13.8" font-family="Times,serif" font-size="14.00" fill="#000000">PE</text>
</g>
<!-- SCA&#45;&gt;PE -->
<g id="edge98" class="edge">
<title>SCA&#45;&gt;PE</title>
<path fill="none" stroke="#000000" d="M756.8164,-274.0172C768.5565,-260.9151 780.6173,-244.929 788,-228.2 817.2261,-161.9741 818.6717,-73.5705 817.7649,-36.0541"/>
<polygon fill="#000000" stroke="#000000" points="754.2177,-271.6721 749.9788,-281.3821 759.3477,-276.4349 754.2177,-271.6721"/>
</g>
<!-- BGO -->
<g id="node72" class="node">
<title>BGO</title>
<ellipse fill="none" stroke="#000000" cx="903" cy="-18" rx="31.339" ry="18"/>
<text text-anchor="middle" x="903" y="-13.8" font-family="Times,serif" font-size="14.00" fill="#000000">BGO</text>
</g>
<!-- SCA&#45;&gt;BGO -->
<g id="edge99" class="edge">
<title>SCA&#45;&gt;BGO</title>
<path fill="none" stroke="#000000" d="M761.4544,-284.0448C770.4045,-277.8823 779.4994,-270.7374 787,-263 821.3124,-227.6045 877.1516,-86.062 896.3049,-35.8101"/>
<polygon fill="#000000" stroke="#000000" points="759.3941,-281.211 752.9744,-289.6394 763.249,-287.0539 759.3941,-281.211"/>
</g>
<!-- CAP -->
<g id="node78" class="node">
<title>CAP</title>
<ellipse fill="none" stroke="#000000" cx="597" cy="-210.2" rx="29.6339" ry="18"/>
<text text-anchor="middle" x="597" y="-206" font-family="Times,serif" font-size="14.00" fill="#000000">CAP</text>
</g>
<!-- SCA&#45;&gt;CAP -->
<g id="edge111" class="edge">
<title>SCA&#45;&gt;CAP</title>
<path fill="none" stroke="#000000" d="M684.6474,-277.0485C661.756,-259.5893 633.7105,-238.199 615.6076,-224.392"/>
<polygon fill="#000000" stroke="#000000" points="682.746,-280.0001 692.8199,-283.2817 686.9911,-274.4342 682.746,-280.0001"/>
</g>
<!-- PSS&#45;&gt;PPF -->
<g id="edge116" class="edge">
<title>PSS&#45;&gt;PPF</title>
<path fill="none" stroke="#000000" d="M161.1996,-231.5025C157.4873,-235.9528 154.2061,-240.9139 152.1094,-246.2 147.7572,-257.1725 147.8104,-270.1681 149.2278,-281.2631"/>
<polygon fill="#000000" stroke="#000000" points="163.8777,-233.7638 168.1843,-224.0837 158.7811,-228.9653 163.8777,-233.7638"/>
<text text-anchor="middle" x="182.9453" y="-250.4" font-family="Times,serif" font-size="14.00" fill="#000000">1 x 4h48m</text>
</g>
<!-- BGC&#45;&gt;FS -->
<g id="edge120" class="edge">
<title>BGC&#45;&gt;FS</title>
<path fill="none" stroke="#000000" d="M982.2311,-181.8679C981.3817,-168.264 980.3731,-152.109 979.5537,-138.9848"/>
<polygon fill="#000000" stroke="#000000" points="978.755,-182.3619 982.8714,-192.1243 985.7414,-181.9256 978.755,-182.3619"/>
<text text-anchor="middle" x="1014.4453" y="-161.6" font-family="Times,serif" font-size="14.00" fill="#000000">10 x 7h12m</text>
</g>
<!-- NCS -->
<g id="node49" class="node">
<title>NCS</title>
<ellipse fill="none" stroke="#000000" cx="1355" cy="-210.2" rx="29.6339" ry="18"/>
<text text-anchor="middle" x="1355" y="-206" font-family="Times,serif" font-size="14.00" fill="#000000">NCS</text>
</g>
<!-- ECA&#45;&gt;NCS -->
<g id="edge55" class="edge">
<title>ECA&#45;&gt;NCS</title>
<path fill="none" stroke="#000000" d="M1355,-271.1258C1355,-256.6265 1355,-240.4383 1355,-228.3948"/>
<polygon fill="#000000" stroke="#000000" points="1351.5001,-271.3017 1355,-281.3017 1358.5001,-271.3018 1351.5001,-271.3017"/>
</g>
<!-- LI -->
<g id="node50" class="node">
<title>LI</title>
<ellipse fill="#ffff00" stroke="#000000" cx="1430" cy="-210.2" rx="27" ry="18"/>
<text text-anchor="middle" x="1430" y="-206" font-family="Times,serif" font-size="14.00" fill="#000000">LI</text>
</g>
<!-- ECA&#45;&gt;LI -->
<g id="edge56" class="edge">
<title>ECA&#45;&gt;LI</title>
<path fill="none" stroke="#000000" d="M1380.7782,-273.2696C1393.1585,-257.4062 1407.434,-239.1146 1417.4123,-226.329"/>
<polygon fill="#000000" stroke="#000000" points="1377.9029,-271.265 1374.5096,-281.3017 1383.4213,-275.5717 1377.9029,-271.265"/>
</g>
<!-- NCS&#45;&gt;CLR -->
<g id="edge115" class="edge">
<title>NCS&#45;&gt;CLR</title>
<path fill="none" stroke="#000000" d="M1322.4805,-194.4707C1320.3096,-193.645 1318.1368,-192.878 1316,-192.2 1234.5878,-166.3683 1211.6861,-168.512 1127,-157.4 1032.2574,-144.9684 750.4258,-125.4911 632.1681,-117.5974"/>
<polygon fill="#000000" stroke="#000000" points="1321.2904,-197.7663 1331.8678,-198.3732 1323.9775,-191.3026 1321.2904,-197.7663"/>
<text text-anchor="middle" x="1291.3916" y="-161.6" font-family="Times,serif" font-size="14.00" fill="#000000">100 @ 14h24m</text>
</g>
<!-- NN&#45;&gt;SE -->
<g id="edge68" class="edge">
<title>NN&#45;&gt;SE</title>
<path fill="none" stroke="#000000" d="M1310.9107,-623.8581C1312.3138,-609.1891 1316.4284,-591.9437 1327.1074,-580.2 1340.8614,-565.0748 1394.0828,-551.1016 1428.8578,-543.3166"/>
<polygon fill="#000000" stroke="#000000" points="1307.4093,-623.7793 1310.3132,-633.9684 1314.3971,-624.1924 1307.4093,-623.7793"/>
<text text-anchor="middle" x="1357.9463" y="-594" font-family="Times,serif" font-size="14.00" fill="#000000">1 @ 1d12h</text>
</g>
<!-- DD&#45;&gt;SE -->
<g id="edge71" class="edge">
<title>DD&#45;&gt;SE</title>
<path fill="none" stroke="#000000" d="M1390.3981,-624.5362C1394.9739,-610.4714 1401.7791,-593.5727 1411.1074,-580.2 1416.0375,-573.1324 1422.3495,-566.4449 1428.7884,-560.5348"/>
<polygon fill="#000000" stroke="#000000" points="1387.0246,-623.5998 1387.456,-634.1858 1393.7203,-625.6412 1387.0246,-623.5998"/>
<text text-anchor="middle" x="1431.4463" y="-594" font-family="Times,serif" font-size="14.00" fill="#000000">1 @ 2d</text>
</g>
<!-- MCA&#45;&gt;PSM -->
<g id="edge89" class="edge">
<title>MCA&#45;&gt;PSM</title>
<path fill="none" stroke="#000000" d="M403.2451,-506.2305C397.6385,-502.1542 392.1034,-497.8945 387,-493.6 289.127,-411.2392 298.5974,-353.1916 193,-281 174.1913,-268.1414 165.8387,-272.212 145,-263 116.6965,-250.4881 85.1723,-233.9225 64.5447,-222.708"/>
<polygon fill="#000000" stroke="#000000" points="401.2851,-509.1312 411.4687,-512.0543 405.3306,-503.4186 401.2851,-509.1312"/>
</g>
<!-- MCA&#45;&gt;DCS -->
<g id="edge65" class="edge">
<title>MCA&#45;&gt;DCS</title>
<path fill="none" stroke="#000000" d="M388.0377,-526.7117C362.127,-520.2966 332.889,-509.9971 310,-493.6 304.6101,-489.7388 282.9892,-458.5641 269.3809,-438.5215"/>
<polygon fill="#000000" stroke="#000000" points="387.2515,-530.1222 397.7851,-528.9847 388.8413,-523.3051 387.2515,-530.1222"/>
</g>
<!-- MCA&#45;&gt;SFK -->
<g id="edge90" class="edge">
<title>MCA&#45;&gt;SFK</title>
<path fill="none" stroke="#000000" d="M513.4201,-510.2059C525.3115,-504.8713 537.5993,-499.186 549,-493.6 594.3585,-471.3758 604.7643,-463.9826 649,-439.6 677.5814,-423.846 681.9527,-413.6574 713,-403.6 779.8166,-381.9556 806.0771,-414.6999 870,-385.6 951.9768,-348.2813 1022.7874,-262.6062 1050.0505,-226.6065"/>
<polygon fill="#000000" stroke="#000000" points="511.7066,-507.1374 503.993,-514.4003 514.5523,-513.5329 511.7066,-507.1374"/>
</g>
<!-- RG -->
<g id="node54" class="node">
<title>RG</title>
<ellipse fill="none" stroke="#000000" cx="371" cy="-421.6" rx="27" ry="18"/>
<text text-anchor="middle" x="371" y="-417.4" font-family="Times,serif" font-size="14.00" fill="#000000">RG</text>
</g>
<!-- MCA&#45;&gt;RG -->
<g id="edge64" class="edge">
<title>MCA&#45;&gt;RG</title>
<path fill="none" stroke="#000000" d="M420.4094,-504.4073C417.4603,-500.846 414.6024,-497.2038 412,-493.6 399.1996,-475.874 387.1456,-453.8148 379.4642,-438.8172"/>
<polygon fill="#000000" stroke="#000000" points="417.7796,-506.7173 426.9472,-512.0282 423.0924,-502.1594 417.7796,-506.7173"/>
</g>
<!-- LDI -->
<g id="node55" class="node">
<title>LDI</title>
<ellipse fill="none" stroke="#000000" cx="424" cy="-367.6" rx="27.2447" ry="18"/>
<text text-anchor="middle" x="424" y="-363.4" font-family="Times,serif" font-size="14.00" fill="#000000">LDI</text>
</g>
<!-- MCA&#45;&gt;LDI -->
<g id="edge66" class="edge">
<title>MCA&#45;&gt;LDI</title>
<path fill="none" stroke="#000000" d="M445.4407,-502.0411C439.817,-466.7786 431.3411,-413.6317 426.9191,-385.9041"/>
<polygon fill="#000000" stroke="#000000" points="441.9848,-502.5952 447.0161,-511.9192 448.8974,-501.4928 441.9848,-502.5952"/>
</g>
<!-- RAM -->
<g id="node65" class="node">
<title>RAM</title>
<ellipse fill="none" stroke="#000000" cx="527" cy="-421.6" rx="33.0643" ry="18"/>
<text text-anchor="middle" x="527" y="-417.4" font-family="Times,serif" font-size="14.00" fill="#000000">RAM</text>
</g>
<!-- MCA&#45;&gt;RAM -->
<g id="edge87" class="edge">
<title>MCA&#45;&gt;RAM</title>
<path fill="none" stroke="#000000" d="M450.8317,-501.6601C452.298,-486.934 456.1098,-470.3271 465,-457.6 473.2681,-445.7635 486.7733,-437.2622 499.0717,-431.5039"/>
<polygon fill="#000000" stroke="#000000" points="447.3175,-501.756 450.1394,-511.9681 454.3017,-502.2251 447.3175,-501.756"/>
</g>
<!-- MPC -->
<g id="node66" class="node">
<title>MPC</title>
<ellipse fill="none" stroke="#000000" cx="609" cy="-421.6" rx="31.3583" ry="18"/>
<text text-anchor="middle" x="609" y="-417.4" font-family="Times,serif" font-size="14.00" fill="#000000">MPC</text>
</g>
<!-- MCA&#45;&gt;MPC -->
<g id="edge88" class="edge">
<title>MCA&#45;&gt;MPC</title>
<path fill="none" stroke="#000000" d="M493.3724,-505.9789C524.4854,-483.2742 565.333,-453.4659 589.2215,-436.0333"/>
<polygon fill="#000000" stroke="#000000" points="491.2983,-503.1595 485.2836,-511.8816 495.4247,-508.814 491.2983,-503.1595"/>
</g>
<!-- GF -->
<g id="node61" class="node">
<title>GF</title>
<path fill="#00ff00" stroke="#000000" d="M312.8061,-281.5C312.8061,-281.5 347.1939,-281.5 347.1939,-281.5 353.1939,-281.5 359.1939,-287.5 359.1939,-293.5 359.1939,-293.5 359.1939,-319.1 359.1939,-319.1 359.1939,-325.1 353.1939,-331.1 347.1939,-331.1 347.1939,-331.1 312.8061,-331.1 312.8061,-331.1 306.8061,-331.1 300.8061,-325.1 300.8061,-319.1 300.8061,-319.1 300.8061,-293.5 300.8061,-293.5 300.8061,-287.5 306.8061,-281.5 312.8061,-281.5"/>
<text text-anchor="middle" x="330" y="-314.5" font-family="Times,serif" font-size="14.00" fill="#000000">GF</text>
<polyline fill="none" stroke="#000000" points="300.8061,-306.3 359.1939,-306.3 "/>
<text text-anchor="middle" x="330" y="-289.7" font-family="Times,serif" font-size="14.00" fill="#000000">SET 80</text>
</g>
<!-- RG&#45;&gt;GF -->
<g id="edge79" class="edge">
<title>RG&#45;&gt;GF</title>
<path fill="none" stroke="#000000" d="M341.047,-403.852C335.0163,-398.7701 329.4951,-392.6591 326.1074,-385.6 318.0563,-368.8236 319.5791,-347.6884 322.8172,-331.4569"/>
<polygon fill="#000000" stroke="#000000" points="339.3326,-406.9409 349.4341,-410.1362 343.53,-401.3389 339.3326,-406.9409"/>
<text text-anchor="middle" x="357.9463" y="-363.4" font-family="Times,serif" font-size="14.00" fill="#000000">10 @ 1d7h</text>
</g>
<!-- LDI&#45;&gt;CLR -->
<g id="edge74" class="edge">
<title>LDI&#45;&gt;CLR</title>
<path fill="none" stroke="#000000" d="M427.7279,-339.6854C433.7109,-303.0756 448.1851,-238.1147 480,-192.2 494.7128,-170.9667 516.8961,-152.7145 536.5371,-139.2064"/>
<polygon fill="#000000" stroke="#000000" points="424.2558,-339.2369 426.1958,-349.6526 431.1746,-340.3004 424.2558,-339.2369"/>
<text text-anchor="middle" x="484.8916" y="-250.4" font-family="Times,serif" font-size="14.00" fill="#000000">6 @ 8h24m</text>
</g>
<!-- BAI&#45;&gt;SD -->
<g id="edge73" class="edge">
<title>BAI&#45;&gt;SD</title>
<path fill="none" stroke="#000000" d="M1618.1801,-394.3708C1612.5704,-379.9604 1604.2296,-362.6078 1593,-349.6 1583.3419,-338.4125 1570.1244,-328.902 1558.1295,-321.6687"/>
<polygon fill="#000000" stroke="#000000" points="1614.9034,-395.6015 1621.6292,-403.7877 1621.4763,-393.194 1614.9034,-395.6015"/>
<text text-anchor="middle" x="1634.4463" y="-363.4" font-family="Times,serif" font-size="14.00" fill="#000000">1 @ 2d</text>
</g>
<!-- MLI&#45;&gt;SD -->
<g id="edge77" class="edge">
<title>MLI&#45;&gt;SD</title>
<path fill="none" stroke="#000000" d="M1690.7888,-394.335C1683.8867,-379.2526 1673.3883,-361.2585 1659,-349.6 1629.6882,-325.8493 1586.8584,-314.9335 1558.239,-310.0496"/>
<polygon fill="#000000" stroke="#000000" points="1687.6574,-395.9138 1694.8099,-403.7299 1694.0927,-393.1594 1687.6574,-395.9138"/>
<text text-anchor="middle" x="1706.4463" y="-363.4" font-family="Times,serif" font-size="14.00" fill="#000000">1 @ 3d</text>
</g>
<!-- NF&#45;&gt;SD -->
<g id="edge78" class="edge">
<title>NF&#45;&gt;SD</title>
<path fill="none" stroke="#000000" d="M1327.8554,-393.6026C1326.3178,-378.7428 1327.5098,-361.2066 1338.1074,-349.6 1356.4216,-329.5421 1432.6807,-338.3099 1459,-331.6 1471.9818,-328.2904 1485.9222,-323.4395 1497.8509,-318.8685"/>
<polygon fill="#000000" stroke="#000000" points="1324.4414,-394.4438 1329.3619,-403.8267 1331.3667,-393.4233 1324.4414,-394.4438"/>
<text text-anchor="middle" x="1368.9463" y="-363.4" font-family="Times,serif" font-size="14.00" fill="#000000">1 @ 1d12h</text>
</g>
<!-- CLR&#45;&gt;FE -->
<g id="edge118" class="edge">
<title>CLR&#45;&gt;FE</title>
<path fill="none" stroke="#000000" d="M554.253,-81.0696C542.3678,-65.2062 528.6633,-46.9146 519.0842,-34.129"/>
<polygon fill="#000000" stroke="#000000" points="551.4737,-83.1973 560.2708,-89.1017 557.0758,-79.0001 551.4737,-83.1973"/>
</g>
<!-- CLR&#45;&gt;SI -->
<g id="edge76" class="edge">
<title>CLR&#45;&gt;SI</title>
<path fill="none" stroke="#000000" d="M526.4478,-84.0389C494.326,-65.6645 455.0337,-43.1883 431.5633,-29.7627"/>
<polygon fill="#000000" stroke="#000000" points="524.8805,-87.1745 535.2985,-89.1017 528.3562,-81.0983 524.8805,-87.1745"/>
</g>
<!-- GAL -->
<g id="node60" class="node">
<title>GAL</title>
<ellipse fill="none" stroke="#000000" cx="655" cy="-18" rx="30.7577" ry="18"/>
<text text-anchor="middle" x="655" y="-13.8" font-family="Times,serif" font-size="14.00" fill="#000000">GAL</text>
</g>
<!-- CLR&#45;&gt;GAL -->
<g id="edge75" class="edge">
<title>CLR&#45;&gt;GAL</title>
<path fill="none" stroke="#000000" d="M605.0798,-81.1227C617.5406,-65.3664 631.9041,-47.2042 642.0154,-34.4187"/>
<polygon fill="#000000" stroke="#000000" points="602.2275,-79.087 598.7697,-89.1017 607.7181,-83.4292 602.2275,-79.087"/>
</g>
<!-- AL -->
<g id="node64" class="node">
<title>AL</title>
<ellipse fill="none" stroke="#000000" cx="579" cy="-18" rx="27" ry="18"/>
<text text-anchor="middle" x="579" y="-13.8" font-family="Times,serif" font-size="14.00" fill="#000000">AL</text>
</g>
<!-- CLR&#45;&gt;AL -->
<g id="edge85" class="edge">
<title>CLR&#45;&gt;AL</title>
<path fill="none" stroke="#000000" d="M579,-78.9258C579,-64.4265 579,-48.2383 579,-36.1948"/>
<polygon fill="#000000" stroke="#000000" points="575.5001,-79.1017 579,-89.1017 582.5001,-79.1018 575.5001,-79.1017"/>
</g>
<!-- GF&#45;&gt;PG -->
<g id="edge81" class="edge">
<title>GF&#45;&gt;PG</title>
<path fill="none" stroke="#000000" d="M323.5906,-271.3603C321.5829,-262.9818 319.0687,-254.1595 316,-246.2 313.4794,-239.6623 309.9578,-232.8544 306.5709,-226.9412"/>
<polygon fill="#000000" stroke="#000000" points="320.2069,-272.2687 325.7916,-281.2722 327.0405,-270.7512 320.2069,-272.2687"/>
</g>
<!-- GL -->
<g id="node62" class="node">
<title>GL</title>
<ellipse fill="none" stroke="#000000" cx="368" cy="-210.2" rx="27" ry="18"/>
<text text-anchor="middle" x="368" y="-206" font-family="Times,serif" font-size="14.00" fill="#000000">GL</text>
</g>
<!-- GF&#45;&gt;GL -->
<g id="edge80" class="edge">
<title>GF&#45;&gt;GL</title>
<path fill="none" stroke="#000000" d="M343.6267,-271.8387C349.5266,-256.9183 356.1796,-240.0932 361.0423,-227.7956"/>
<polygon fill="#000000" stroke="#000000" points="340.3073,-270.7153 339.8849,-281.3017 346.8169,-273.2894 340.3073,-270.7153"/>
</g>
<!-- FS&#45;&gt;FE -->
<g id="edge83" class="edge">
<title>FS&#45;&gt;FE</title>
<path fill="none" stroke="#000000" d="M938.5293,-110.8182C861.0202,-103.5506 684.1795,-82.8869 543,-36 537.96,-34.3262 532.7397,-32.0598 527.8903,-29.7001"/>
<polygon fill="#000000" stroke="#000000" points="938.5158,-114.3314 948.7929,-111.7561 939.1529,-107.3605 938.5158,-114.3314"/>
</g>
<!-- FS&#45;&gt;AU -->
<g id="edge124" class="edge">
<title>FS&#45;&gt;AU</title>
<path fill="none" stroke="#000000" d="M1017.0913,-104.6611C1098.2342,-85.0686 1283.0048,-40.4544 1350.6125,-24.13"/>
<polygon fill="#000000" stroke="#000000" points="1016.165,-101.2841 1007.2659,-107.0335 1017.8081,-108.0886 1016.165,-101.2841"/>
</g>
<!-- FS&#45;&gt;PE -->
<g id="edge122" class="edge">
<title>FS&#45;&gt;PE</title>
<path fill="none" stroke="#000000" d="M939.6773,-96.3052C924.5554,-88.8981 907.1986,-79.9089 892,-70.8 871.7851,-58.6848 849.8766,-42.9305 834.989,-31.7941"/>
<polygon fill="#000000" stroke="#000000" points="938.2384,-99.497 948.7648,-100.6995 941.2858,-93.1952 938.2384,-99.497"/>
</g>
<!-- FS&#45;&gt;BGO -->
<g id="edge121" class="edge">
<title>FS&#45;&gt;BGO</title>
<path fill="none" stroke="#000000" d="M974.7518,-79.0193C972.6709,-70.2388 969.3314,-61.2624 964,-54 955.4131,-42.303 941.782,-33.7405 929.5812,-27.908"/>
<polygon fill="#000000" stroke="#000000" points="971.3649,-79.9461 976.6604,-89.1226 978.2432,-78.6467 971.3649,-79.9461"/>
</g>
<!-- CU -->
<g id="node79" class="node">
<title>CU</title>
<ellipse fill="none" stroke="#000000" cx="1003" cy="-18" rx="27" ry="18"/>
<text text-anchor="middle" x="1003" y="-13.8" font-family="Times,serif" font-size="14.00" fill="#000000">CU</text>
</g>
<!-- FS&#45;&gt;CU -->
<g id="edge126" class="edge">
<title>FS&#45;&gt;CU</title>
<path fill="none" stroke="#000000" d="M987.0583,-79.2798C990.8851,-64.5698 995.1785,-48.0657 998.3449,-35.8944"/>
<polygon fill="#000000" stroke="#000000" points="983.6337,-78.5426 984.5032,-89.1017 990.4082,-80.305 983.6337,-78.5426"/>
</g>
<!-- RAM&#45;&gt;SCA -->
<g id="edge110" class="edge">
<title>RAM&#45;&gt;SCA</title>
<path fill="none" stroke="#000000" d="M530.2775,-393.741C533.4613,-378.6962 539.7375,-360.9353 552.1094,-349.6 572.5321,-330.8885 649.5029,-316.9909 692.85,-310.4537"/>
<polygon fill="#000000" stroke="#000000" points="526.8272,-393.1534 528.5305,-403.6104 533.7201,-394.3736 526.8272,-393.1534"/>
<text text-anchor="middle" x="582.9453" y="-363.4" font-family="Times,serif" font-size="14.00" fill="#000000">4 x 7h12m</text>
</g>
<!-- MPC&#45;&gt;SCA -->
<g id="edge112" class="edge">
<title>MPC&#45;&gt;SCA</title>
<path fill="none" stroke="#000000" d="M613.0693,-393.3819C616.3917,-378.8919 622.3773,-361.7746 633.1094,-349.6 648.8022,-331.7979 673.4428,-320.6488 692.9599,-314.1303"/>
<polygon fill="#000000" stroke="#000000" points="609.6026,-392.8705 611.091,-403.3603 616.469,-394.2319 609.6026,-392.8705"/>
<text text-anchor="middle" x="667.4453" y="-363.4" font-family="Times,serif" font-size="14.00" fill="#000000">10 x 10h5m</text>
</g>
<!-- TRN&#45;&gt;CLR -->
<g id="edge119" class="edge">
<title>TRN&#45;&gt;CLR</title>
<path fill="none" stroke="#000000" d="M529.0513,-182.9487C532.6439,-174.4932 537.0456,-165.3206 542,-157.4 545.8803,-151.1965 550.609,-144.9613 555.3712,-139.2312"/>
<polygon fill="#000000" stroke="#000000" points="525.7226,-181.8444 525.221,-192.4274 532.2128,-184.4671 525.7226,-181.8444"/>
<text text-anchor="middle" x="563" y="-161.6" font-family="Times,serif" font-size="14.00" fill="#000000">10 x 6h</text>
</g>
<!-- BCO&#45;&gt;FS -->
<g id="edge125" class="edge">
<title>BCO&#45;&gt;FS</title>
<path fill="none" stroke="#000000" d="M902.1366,-181.6704C902.7718,-173.3423 904.6874,-164.5631 909.1094,-157.4 918.1625,-142.735 934.2327,-132.2137 948.5758,-125.2171"/>
<polygon fill="#000000" stroke="#000000" points="898.6342,-181.7514 901.9243,-191.8224 905.6327,-181.8978 898.6342,-181.7514"/>
<text text-anchor="middle" x="942.4453" y="-161.6" font-family="Times,serif" font-size="14.00" fill="#000000">10 x 7h12m</text>
</g>
<!-- BGO&#45;&gt;FS -->
<g id="edge123" class="edge">
<title>BGO&#45;&gt;FS</title>
<path fill="none" stroke="#000000" d="M895.7323,-45.778C894.9642,-54.2975 895.7414,-63.3742 900.1094,-70.8 910.5424,-88.5364 931.1585,-99.5308 948.5608,-106.0013"/>
<polygon fill="#000000" stroke="#000000" points="899.2036,-46.2331 897.2979,-35.8111 892.2884,-45.1468 899.2036,-46.2331"/>
<text text-anchor="middle" x="930.9453" y="-58.2" font-family="Times,serif" font-size="14.00" fill="#000000">5 x 9h36m</text>
</g>
<!-- WPL&#45;&gt;PG -->
<g id="edge104" class="edge">
<title>WPL&#45;&gt;PG</title>
<path fill="none" stroke="#000000" d="M812.6167,-531.1934C728.105,-518.2174 533.1222,-484.1401 485,-439.6 453.7331,-410.6605 475.9325,-384.8469 452,-349.6 413.8464,-293.4087 348.1936,-244.9277 315.5744,-222.8755"/>
<polygon fill="#000000" stroke="#000000" points="812.1846,-534.6678 822.5963,-532.7062 813.2338,-527.7469 812.1846,-534.6678"/>
</g>
<!-- TCL -->
<g id="node74" class="node">
<title>TCL</title>
<ellipse fill="none" stroke="#000000" cx="1055" cy="-421.6" rx="29.0529" ry="18"/>
<text text-anchor="middle" x="1055" y="-417.4" font-family="Times,serif" font-size="14.00" fill="#000000">TCL</text>
</g>
<!-- WPL&#45;&gt;TCL -->
<g id="edge105" class="edge">
<title>WPL&#45;&gt;TCL</title>
<path fill="none" stroke="#000000" d="M890.4101,-515.0838C932.6829,-491.0737 999.1504,-453.3215 1033.2416,-433.9583"/>
<polygon fill="#000000" stroke="#000000" points="888.4847,-512.1522 881.5179,-520.1344 891.9419,-518.2389 888.4847,-512.1522"/>
</g>
<!-- LAB -->
<g id="node75" class="node">
<title>LAB</title>
<path fill="#add8e6" stroke="#000000" d="M1149.0852,-281.5C1149.0852,-281.5 1230.9148,-281.5 1230.9148,-281.5 1236.9148,-281.5 1242.9148,-287.5 1242.9148,-293.5 1242.9148,-293.5 1242.9148,-319.1 1242.9148,-319.1 1242.9148,-325.1 1236.9148,-331.1 1230.9148,-331.1 1230.9148,-331.1 1149.0852,-331.1 1149.0852,-331.1 1143.0852,-331.1 1137.0852,-325.1 1137.0852,-319.1 1137.0852,-319.1 1137.0852,-293.5 1137.0852,-293.5 1137.0852,-287.5 1143.0852,-281.5 1149.0852,-281.5"/>
<text text-anchor="middle" x="1190" y="-314.5" font-family="Times,serif" font-size="14.00" fill="#000000">LAB</text>
<polyline fill="none" stroke="#000000" points="1137.0852,-306.3 1242.9148,-306.3 "/>
<text text-anchor="middle" x="1190" y="-289.7" font-family="Times,serif" font-size="14.00" fill="#000000">SET 20 TEC 70</text>
</g>
<!-- TCL&#45;&gt;LAB -->
<g id="edge106" class="edge">
<title>TCL&#45;&gt;LAB</title>
<path fill="none" stroke="#000000" d="M1069.6339,-395.7022C1078.9656,-380.8571 1092.1231,-362.6426 1107.2168,-349.6 1116.0529,-341.9647 1126.4669,-335.1991 1136.8724,-329.4181"/>
<polygon fill="#000000" stroke="#000000" points="1066.531,-394.0689 1064.3349,-404.4336 1072.5152,-397.7007 1066.531,-394.0689"/>
<text text-anchor="middle" x="1143.3916" y="-363.4" font-family="Times,serif" font-size="14.00" fill="#000000">3 @ 14h24m</text>
</g>
<!-- LAB&#45;&gt;H -->
<g id="edge109" class="edge">
<title>LAB&#45;&gt;H</title>
<path fill="none" stroke="#000000" d="M1171.0473,-272.5711C1162.4277,-257.2315 1152.6038,-239.7487 1145.5545,-227.2035"/>
<polygon fill="#000000" stroke="#000000" points="1168.003,-274.2984 1175.9531,-281.3017 1174.1056,-270.8692 1168.003,-274.2984"/>
</g>
<!-- CL -->
<g id="node76" class="node">
<title>CL</title>
<ellipse fill="none" stroke="#000000" cx="1208" cy="-210.2" rx="27" ry="18"/>
<text text-anchor="middle" x="1208" y="-206" font-family="Times,serif" font-size="14.00" fill="#000000">CL</text>
</g>
<!-- LAB&#45;&gt;CL -->
<g id="edge107" class="edge">
<title>LAB&#45;&gt;CL</title>
<path fill="none" stroke="#000000" d="M1196.6016,-271.055C1199.3366,-256.4528 1202.3905,-240.1487 1204.6483,-228.0944"/>
<polygon fill="#000000" stroke="#000000" points="1193.0832,-270.8283 1194.6823,-281.3017 1199.9636,-272.117 1193.0832,-270.8283"/>
</g>
<!-- O -->
<g id="node77" class="node">
<title>O</title>
<ellipse fill="none" stroke="#000000" cx="1280" cy="-210.2" rx="27" ry="18"/>
<text text-anchor="middle" x="1280" y="-206" font-family="Times,serif" font-size="14.00" fill="#000000">O</text>
</g>
<!-- LAB&#45;&gt;O -->
<g id="edge108" class="edge">
<title>LAB&#45;&gt;O</title>
<path fill="none" stroke="#000000" d="M1220.2513,-273.9983C1235.597,-257.6125 1253.5155,-238.4795 1265.6981,-225.4713"/>
<polygon fill="#000000" stroke="#000000" points="1217.6925,-271.6103 1213.4115,-281.3017 1222.8018,-276.3953 1217.6925,-271.6103"/>
</g>
<!-- CAP&#45;&gt;CLR -->
<g id="edge117" class="edge">
<title>CAP&#45;&gt;CLR</title>
<path fill="none" stroke="#000000" d="M591.7688,-182.2712C589.2052,-168.5842 586.1436,-152.2389 583.6611,-138.9848"/>
<polygon fill="#000000" stroke="#000000" points="588.333,-182.9396 593.6143,-192.1243 595.2134,-181.6509 588.333,-182.9396"/>
<text text-anchor="middle" x="624.4453" y="-161.6" font-family="Times,serif" font-size="14.00" fill="#000000">15 x 9h36m</text>
</g>
</g>
</svg>
