<?xml version="1.0" encoding="UTF-8" standalone="no"?>
<!DOCTYPE svg PUBLIC "-//W3C//DTD SVG 1.1//EN"
 "http://www.w3.org/Graphics/SVG/1.1/DTD/svg11.dtd">
<!-- Generated by graphviz version 2.40.1 (20161225.0304)
 -->
<!-- Title: CQM Pages: 1 -->
<svg width="1991pt" height="1505pt"
 viewBox="0.00 0.00 1991.00 1504.60" xmlns="http://www.w3.org/2000/svg" xmlns:xlink="http://www.w3.org/1999/xlink">
<g id="graph0" class="graph" transform="scale(1 1) rotate(0) translate(4 1500.6)">
<title>CQM</title>
<polygon fill="#ffffff" stroke="transparent" points="-4,4 -4,-1500.6 1987,-1500.6 1987,4 -4,4"/>
<g id="clust1" class="cluster">
<title>cluster_UPF</title>
<polygon fill="#00ff00" stroke="#000000" points="336,-1165 336,-1488.6 410,-1488.6 410,-1165 336,-1165"/>
<text text-anchor="middle" x="373" y="-1472" font-family="Times,serif" font-size="14.00" fill="#000000">UPF</text>
</g>
<g id="clust2" class="cluster">
<title>cluster_APF</title>
<polygon fill="#add8e6" stroke="#000000" points="1404,-628 1404,-1256.4 1557,-1256.4 1557,-628 1404,-628"/>
<text text-anchor="middle" x="1480.5" y="-1239.8" font-family="Times,serif" font-size="14.00" fill="#000000">APF</text>
</g>
<g id="clust3" class="cluster">
<title>cluster_PHF</title>
<polygon fill="#add8e6" stroke="#000000" points="300,-765.2 300,-1119.2 378,-1119.2 378,-765.2 300,-765.2"/>
<text text-anchor="middle" x="339" y="-1102.6" font-family="Times,serif" font-size="14.00" fill="#000000">PHF</text>
</g>
<g id="clust4" class="cluster">
<title>cluster_POL</title>
<polygon fill="#00ff00" stroke="#000000" points="378,-228.2 378,-582.2 537,-582.2 537,-228.2 378,-228.2"/>
<text text-anchor="middle" x="457.5" y="-565.6" font-family="Times,serif" font-size="14.00" fill="#000000">POL</text>
</g>
<g id="clust5" class="cluster">
<title>cluster_SCA</title>
<polygon fill="#add8e6" stroke="#000000" points="1406,-490.8 1406,-582.2 1660,-582.2 1660,-490.8 1406,-490.8"/>
<text text-anchor="middle" x="1533" y="-565.6" font-family="Times,serif" font-size="14.00" fill="#000000">SCA</text>
</g>
<g id="clust6" class="cluster">
<title>cluster_ELP</title>
<polygon fill="#add8e6" stroke="#000000" points="1646,-765.2 1646,-856.6 1815,-856.6 1815,-765.2 1646,-765.2"/>
<text text-anchor="middle" x="1730.5" y="-840" font-family="Times,serif" font-size="14.00" fill="#000000">ELP</text>
</g>
<g id="clust7" class="cluster">
<title>cluster_CLR</title>
<polygon fill="#00ff00" stroke="#000000" points="1018,-353.6 1018,-445 1187,-445 1187,-353.6 1018,-353.6"/>
<text text-anchor="middle" x="1102.5" y="-428.4" font-family="Times,serif" font-size="14.00" fill="#000000">CLR</text>
</g>
<g id="clust8" class="cluster">
<title>cluster_FS</title>
<polygon fill="#00ff00" stroke="#000000" points="1200,-102.8 1200,-445 1542,-445 1542,-102.8 1200,-102.8"/>
<text text-anchor="middle" x="1371" y="-428.4" font-family="Times,serif" font-size="14.00" fill="#000000">FS</text>
</g>
<g id="clust9" class="cluster">
<title>cluster_LAB</title>
<polygon fill="#add8e6" stroke="#000000" points="1247,-765.2 1247,-856.6 1325,-856.6 1325,-765.2 1247,-765.2"/>
<text text-anchor="middle" x="1286" y="-840" font-family="Times,serif" font-size="14.00" fill="#000000">LAB</text>
</g>
<g id="clust10" class="cluster">
<title>cluster_CHP</title>
<polygon fill="#00ff00" stroke="#000000" points="641,-765.2 641,-856.6 802,-856.6 802,-765.2 641,-765.2"/>
<text text-anchor="middle" x="721.5" y="-840" font-family="Times,serif" font-size="14.00" fill="#000000">CHP</text>
</g>
<g id="clust11" class="cluster">
<title>cluster_WEL</title>
<polygon fill="#00ff00" stroke="#000000" points="686,-353.6 686,-445 922,-445 922,-353.6 686,-353.6"/>
<text text-anchor="middle" x="804" y="-428.4" font-family="Times,serif" font-size="14.00" fill="#000000">WEL</text>
</g>
<g id="clust12" class="cluster">
<title>cluster_PPF</title>
<polygon fill="#00ff00" stroke="#000000" points="80,-353.6 80,-719.4 245,-719.4 245,-353.6 80,-353.6"/>
<text text-anchor="middle" x="162.5" y="-702.8" font-family="Times,serif" font-size="14.00" fill="#000000">PPF</text>
</g>
<!-- CQM -->
<g id="node1" class="node">
<title>CQM</title>
<path fill="none" stroke="#000000" d="M355.8061,-1405.7C355.8061,-1405.7 390.1939,-1405.7 390.1939,-1405.7 396.1939,-1405.7 402.1939,-1411.7 402.1939,-1417.7 402.1939,-1417.7 402.1939,-1443.3 402.1939,-1443.3 402.1939,-1449.3 396.1939,-1455.3 390.1939,-1455.3 390.1939,-1455.3 355.8061,-1455.3 355.8061,-1455.3 349.8061,-1455.3 343.8061,-1449.3 343.8061,-1443.3 343.8061,-1443.3 343.8061,-1417.7 343.8061,-1417.7 343.8061,-1411.7 349.8061,-1405.7 355.8061,-1405.7"/>
<text text-anchor="middle" x="373" y="-1438.7" font-family="Times,serif" font-size="14.00" fill="#000000">1 CQM</text>
<polyline fill="none" stroke="#000000" points="343.8061,-1430.5 402.1939,-1430.5 "/>
<text text-anchor="middle" x="373" y="-1413.9" font-family="Times,serif" font-size="14.00" fill="#000000">2d12h</text>
</g>
<!-- TCU -->
<g id="node2" class="node">
<title>TCU</title>
<path fill="none" stroke="#000000" d="M355.7521,-1173.5C355.7521,-1173.5 386.2479,-1173.5 386.2479,-1173.5 392.2479,-1173.5 398.2479,-1179.5 398.2479,-1185.5 398.2479,-1185.5 398.2479,-1211.1 398.2479,-1211.1 398.2479,-1217.1 392.2479,-1223.1 386.2479,-1223.1 386.2479,-1223.1 355.7521,-1223.1 355.7521,-1223.1 349.7521,-1223.1 343.7521,-1217.1 343.7521,-1211.1 343.7521,-1211.1 343.7521,-1185.5 343.7521,-1185.5 343.7521,-1179.5 349.7521,-1173.5 355.7521,-1173.5"/>
<text text-anchor="middle" x="371" y="-1206.5" font-family="Times,serif" font-size="14.00" fill="#000000">1 TCU</text>
<polyline fill="none" stroke="#000000" points="343.7521,-1198.3 398.2479,-1198.3 "/>
<text text-anchor="middle" x="371" y="-1181.7" font-family="Times,serif" font-size="14.00" fill="#000000">1d14h</text>
</g>
<!-- CQM&#45;&gt;TCU -->
<g id="edge6" class="edge">
<title>CQM&#45;&gt;TCU</title>
<path fill="none" stroke="#000000" d="M372.6991,-1395.5626C372.2914,-1348.2289 371.5735,-1264.8784 371.2155,-1223.3218"/>
<polygon fill="#000000" stroke="#000000" points="369.1999,-1395.6811 372.786,-1405.6505 376.1996,-1395.6207 369.1999,-1395.6811"/>
<text text-anchor="middle" x="375.5" y="-1308.2" font-family="Times,serif" font-size="14.00" fill="#000000">1</text>
</g>
<!-- PSL -->
<g id="node3" class="node">
<title>PSL</title>
<path fill="none" stroke="#000000" d="M100.0547,-636.5C100.0547,-636.5 137.9453,-636.5 137.9453,-636.5 143.9453,-636.5 149.9453,-642.5 149.9453,-648.5 149.9453,-648.5 149.9453,-674.1 149.9453,-674.1 149.9453,-680.1 143.9453,-686.1 137.9453,-686.1 137.9453,-686.1 100.0547,-686.1 100.0547,-686.1 94.0547,-686.1 88.0547,-680.1 88.0547,-674.1 88.0547,-674.1 88.0547,-648.5 88.0547,-648.5 88.0547,-642.5 94.0547,-636.5 100.0547,-636.5"/>
<text text-anchor="middle" x="119" y="-669.5" font-family="Times,serif" font-size="14.00" fill="#000000">1 PSL</text>
<polyline fill="none" stroke="#000000" points="88.0547,-661.3 149.9453,-661.3 "/>
<text text-anchor="middle" x="119" y="-644.7" font-family="Times,serif" font-size="14.00" fill="#000000">14h24m</text>
</g>
<!-- CQM&#45;&gt;PSL -->
<g id="edge1" class="edge">
<title>CQM&#45;&gt;PSL</title>
<path fill="none" stroke="#000000" d="M333.5622,-1426.4914C237.6485,-1415.6539 0,-1381.7993 0,-1312.4 0,-1312.4 0,-1312.4 0,-873 0,-797.1082 58.8318,-723.278 93.7632,-686.13"/>
<polygon fill="#000000" stroke="#000000" points="333.4077,-1429.9955 343.7313,-1427.6138 334.1757,-1423.0378 333.4077,-1429.9955"/>
<text text-anchor="middle" x="7" y="-1056.9" font-family="Times,serif" font-size="14.00" fill="#000000">10</text>
</g>
<!-- PSM -->
<g id="node4" class="node">
<title>PSM</title>
<path fill="none" stroke="#000000" d="M194.5547,-362.1C194.5547,-362.1 225.4453,-362.1 225.4453,-362.1 231.4453,-362.1 237.4453,-368.1 237.4453,-374.1 237.4453,-374.1 237.4453,-399.7 237.4453,-399.7 237.4453,-405.7 231.4453,-411.7 225.4453,-411.7 225.4453,-411.7 194.5547,-411.7 194.5547,-411.7 188.5547,-411.7 182.5547,-405.7 182.5547,-399.7 182.5547,-399.7 182.5547,-374.1 182.5547,-374.1 182.5547,-368.1 188.5547,-362.1 194.5547,-362.1"/>
<text text-anchor="middle" x="210" y="-395.1" font-family="Times,serif" font-size="14.00" fill="#000000">1 PSM</text>
<polyline fill="none" stroke="#000000" points="182.5547,-386.9 237.4453,-386.9 "/>
<text text-anchor="middle" x="210" y="-370.3" font-family="Times,serif" font-size="14.00" fill="#000000">9h36m</text>
</g>
<!-- CQM&#45;&gt;PSM -->
<g id="edge2" class="edge">
<title>CQM&#45;&gt;PSM</title>
<path fill="none" stroke="#000000" d="M410.6543,-1406.9434C439.0031,-1385.9901 473,-1352.5022 473,-1312.4 473,-1312.4 473,-1312.4 473,-1135.6 473,-1034.5057 466.4638,-1008.2348 441,-910.4 423.5782,-843.4635 411.0719,-829.2645 385,-765.2 381.1724,-755.7947 379.0178,-753.8956 376,-744.2 341.8584,-634.51 381.8161,-590.6473 325,-490.8 303.7748,-453.4994 264.3566,-422.3461 237.655,-404.1597"/>
<polygon fill="#000000" stroke="#000000" points="408.5783,-1404.1249 402.4624,-1412.7763 412.6385,-1409.8271 408.5783,-1404.1249"/>
<text text-anchor="middle" x="460" y="-931.5" font-family="Times,serif" font-size="14.00" fill="#000000">20</text>
</g>
<!-- TI -->
<g id="node5" class="node">
<title>TI</title>
<ellipse fill="none" stroke="#000000" cx="668" cy="-1312.4" rx="27" ry="18"/>
<text text-anchor="middle" x="668" y="-1308.2" font-family="Times,serif" font-size="14.00" fill="#000000">TI</text>
</g>
<!-- CQM&#45;&gt;TI -->
<g id="edge3" class="edge">
<title>CQM&#45;&gt;TI</title>
<path fill="none" stroke="#000000" d="M412.5747,-1425.7986C474.9673,-1417.7728 592.6427,-1399.9639 627,-1376.2 643.3511,-1364.8905 654.6775,-1344.7256 661.218,-1330.0867"/>
<polygon fill="#000000" stroke="#000000" points="411.8108,-1422.3672 402.3281,-1427.0925 412.6879,-1429.312 411.8108,-1422.3672"/>
<text text-anchor="middle" x="650" y="-1363.6" font-family="Times,serif" font-size="14.00" fill="#000000">10</text>
</g>
<!-- LIS -->
<g id="node6" class="node">
<title>LIS</title>
<path fill="none" stroke="#000000" d="M1507,-1173.5C1507,-1173.5 1537,-1173.5 1537,-1173.5 1543,-1173.5 1549,-1179.5 1549,-1185.5 1549,-1185.5 1549,-1211.1 1549,-1211.1 1549,-1217.1 1543,-1223.1 1537,-1223.1 1537,-1223.1 1507,-1223.1 1507,-1223.1 1501,-1223.1 1495,-1217.1 1495,-1211.1 1495,-1211.1 1495,-1185.5 1495,-1185.5 1495,-1179.5 1501,-1173.5 1507,-1173.5"/>
<text text-anchor="middle" x="1522" y="-1206.5" font-family="Times,serif" font-size="14.00" fill="#000000">1 LIS</text>
<polyline fill="none" stroke="#000000" points="1495,-1198.3 1549,-1198.3 "/>
<text text-anchor="middle" x="1522" y="-1181.7" font-family="Times,serif" font-size="14.00" fill="#000000">2d12h</text>
</g>
<!-- CQM&#45;&gt;LIS -->
<g id="edge4" class="edge">
<title>CQM&#45;&gt;LIS</title>
<path fill="none" stroke="#000000" d="M412.5835,-1425.5571C451.3326,-1419.2029 510.6912,-1405.3029 554,-1376.2 592.7727,-1350.1453 578.9829,-1316.7555 620,-1294.4 698.8189,-1251.4415 1352.7197,-1208.7751 1494.8176,-1199.9557"/>
<polygon fill="#000000" stroke="#000000" points="411.58,-1422.1705 402.2313,-1427.1556 412.6483,-1429.0885 411.58,-1422.1705"/>
<text text-anchor="middle" x="623.5" y="-1308.2" font-family="Times,serif" font-size="14.00" fill="#000000">1</text>
</g>
<!-- DEC -->
<g id="node7" class="node">
<title>DEC</title>
<path fill="none" stroke="#000000" d="M483.7521,-499.3C483.7521,-499.3 514.2479,-499.3 514.2479,-499.3 520.2479,-499.3 526.2479,-505.3 526.2479,-511.3 526.2479,-511.3 526.2479,-536.9 526.2479,-536.9 526.2479,-542.9 520.2479,-548.9 514.2479,-548.9 514.2479,-548.9 483.7521,-548.9 483.7521,-548.9 477.7521,-548.9 471.7521,-542.9 471.7521,-536.9 471.7521,-536.9 471.7521,-511.3 471.7521,-511.3 471.7521,-505.3 477.7521,-499.3 483.7521,-499.3"/>
<text text-anchor="middle" x="499" y="-532.3" font-family="Times,serif" font-size="14.00" fill="#000000">1 DEC</text>
<polyline fill="none" stroke="#000000" points="471.7521,-524.1 526.2479,-524.1 "/>
<text text-anchor="middle" x="499" y="-507.5" font-family="Times,serif" font-size="14.00" fill="#000000">12h</text>
</g>
<!-- CQM&#45;&gt;DEC -->
<g id="edge5" class="edge">
<title>CQM&#45;&gt;DEC</title>
<path fill="none" stroke="#000000" d="M412.1552,-1420.114C459.2353,-1404.9771 532,-1371.9499 532,-1312.4 532,-1312.4 532,-1312.4 532,-661.3 532,-621.122 518.4568,-576.1152 508.7226,-548.9555"/>
<polygon fill="#000000" stroke="#000000" points="411.0618,-1416.7884 402.534,-1423.0756 413.1212,-1423.4786 411.0618,-1416.7884"/>
<text text-anchor="middle" x="539" y="-994.2" font-family="Times,serif" font-size="14.00" fill="#000000">10</text>
</g>
<!-- TCU&#45;&gt;PSL -->
<g id="edge7" class="edge">
<title>TCU&#45;&gt;PSL</title>
<path fill="none" stroke="#000000" d="M333.2925,-1192.8783C269.2271,-1181.3051 146,-1147.7786 146,-1061.1 146,-1061.1 146,-1061.1 146,-798.5 146,-758.6869 134.9192,-713.5774 126.9549,-686.2968"/>
<polygon fill="#000000" stroke="#000000" points="332.963,-1196.3728 343.4106,-1194.6124 334.1456,-1189.4734 332.963,-1196.3728"/>
<text text-anchor="middle" x="153" y="-931.5" font-family="Times,serif" font-size="14.00" fill="#000000">12</text>
</g>
<!-- TCU&#45;&gt;PSM -->
<g id="edge8" class="edge">
<title>TCU&#45;&gt;PSM</title>
<path fill="none" stroke="#000000" d="M333.6527,-1192.692C292.2521,-1185.4638 224.2899,-1170.5492 171,-1144 154.8947,-1135.9763 152.8708,-1130.6613 139,-1119.2 108.874,-1094.3071 73,-1100.1798 73,-1061.1 73,-1061.1 73,-1061.1 73,-873 73,-686.1001 -8.9448,-608.9933 94,-453 114.5549,-421.8529 155.1363,-403.7389 182.4246,-394.5843"/>
<polygon fill="#000000" stroke="#000000" points="333.138,-1196.1545 343.5809,-1194.3664 334.3023,-1189.252 333.138,-1196.1545"/>
<text text-anchor="middle" x="76.5" y="-794.3" font-family="Times,serif" font-size="14.00" fill="#000000">8</text>
</g>
<!-- ADR -->
<g id="node8" class="node">
<title>ADR</title>
<path fill="none" stroke="#000000" d="M320.0547,-1036.3C320.0547,-1036.3 357.9453,-1036.3 357.9453,-1036.3 363.9453,-1036.3 369.9453,-1042.3 369.9453,-1048.3 369.9453,-1048.3 369.9453,-1073.9 369.9453,-1073.9 369.9453,-1079.9 363.9453,-1085.9 357.9453,-1085.9 357.9453,-1085.9 320.0547,-1085.9 320.0547,-1085.9 314.0547,-1085.9 308.0547,-1079.9 308.0547,-1073.9 308.0547,-1073.9 308.0547,-1048.3 308.0547,-1048.3 308.0547,-1042.3 314.0547,-1036.3 320.0547,-1036.3"/>
<text text-anchor="middle" x="339" y="-1069.3" font-family="Times,serif" font-size="14.00" fill="#000000">1 ADR</text>
<polyline fill="none" stroke="#000000" points="308.0547,-1061.1 369.9453,-1061.1 "/>
<text text-anchor="middle" x="339" y="-1044.5" font-family="Times,serif" font-size="14.00" fill="#000000">21h36m</text>
</g>
<!-- TCU&#45;&gt;ADR -->
<g id="edge9" class="edge">
<title>TCU&#45;&gt;ADR</title>
<path fill="none" stroke="#000000" d="M362.9134,-1163.6288C357.2897,-1139.5173 349.9228,-1107.9317 344.86,-1086.2247"/>
<polygon fill="#000000" stroke="#000000" points="359.525,-1164.5105 365.205,-1173.4541 366.3421,-1162.9205 359.525,-1164.5105"/>
<text text-anchor="middle" x="360.5" y="-1131.4" font-family="Times,serif" font-size="14.00" fill="#000000">1</text>
</g>
<!-- PG -->
<g id="node28" class="node">
<title>PG</title>
<path fill="none" stroke="#000000" d="M397.5547,-236.7C397.5547,-236.7 428.4453,-236.7 428.4453,-236.7 434.4453,-236.7 440.4453,-242.7 440.4453,-248.7 440.4453,-248.7 440.4453,-274.3 440.4453,-274.3 440.4453,-280.3 434.4453,-286.3 428.4453,-286.3 428.4453,-286.3 397.5547,-286.3 397.5547,-286.3 391.5547,-286.3 385.5547,-280.3 385.5547,-274.3 385.5547,-274.3 385.5547,-248.7 385.5547,-248.7 385.5547,-242.7 391.5547,-236.7 397.5547,-236.7"/>
<text text-anchor="middle" x="413" y="-269.7" font-family="Times,serif" font-size="14.00" fill="#000000">50 PG</text>
<polyline fill="none" stroke="#000000" points="385.5547,-261.5 440.4453,-261.5 "/>
<text text-anchor="middle" x="413" y="-244.9" font-family="Times,serif" font-size="14.00" fill="#000000">8h54m</text>
</g>
<!-- PSL&#45;&gt;PG -->
<g id="edge83" class="edge">
<title>PSL&#45;&gt;PG</title>
<path fill="none" stroke="#000000" d="M110.9356,-626.5173C98.9527,-566.1267 83.0403,-440.0707 135,-353.6 149.7163,-329.1093 161.055,-327.7675 187,-315.8 254.4221,-284.7006 341.6769,-270.2551 385.4245,-264.5895"/>
<polygon fill="#000000" stroke="#000000" points="107.5098,-627.2344 112.962,-636.3187 114.3648,-625.8171 107.5098,-627.2344"/>
<text text-anchor="middle" x="110" y="-457.2" font-family="Times,serif" font-size="14.00" fill="#000000">40</text>
</g>
<!-- PSM&#45;&gt;PG -->
<g id="edge84" class="edge">
<title>PSM&#45;&gt;PG</title>
<path fill="none" stroke="#000000" d="M246.443,-364.3879C286.3865,-339.7135 349.5627,-300.6874 385.5351,-278.466"/>
<polygon fill="#000000" stroke="#000000" points="244.4689,-361.4934 237.8006,-369.7266 248.1477,-367.4488 244.4689,-361.4934"/>
<text text-anchor="middle" x="330" y="-320" font-family="Times,serif" font-size="14.00" fill="#000000">20</text>
</g>
<!-- WR -->
<g id="node9" class="node">
<title>WR</title>
<path fill="none" stroke="#000000" d="M1507,-910.9C1507,-910.9 1537,-910.9 1537,-910.9 1543,-910.9 1549,-916.9 1549,-922.9 1549,-922.9 1549,-948.5 1549,-948.5 1549,-954.5 1543,-960.5 1537,-960.5 1537,-960.5 1507,-960.5 1507,-960.5 1501,-960.5 1495,-954.5 1495,-948.5 1495,-948.5 1495,-922.9 1495,-922.9 1495,-916.9 1501,-910.9 1507,-910.9"/>
<text text-anchor="middle" x="1522" y="-943.9" font-family="Times,serif" font-size="14.00" fill="#000000">1 WR</text>
<polyline fill="none" stroke="#000000" points="1495,-935.7 1549,-935.7 "/>
<text text-anchor="middle" x="1522" y="-919.1" font-family="Times,serif" font-size="14.00" fill="#000000">1d17h</text>
</g>
<!-- LIS&#45;&gt;WR -->
<g id="edge10" class="edge">
<title>LIS&#45;&gt;WR</title>
<path fill="none" stroke="#000000" d="M1522,-1163.0155C1522,-1109.1697 1522,-1007.8007 1522,-960.803"/>
<polygon fill="#000000" stroke="#000000" points="1518.5001,-1163.1208 1522,-1173.1208 1525.5001,-1163.1208 1518.5001,-1163.1208"/>
<text text-anchor="middle" x="1525.5" y="-1056.9" font-family="Times,serif" font-size="14.00" fill="#000000">1</text>
</g>
<!-- AIR -->
<g id="node10" class="node">
<title>AIR</title>
<path fill="none" stroke="#000000" d="M1424,-910.9C1424,-910.9 1454,-910.9 1454,-910.9 1460,-910.9 1466,-916.9 1466,-922.9 1466,-922.9 1466,-948.5 1466,-948.5 1466,-954.5 1460,-960.5 1454,-960.5 1454,-960.5 1424,-960.5 1424,-960.5 1418,-960.5 1412,-954.5 1412,-948.5 1412,-948.5 1412,-922.9 1412,-922.9 1412,-916.9 1418,-910.9 1424,-910.9"/>
<text text-anchor="middle" x="1439" y="-943.9" font-family="Times,serif" font-size="14.00" fill="#000000">1 AIR</text>
<polyline fill="none" stroke="#000000" points="1412,-935.7 1466,-935.7 "/>
<text text-anchor="middle" x="1439" y="-919.1" font-family="Times,serif" font-size="14.00" fill="#000000">2d12h</text>
</g>
<!-- LIS&#45;&gt;AIR -->
<g id="edge11" class="edge">
<title>LIS&#45;&gt;AIR</title>
<path fill="none" stroke="#000000" d="M1510.9538,-1163.3514C1493.9622,-1109.5923 1461.8198,-1007.8986 1446.9343,-960.803"/>
<polygon fill="#000000" stroke="#000000" points="1507.6905,-1164.6406 1514.0416,-1173.1208 1514.3651,-1162.5309 1507.6905,-1164.6406"/>
<text text-anchor="middle" x="1499.5" y="-1056.9" font-family="Times,serif" font-size="14.00" fill="#000000">1</text>
</g>
<!-- BMF -->
<g id="node12" class="node">
<title>BMF</title>
<path fill="none" stroke="#000000" d="M1757.0547,-773.7C1757.0547,-773.7 1794.9453,-773.7 1794.9453,-773.7 1800.9453,-773.7 1806.9453,-779.7 1806.9453,-785.7 1806.9453,-785.7 1806.9453,-811.3 1806.9453,-811.3 1806.9453,-817.3 1800.9453,-823.3 1794.9453,-823.3 1794.9453,-823.3 1757.0547,-823.3 1757.0547,-823.3 1751.0547,-823.3 1745.0547,-817.3 1745.0547,-811.3 1745.0547,-811.3 1745.0547,-785.7 1745.0547,-785.7 1745.0547,-779.7 1751.0547,-773.7 1757.0547,-773.7"/>
<text text-anchor="middle" x="1776" y="-806.7" font-family="Times,serif" font-size="14.00" fill="#000000">1 BMF</text>
<polyline fill="none" stroke="#000000" points="1745.0547,-798.5 1806.9453,-798.5 "/>
<text text-anchor="middle" x="1776" y="-781.9" font-family="Times,serif" font-size="14.00" fill="#000000">16h48m</text>
</g>
<!-- LIS&#45;&gt;BMF -->
<g id="edge12" class="edge">
<title>LIS&#45;&gt;BMF</title>
<path fill="none" stroke="#000000" d="M1543.3111,-1164.756C1593.1093,-1086.3729 1716.2022,-892.6227 1760.1172,-823.4998"/>
<polygon fill="#000000" stroke="#000000" points="1540.2971,-1162.9732 1537.8888,-1173.2907 1546.2056,-1166.727 1540.2971,-1162.9732"/>
<text text-anchor="middle" x="1654.5" y="-994.2" font-family="Times,serif" font-size="14.00" fill="#000000">1</text>
</g>
<!-- WAI -->
<g id="node13" class="node">
<title>WAI</title>
<ellipse fill="none" stroke="#000000" cx="1866" cy="-798.5" rx="30.1765" ry="18"/>
<text text-anchor="middle" x="1866" y="-794.3" font-family="Times,serif" font-size="14.00" fill="#000000">WAI</text>
</g>
<!-- LIS&#45;&gt;WAI -->
<g id="edge13" class="edge">
<title>LIS&#45;&gt;WAI</title>
<path fill="none" stroke="#000000" d="M1557.5704,-1172.2149C1576.7989,-1157.4784 1600.5245,-1138.2394 1620,-1119.2 1718.9552,-1022.4609 1742.9161,-995.6519 1821,-881.4 1835.6919,-859.903 1849.4928,-833.13 1857.8419,-815.9274"/>
<polygon fill="#000000" stroke="#000000" points="1555.2087,-1169.6133 1549.3578,-1178.446 1559.4398,-1175.1899 1555.2087,-1169.6133"/>
<text text-anchor="middle" x="1744.5" y="-994.2" font-family="Times,serif" font-size="14.00" fill="#000000">1</text>
</g>
<!-- DEC&#45;&gt;PG -->
<g id="edge38" class="edge">
<title>DEC&#45;&gt;PG</title>
<path fill="none" stroke="#000000" d="M486.5077,-489.6205C481.5707,-475.7868 475.9141,-459.6725 471,-445 452.1128,-388.607 431.45,-321.9207 420.6119,-286.519"/>
<polygon fill="#000000" stroke="#000000" points="483.2856,-491.0046 489.9544,-499.2373 489.8752,-488.6427 483.2856,-491.0046"/>
<text text-anchor="middle" x="481.5" y="-382.7" font-family="Times,serif" font-size="14.00" fill="#000000">150</text>
</g>
<!-- EPO -->
<g id="node29" class="node">
<title>EPO</title>
<path fill="none" stroke="#000000" d="M481.0291,-236.7C481.0291,-236.7 516.9709,-236.7 516.9709,-236.7 522.9709,-236.7 528.9709,-242.7 528.9709,-248.7 528.9709,-248.7 528.9709,-274.3 528.9709,-274.3 528.9709,-280.3 522.9709,-286.3 516.9709,-286.3 516.9709,-286.3 481.0291,-286.3 481.0291,-286.3 475.0291,-286.3 469.0291,-280.3 469.0291,-274.3 469.0291,-274.3 469.0291,-248.7 469.0291,-248.7 469.0291,-242.7 475.0291,-236.7 481.0291,-236.7"/>
<text text-anchor="middle" x="499" y="-269.7" font-family="Times,serif" font-size="14.00" fill="#000000">50 EPO</text>
<polyline fill="none" stroke="#000000" points="469.0291,-261.5 528.9709,-261.5 "/>
<text text-anchor="middle" x="499" y="-244.9" font-family="Times,serif" font-size="14.00" fill="#000000">1d</text>
</g>
<!-- DEC&#45;&gt;EPO -->
<g id="edge39" class="edge">
<title>DEC&#45;&gt;EPO</title>
<path fill="none" stroke="#000000" d="M499,-488.8155C499,-434.9697 499,-333.6007 499,-286.603"/>
<polygon fill="#000000" stroke="#000000" points="495.5001,-488.9208 499,-498.9208 502.5001,-488.9208 495.5001,-488.9208"/>
<text text-anchor="middle" x="506" y="-382.7" font-family="Times,serif" font-size="14.00" fill="#000000">70</text>
</g>
<!-- BSC -->
<g id="node24" class="node">
<title>BSC</title>
<path fill="none" stroke="#000000" d="M320.0547,-773.7C320.0547,-773.7 357.9453,-773.7 357.9453,-773.7 363.9453,-773.7 369.9453,-779.7 369.9453,-785.7 369.9453,-785.7 369.9453,-811.3 369.9453,-811.3 369.9453,-817.3 363.9453,-823.3 357.9453,-823.3 357.9453,-823.3 320.0547,-823.3 320.0547,-823.3 314.0547,-823.3 308.0547,-817.3 308.0547,-811.3 308.0547,-811.3 308.0547,-785.7 308.0547,-785.7 308.0547,-779.7 314.0547,-773.7 320.0547,-773.7"/>
<text text-anchor="middle" x="339" y="-806.7" font-family="Times,serif" font-size="14.00" fill="#000000">1 BSC</text>
<polyline fill="none" stroke="#000000" points="308.0547,-798.5 369.9453,-798.5 "/>
<text text-anchor="middle" x="339" y="-781.9" font-family="Times,serif" font-size="14.00" fill="#000000">21h36m</text>
</g>
<!-- ADR&#45;&gt;BSC -->
<g id="edge31" class="edge">
<title>ADR&#45;&gt;BSC</title>
<path fill="none" stroke="#000000" d="M339,-1025.8155C339,-971.9697 339,-870.6007 339,-823.603"/>
<polygon fill="#000000" stroke="#000000" points="335.5001,-1025.9208 339,-1035.9208 342.5001,-1025.9208 335.5001,-1025.9208"/>
<text text-anchor="middle" x="342.5" y="-931.5" font-family="Times,serif" font-size="14.00" fill="#000000">1</text>
</g>
<!-- REA -->
<g id="node25" class="node">
<title>REA</title>
<path fill="none" stroke="#000000" d="M661.0547,-773.7C661.0547,-773.7 698.9453,-773.7 698.9453,-773.7 704.9453,-773.7 710.9453,-779.7 710.9453,-785.7 710.9453,-785.7 710.9453,-811.3 710.9453,-811.3 710.9453,-817.3 704.9453,-823.3 698.9453,-823.3 698.9453,-823.3 661.0547,-823.3 661.0547,-823.3 655.0547,-823.3 649.0547,-817.3 649.0547,-811.3 649.0547,-811.3 649.0547,-785.7 649.0547,-785.7 649.0547,-779.7 655.0547,-773.7 661.0547,-773.7"/>
<text text-anchor="middle" x="680" y="-806.7" font-family="Times,serif" font-size="14.00" fill="#000000">10 REA</text>
<polyline fill="none" stroke="#000000" points="649.0547,-798.5 710.9453,-798.5 "/>
<text text-anchor="middle" x="680" y="-781.9" font-family="Times,serif" font-size="14.00" fill="#000000">16h48m</text>
</g>
<!-- ADR&#45;&gt;REA -->
<g id="edge32" class="edge">
<title>ADR&#45;&gt;REA</title>
<path fill="none" stroke="#000000" d="M350.9152,-1026.8405C364.1303,-993.26 388.3958,-942.563 424,-910.4 491.3076,-849.5977 596.8807,-817.9157 648.9014,-805.2542"/>
<polygon fill="#000000" stroke="#000000" points="347.6197,-1025.6595 347.3244,-1036.2503 354.1597,-1028.1552 347.6197,-1025.6595"/>
<text text-anchor="middle" x="431" y="-931.5" font-family="Times,serif" font-size="14.00" fill="#000000">20</text>
</g>
<!-- MFK -->
<g id="node26" class="node">
<title>MFK</title>
<path fill="none" stroke="#000000" d="M1219.5831,-362.1C1219.5831,-362.1 1252.4169,-362.1 1252.4169,-362.1 1258.4169,-362.1 1264.4169,-368.1 1264.4169,-374.1 1264.4169,-374.1 1264.4169,-399.7 1264.4169,-399.7 1264.4169,-405.7 1258.4169,-411.7 1252.4169,-411.7 1252.4169,-411.7 1219.5831,-411.7 1219.5831,-411.7 1213.5831,-411.7 1207.5831,-405.7 1207.5831,-399.7 1207.5831,-399.7 1207.5831,-374.1 1207.5831,-374.1 1207.5831,-368.1 1213.5831,-362.1 1219.5831,-362.1"/>
<text text-anchor="middle" x="1236" y="-395.1" font-family="Times,serif" font-size="14.00" fill="#000000">8 MFK</text>
<polyline fill="none" stroke="#000000" points="1207.5831,-386.9 1264.4169,-386.9 "/>
<text text-anchor="middle" x="1236" y="-370.3" font-family="Times,serif" font-size="14.00" fill="#000000">2h53m</text>
</g>
<!-- ADR&#45;&gt;MFK -->
<g id="edge33" class="edge">
<title>ADR&#45;&gt;MFK</title>
<path fill="none" stroke="#000000" d="M322.0024,-1026.831C296.3095,-969.9506 254.5514,-853.5614 294,-765.2 331.2345,-681.7981 362.7016,-663.1578 447,-628 519.7328,-597.6658 726.5031,-632.6988 801,-607 886.8239,-577.3938 883.9205,-522.4817 969,-490.8 1050.2739,-460.5355 1082.8288,-502.8752 1163,-469.8 1189.7688,-458.7563 1210.3566,-431.8985 1222.7418,-411.7246"/>
<polygon fill="#000000" stroke="#000000" points="318.9086,-1028.4796 326.2814,-1036.0883 325.2627,-1025.5426 318.9086,-1028.4796"/>
<text text-anchor="middle" x="315.5" y="-731.6" font-family="Times,serif" font-size="14.00" fill="#000000">4</text>
</g>
<!-- DCM -->
<g id="node27" class="node">
<title>DCM</title>
<path fill="none" stroke="#000000" d="M190.8061,-636.5C190.8061,-636.5 225.1939,-636.5 225.1939,-636.5 231.1939,-636.5 237.1939,-642.5 237.1939,-648.5 237.1939,-648.5 237.1939,-674.1 237.1939,-674.1 237.1939,-680.1 231.1939,-686.1 225.1939,-686.1 225.1939,-686.1 190.8061,-686.1 190.8061,-686.1 184.8061,-686.1 178.8061,-680.1 178.8061,-674.1 178.8061,-674.1 178.8061,-648.5 178.8061,-648.5 178.8061,-642.5 184.8061,-636.5 190.8061,-636.5"/>
<text text-anchor="middle" x="208" y="-669.5" font-family="Times,serif" font-size="14.00" fill="#000000">2 DCM</text>
<polyline fill="none" stroke="#000000" points="178.8061,-661.3 237.1939,-661.3 "/>
<text text-anchor="middle" x="208" y="-644.7" font-family="Times,serif" font-size="14.00" fill="#000000">12h</text>
</g>
<!-- ADR&#45;&gt;DCM -->
<g id="edge34" class="edge">
<title>ADR&#45;&gt;DCM</title>
<path fill="none" stroke="#000000" d="M298.4042,-1048.5384C278.0623,-1040.0738 255.0422,-1026.738 242,-1006.8 175.0215,-904.408 192.8875,-747.1531 203.156,-686.4285"/>
<polygon fill="#000000" stroke="#000000" points="297.2285,-1051.8365 307.8171,-1052.2005 299.7666,-1045.3128 297.2285,-1051.8365"/>
<text text-anchor="middle" x="200.5" y="-868.8" font-family="Times,serif" font-size="14.00" fill="#000000">2</text>
</g>
<!-- WR&#45;&gt;WAI -->
<g id="edge19" class="edge">
<title>WR&#45;&gt;WAI</title>
<path fill="none" stroke="#000000" d="M1559.4224,-933.6111C1619.5399,-928.6519 1739.2565,-912.0271 1822,-856.6 1837.348,-846.3189 1849.5009,-828.8673 1857.1112,-815.768"/>
<polygon fill="#000000" stroke="#000000" points="1558.965,-930.1356 1549.2593,-934.384 1559.496,-937.1155 1558.965,-930.1356"/>
<text text-anchor="middle" x="1810.5" y="-868.8" font-family="Times,serif" font-size="14.00" fill="#000000">1</text>
</g>
<!-- FLP -->
<g id="node14" class="node">
<title>FLP</title>
<path fill="none" stroke="#000000" d="M872,-362.1C872,-362.1 902,-362.1 902,-362.1 908,-362.1 914,-368.1 914,-374.1 914,-374.1 914,-399.7 914,-399.7 914,-405.7 908,-411.7 902,-411.7 902,-411.7 872,-411.7 872,-411.7 866,-411.7 860,-405.7 860,-399.7 860,-399.7 860,-374.1 860,-374.1 860,-368.1 866,-362.1 872,-362.1"/>
<text text-anchor="middle" x="886.8089" y="-395.1" font-family="Times,serif" font-size="14.00" fill="#000000">6 FLP</text>
<polyline fill="none" stroke="#000000" points="860,-386.9 913.6178,-386.9 "/>
<text text-anchor="middle" x="886.8089" y="-370.3" font-family="Times,serif" font-size="14.00" fill="#000000">12h</text>
</g>
<!-- WR&#45;&gt;FLP -->
<g id="edge14" class="edge">
<title>WR&#45;&gt;FLP</title>
<path fill="none" stroke="#000000" d="M1485.8082,-912.5144C1484.2047,-911.7593 1482.598,-911.0499 1481,-910.4 1379.338,-869.0555 1340.2075,-901.3548 1240,-856.6 1216.059,-845.9074 1062.6546,-741.1428 1048,-719.4 979.9432,-618.4252 1073.9444,-535.0832 984,-453 965.7541,-436.3488 950.1275,-457.7985 929,-445 916.119,-437.197 906.0316,-423.7905 898.9747,-411.8208"/>
<polygon fill="#000000" stroke="#000000" points="1484.3907,-915.7225 1494.876,-917.2425 1487.6272,-909.5156 1484.3907,-915.7225"/>
<text text-anchor="middle" x="1055" y="-657.1" font-family="Times,serif" font-size="14.00" fill="#000000">12</text>
</g>
<!-- FC -->
<g id="node15" class="node">
<title>FC</title>
<path fill="none" stroke="#000000" d="M705.5547,-362.1C705.5547,-362.1 736.4453,-362.1 736.4453,-362.1 742.4453,-362.1 748.4453,-368.1 748.4453,-374.1 748.4453,-374.1 748.4453,-399.7 748.4453,-399.7 748.4453,-405.7 742.4453,-411.7 736.4453,-411.7 736.4453,-411.7 705.5547,-411.7 705.5547,-411.7 699.5547,-411.7 693.5547,-405.7 693.5547,-399.7 693.5547,-399.7 693.5547,-374.1 693.5547,-374.1 693.5547,-368.1 699.5547,-362.1 705.5547,-362.1"/>
<text text-anchor="middle" x="721" y="-395.1" font-family="Times,serif" font-size="14.00" fill="#000000">1 FC</text>
<polyline fill="none" stroke="#000000" points="693.5547,-386.9 748.4453,-386.9 "/>
<text text-anchor="middle" x="721" y="-370.3" font-family="Times,serif" font-size="14.00" fill="#000000">9h36m</text>
</g>
<!-- WR&#45;&gt;FC -->
<g id="edge15" class="edge">
<title>WR&#45;&gt;FC</title>
<path fill="none" stroke="#000000" d="M1485.3248,-911.9677C1483.8869,-911.3915 1482.4428,-910.8653 1481,-910.4 1412.7257,-888.3838 908.627,-868.5574 837,-864.6 825.7307,-863.9774 642.7241,-863.7607 634,-856.6 591.321,-821.5696 605,-791.0143 605,-735.8 605,-735.8 605,-735.8 605,-524.1 605,-469.514 659.2068,-425.4437 693.5096,-403.0202"/>
<polygon fill="#000000" stroke="#000000" points="1484.1099,-915.2649 1494.646,-916.3795 1487.1046,-908.9378 1484.1099,-915.2649"/>
<text text-anchor="middle" x="608.5" y="-657.1" font-family="Times,serif" font-size="14.00" fill="#000000">1</text>
</g>
<!-- AWF -->
<g id="node16" class="node">
<title>AWF</title>
<path fill="none" stroke="#000000" d="M1666.0547,-773.7C1666.0547,-773.7 1703.9453,-773.7 1703.9453,-773.7 1709.9453,-773.7 1715.9453,-779.7 1715.9453,-785.7 1715.9453,-785.7 1715.9453,-811.3 1715.9453,-811.3 1715.9453,-817.3 1709.9453,-823.3 1703.9453,-823.3 1703.9453,-823.3 1666.0547,-823.3 1666.0547,-823.3 1660.0547,-823.3 1654.0547,-817.3 1654.0547,-811.3 1654.0547,-811.3 1654.0547,-785.7 1654.0547,-785.7 1654.0547,-779.7 1660.0547,-773.7 1666.0547,-773.7"/>
<text text-anchor="middle" x="1685" y="-806.7" font-family="Times,serif" font-size="14.00" fill="#000000">5 AWF</text>
<polyline fill="none" stroke="#000000" points="1654.0547,-798.5 1715.9453,-798.5 "/>
<text text-anchor="middle" x="1685" y="-781.9" font-family="Times,serif" font-size="14.00" fill="#000000">15h36m</text>
</g>
<!-- WR&#45;&gt;AWF -->
<g id="edge16" class="edge">
<title>WR&#45;&gt;AWF</title>
<path fill="none" stroke="#000000" d="M1559.3315,-931.7012C1592.4874,-926.1283 1639.7855,-912.8614 1667,-881.4 1680.7782,-865.4717 1684.78,-841.4712 1685.6284,-823.3868"/>
<polygon fill="#000000" stroke="#000000" points="1558.4682,-928.2921 1549.1069,-933.2535 1559.519,-935.2128 1558.4682,-928.2921"/>
<text text-anchor="middle" x="1679.5" y="-868.8" font-family="Times,serif" font-size="14.00" fill="#000000">1</text>
</g>
<!-- PCB -->
<g id="node17" class="node">
<title>PCB</title>
<path fill="none" stroke="#000000" d="M1514.8047,-499.3C1514.8047,-499.3 1549.1953,-499.3 1549.1953,-499.3 1555.1953,-499.3 1561.1953,-505.3 1561.1953,-511.3 1561.1953,-511.3 1561.1953,-536.9 1561.1953,-536.9 1561.1953,-542.9 1555.1953,-548.9 1549.1953,-548.9 1549.1953,-548.9 1514.8047,-548.9 1514.8047,-548.9 1508.8047,-548.9 1502.8047,-542.9 1502.8047,-536.9 1502.8047,-536.9 1502.8047,-511.3 1502.8047,-511.3 1502.8047,-505.3 1508.8047,-499.3 1514.8047,-499.3"/>
<text text-anchor="middle" x="1532" y="-532.3" font-family="Times,serif" font-size="14.00" fill="#000000">5 PCB</text>
<polyline fill="none" stroke="#000000" points="1502.8047,-524.1 1561.1953,-524.1 "/>
<text text-anchor="middle" x="1532" y="-507.5" font-family="Times,serif" font-size="14.00" fill="#000000">6h 43m</text>
</g>
<!-- WR&#45;&gt;PCB -->
<g id="edge17" class="edge">
<title>WR&#45;&gt;PCB</title>
<path fill="none" stroke="#000000" d="M1540.3275,-901.6981C1559.3417,-864.3323 1587.8284,-801.9295 1599,-744.2 1613.0014,-671.8474 1572.0204,-589.4615 1548.0365,-549.0852"/>
<polygon fill="#000000" stroke="#000000" points="1537.1886,-900.1486 1535.7138,-910.6403 1543.4094,-903.3583 1537.1886,-900.1486"/>
<text text-anchor="middle" x="1604.5" y="-731.6" font-family="Times,serif" font-size="14.00" fill="#000000">1</text>
</g>
<!-- SEN -->
<g id="node18" class="node">
<title>SEN</title>
<path fill="none" stroke="#000000" d="M1426.0291,-499.3C1426.0291,-499.3 1461.9709,-499.3 1461.9709,-499.3 1467.9709,-499.3 1473.9709,-505.3 1473.9709,-511.3 1473.9709,-511.3 1473.9709,-536.9 1473.9709,-536.9 1473.9709,-542.9 1467.9709,-548.9 1461.9709,-548.9 1461.9709,-548.9 1426.0291,-548.9 1426.0291,-548.9 1420.0291,-548.9 1414.0291,-542.9 1414.0291,-536.9 1414.0291,-536.9 1414.0291,-511.3 1414.0291,-511.3 1414.0291,-505.3 1420.0291,-499.3 1426.0291,-499.3"/>
<text text-anchor="middle" x="1444" y="-532.3" font-family="Times,serif" font-size="14.00" fill="#000000">20 SEN</text>
<polyline fill="none" stroke="#000000" points="1414.0291,-524.1 1473.9709,-524.1 "/>
<text text-anchor="middle" x="1444" y="-507.5" font-family="Times,serif" font-size="14.00" fill="#000000">6h 58m</text>
</g>
<!-- WR&#45;&gt;SEN -->
<g id="edge18" class="edge">
<title>WR&#45;&gt;SEN</title>
<path fill="none" stroke="#000000" d="M1525.6507,-900.445C1530.855,-835.8587 1535.2062,-695.5225 1489,-590.2 1482.6418,-575.7072 1473.0228,-561.0142 1464.3079,-549.1733"/>
<polygon fill="#000000" stroke="#000000" points="1522.1551,-900.2443 1524.7822,-910.5082 1529.1292,-900.8462 1522.1551,-900.2443"/>
<text text-anchor="middle" x="1527.5" y="-731.6" font-family="Times,serif" font-size="14.00" fill="#000000">1</text>
</g>
<!-- SAR -->
<g id="node11" class="node">
<title>SAR</title>
<path fill="none" stroke="#000000" d="M1436.5547,-636.5C1436.5547,-636.5 1467.4453,-636.5 1467.4453,-636.5 1473.4453,-636.5 1479.4453,-642.5 1479.4453,-648.5 1479.4453,-648.5 1479.4453,-674.1 1479.4453,-674.1 1479.4453,-680.1 1473.4453,-686.1 1467.4453,-686.1 1467.4453,-686.1 1436.5547,-686.1 1436.5547,-686.1 1430.5547,-686.1 1424.5547,-680.1 1424.5547,-674.1 1424.5547,-674.1 1424.5547,-648.5 1424.5547,-648.5 1424.5547,-642.5 1430.5547,-636.5 1436.5547,-636.5"/>
<text text-anchor="middle" x="1452" y="-669.5" font-family="Times,serif" font-size="14.00" fill="#000000">1 SAR</text>
<polyline fill="none" stroke="#000000" points="1424.5547,-661.3 1479.4453,-661.3 "/>
<text text-anchor="middle" x="1452" y="-644.7" font-family="Times,serif" font-size="14.00" fill="#000000">16h5m</text>
</g>
<!-- AIR&#45;&gt;SAR -->
<g id="edge25" class="edge">
<title>AIR&#45;&gt;SAR</title>
<path fill="none" stroke="#000000" d="M1440.6591,-900.6804C1443.3234,-844.4427 1448.4919,-735.348 1450.8167,-686.2767"/>
<polygon fill="#000000" stroke="#000000" points="1437.1538,-900.7104 1440.1766,-910.8649 1444.146,-901.0417 1437.1538,-900.7104"/>
<text text-anchor="middle" x="1450.5" y="-794.3" font-family="Times,serif" font-size="14.00" fill="#000000">1</text>
</g>
<!-- AIR&#45;&gt;WAI -->
<g id="edge23" class="edge">
<title>AIR&#45;&gt;WAI</title>
<path fill="none" stroke="#000000" d="M1475.4937,-912.8768C1477.3319,-911.9935 1479.1733,-911.1616 1481,-910.4 1557.59,-878.4685 1579.9383,-876.9099 1662,-864.6 1679.603,-861.9594 1806.2636,-864.9189 1822,-856.6 1838.5554,-847.8482 1850.6747,-829.797 1857.9538,-816.1239"/>
<polygon fill="#000000" stroke="#000000" points="1473.6464,-909.8932 1466.4103,-917.632 1476.893,-916.0947 1473.6464,-909.8932"/>
<text text-anchor="middle" x="1665.5" y="-868.8" font-family="Times,serif" font-size="14.00" fill="#000000">1</text>
</g>
<!-- AIR&#45;&gt;FC -->
<g id="edge27" class="edge">
<title>AIR&#45;&gt;FC</title>
<path fill="none" stroke="#000000" d="M1401.9611,-934.5569C1301.3663,-930.7024 1026.2599,-914.9408 961,-856.6 878.0568,-782.4508 944.428,-699.2722 859,-628 828.7884,-602.7946 800.7168,-634.9254 773,-607 720.1705,-553.773 717.2264,-457.4507 719.1372,-411.9685"/>
<polygon fill="#000000" stroke="#000000" points="1401.847,-938.055 1411.9683,-934.9227 1402.1029,-931.0596 1401.847,-938.055"/>
<text text-anchor="middle" x="911.5" y="-657.1" font-family="Times,serif" font-size="14.00" fill="#000000">1</text>
</g>
<!-- AIR&#45;&gt;PCB -->
<g id="edge24" class="edge">
<title>AIR&#45;&gt;PCB</title>
<path fill="none" stroke="#000000" d="M1448.9922,-900.7998C1452.8527,-887.0546 1457.2375,-871.1135 1461,-856.6 1476.7385,-795.89 1480.6743,-780.6848 1494,-719.4 1507.2474,-658.4751 1520.7051,-586.3733 1527.4907,-549.1437"/>
<polygon fill="#000000" stroke="#000000" points="1445.5112,-900.2478 1446.1612,-910.8227 1452.2477,-902.1506 1445.5112,-900.2478"/>
<text text-anchor="middle" x="1495.5" y="-731.6" font-family="Times,serif" font-size="14.00" fill="#000000">1</text>
</g>
<!-- HCP -->
<g id="node19" class="node">
<title>HCP</title>
<ellipse fill="none" stroke="#000000" cx="1106" cy="-661.3" rx="29.6339" ry="18"/>
<text text-anchor="middle" x="1106" y="-657.1" font-family="Times,serif" font-size="14.00" fill="#000000">HCP</text>
</g>
<!-- AIR&#45;&gt;HCP -->
<g id="edge20" class="edge">
<title>AIR&#45;&gt;HCP</title>
<path fill="none" stroke="#000000" d="M1402.0081,-928.1164C1358.2286,-917.7356 1284.7546,-895.7657 1233,-856.6 1168.9821,-808.1538 1127.8857,-717.4167 1112.654,-679.1"/>
<polygon fill="#000000" stroke="#000000" points="1401.4091,-931.5698 1411.9383,-930.3925 1402.973,-924.7467 1401.4091,-931.5698"/>
<text text-anchor="middle" x="1236.5" y="-794.3" font-family="Times,serif" font-size="14.00" fill="#000000">1</text>
</g>
<!-- NS -->
<g id="node20" class="node">
<title>NS</title>
<path fill="none" stroke="#000000" d="M751.5547,-773.7C751.5547,-773.7 782.4453,-773.7 782.4453,-773.7 788.4453,-773.7 794.4453,-779.7 794.4453,-785.7 794.4453,-785.7 794.4453,-811.3 794.4453,-811.3 794.4453,-817.3 788.4453,-823.3 782.4453,-823.3 782.4453,-823.3 751.5547,-823.3 751.5547,-823.3 745.5547,-823.3 739.5547,-817.3 739.5547,-811.3 739.5547,-811.3 739.5547,-785.7 739.5547,-785.7 739.5547,-779.7 745.5547,-773.7 751.5547,-773.7"/>
<text text-anchor="middle" x="767" y="-806.7" font-family="Times,serif" font-size="14.00" fill="#000000">4 NS</text>
<polyline fill="none" stroke="#000000" points="739.5547,-798.5 794.4453,-798.5 "/>
<text text-anchor="middle" x="767" y="-781.9" font-family="Times,serif" font-size="14.00" fill="#000000">4h48m</text>
</g>
<!-- AIR&#45;&gt;NS -->
<g id="edge21" class="edge">
<title>AIR&#45;&gt;NS</title>
<path fill="none" stroke="#000000" d="M1401.3153,-934.2549C1275.1677,-929.1612 872.83,-910.7509 823,-881.4 800.8514,-868.354 785.5953,-842.6849 776.665,-823.3485"/>
<polygon fill="#000000" stroke="#000000" points="1401.4942,-937.7647 1411.6258,-934.6663 1401.7733,-930.7703 1401.4942,-937.7647"/>
<text text-anchor="middle" x="826.5" y="-868.8" font-family="Times,serif" font-size="14.00" fill="#000000">1</text>
</g>
<!-- H2O -->
<g id="node21" class="node">
<title>H2O</title>
<ellipse fill="none" stroke="#000000" cx="815" cy="-661.3" rx="29.6166" ry="18"/>
<text text-anchor="middle" x="815" y="-657.1" font-family="Times,serif" font-size="14.00" fill="#000000">H2O</text>
</g>
<!-- AIR&#45;&gt;H2O -->
<g id="edge22" class="edge">
<title>AIR&#45;&gt;H2O</title>
<path fill="none" stroke="#000000" d="M1401.7819,-934.4535C1283.4357,-930.1675 921.1814,-914.4441 881,-881.4 818.6059,-830.0887 813.6246,-722.2356 814.2677,-679.3974"/>
<polygon fill="#000000" stroke="#000000" points="1401.6971,-937.9527 1411.8152,-934.8105 1401.946,-930.9571 1401.6971,-937.9527"/>
<text text-anchor="middle" x="858.5" y="-794.3" font-family="Times,serif" font-size="14.00" fill="#000000">1</text>
</g>
<!-- GV -->
<g id="node22" class="node">
<title>GV</title>
<path fill="none" stroke="#000000" d="M789,-362.1C789,-362.1 819,-362.1 819,-362.1 825,-362.1 831,-368.1 831,-374.1 831,-374.1 831,-399.7 831,-399.7 831,-405.7 825,-411.7 819,-411.7 819,-411.7 789,-411.7 789,-411.7 783,-411.7 777,-405.7 777,-399.7 777,-399.7 777,-374.1 777,-374.1 777,-368.1 783,-362.1 789,-362.1"/>
<text text-anchor="middle" x="803.8566" y="-395.1" font-family="Times,serif" font-size="14.00" fill="#000000">1 GV</text>
<polyline fill="none" stroke="#000000" points="777,-386.9 830.7132,-386.9 "/>
<text text-anchor="middle" x="803.8566" y="-370.3" font-family="Times,serif" font-size="14.00" fill="#000000">6h</text>
</g>
<!-- AIR&#45;&gt;GV -->
<g id="edge26" class="edge">
<title>AIR&#45;&gt;GV</title>
<path fill="none" stroke="#000000" d="M1401.9063,-932.9237C1290.7457,-923.5959 968,-888.743 968,-798.5 968,-798.5 968,-798.5 968,-524.1 968,-459.4783 892.838,-489.5215 846,-445 835.8061,-435.3103 826.4282,-422.8546 819.1322,-411.9627"/>
<polygon fill="#000000" stroke="#000000" points="1401.7333,-936.4211 1411.9853,-933.7477 1402.3038,-929.4444 1401.7333,-936.4211"/>
<text text-anchor="middle" x="971.5" y="-657.1" font-family="Times,serif" font-size="14.00" fill="#000000">1</text>
</g>
<!-- BAC -->
<g id="node23" class="node">
<title>BAC</title>
<path fill="none" stroke="#000000" d="M1266.8601,-773.7C1266.8601,-773.7 1305.1399,-773.7 1305.1399,-773.7 1311.1399,-773.7 1317.1399,-779.7 1317.1399,-785.7 1317.1399,-785.7 1317.1399,-811.3 1317.1399,-811.3 1317.1399,-817.3 1311.1399,-823.3 1305.1399,-823.3 1305.1399,-823.3 1266.8601,-823.3 1266.8601,-823.3 1260.8601,-823.3 1254.8601,-817.3 1254.8601,-811.3 1254.8601,-811.3 1254.8601,-785.7 1254.8601,-785.7 1254.8601,-779.7 1260.8601,-773.7 1266.8601,-773.7"/>
<text text-anchor="middle" x="1286" y="-806.7" font-family="Times,serif" font-size="14.00" fill="#000000">10 BAC</text>
<polyline fill="none" stroke="#000000" points="1254.8601,-798.5 1317.1399,-798.5 "/>
<text text-anchor="middle" x="1286" y="-781.9" font-family="Times,serif" font-size="14.00" fill="#000000">2d5h</text>
</g>
<!-- AIR&#45;&gt;BAC -->
<g id="edge28" class="edge">
<title>AIR&#45;&gt;BAC</title>
<path fill="none" stroke="#000000" d="M1404.2097,-904.5024C1376.8197,-879.9409 1339.1551,-846.1659 1313.764,-823.3968"/>
<polygon fill="#000000" stroke="#000000" points="1402.2171,-907.4168 1411.9989,-911.4872 1406.8905,-902.2052 1402.2171,-907.4168"/>
<text text-anchor="middle" x="1379.5" y="-868.8" font-family="Times,serif" font-size="14.00" fill="#000000">1</text>
</g>
<!-- SAR&#45;&gt;PCB -->
<g id="edge30" class="edge">
<title>SAR&#45;&gt;PCB</title>
<path fill="none" stroke="#000000" d="M1471.6539,-627.5935C1485.7813,-603.3651 1504.5234,-571.2224 1517.35,-549.2247"/>
<polygon fill="#000000" stroke="#000000" points="1468.501,-626.0524 1466.4874,-636.4541 1474.5481,-629.5784 1468.501,-626.0524"/>
<text text-anchor="middle" x="1495.5" y="-594.4" font-family="Times,serif" font-size="14.00" fill="#000000">4</text>
</g>
<!-- SAR&#45;&gt;SEN -->
<g id="edge29" class="edge">
<title>SAR&#45;&gt;SEN</title>
<path fill="none" stroke="#000000" d="M1436.4515,-626.6932C1434.19,-620.2662 1432.2169,-613.5205 1431,-607 1427.3917,-587.6667 1431.2043,-565.6702 1435.6144,-549.1958"/>
<polygon fill="#000000" stroke="#000000" points="1433.3402,-628.3572 1440.1755,-636.4523 1439.8802,-625.8616 1433.3402,-628.3572"/>
<text text-anchor="middle" x="1438" y="-594.4" font-family="Times,serif" font-size="14.00" fill="#000000">16</text>
</g>
<!-- TPU -->
<g id="node30" class="node">
<title>TPU</title>
<path fill="none" stroke="#000000" d="M1602.0547,-499.3C1602.0547,-499.3 1639.9453,-499.3 1639.9453,-499.3 1645.9453,-499.3 1651.9453,-505.3 1651.9453,-511.3 1651.9453,-511.3 1651.9453,-536.9 1651.9453,-536.9 1651.9453,-542.9 1645.9453,-548.9 1639.9453,-548.9 1639.9453,-548.9 1602.0547,-548.9 1602.0547,-548.9 1596.0547,-548.9 1590.0547,-542.9 1590.0547,-536.9 1590.0547,-536.9 1590.0547,-511.3 1590.0547,-511.3 1590.0547,-505.3 1596.0547,-499.3 1602.0547,-499.3"/>
<text text-anchor="middle" x="1621" y="-532.3" font-family="Times,serif" font-size="14.00" fill="#000000">4 TPU</text>
<polyline fill="none" stroke="#000000" points="1590.0547,-524.1 1651.9453,-524.1 "/>
<text text-anchor="middle" x="1621" y="-507.5" font-family="Times,serif" font-size="14.00" fill="#000000">15h36m</text>
</g>
<!-- BMF&#45;&gt;TPU -->
<g id="edge51" class="edge">
<title>BMF&#45;&gt;TPU</title>
<path fill="none" stroke="#000000" d="M1754.7197,-764.764C1746.1629,-750.8616 1736.363,-734.5006 1728,-719.4 1696.8575,-663.1681 1694.7205,-646.1078 1663,-590.2 1655.1499,-576.3641 1645.7024,-561.3683 1637.7574,-549.1628"/>
<polygon fill="#000000" stroke="#000000" points="1751.894,-766.849 1760.1356,-773.5069 1757.8448,-763.1626 1751.894,-766.849"/>
<text text-anchor="middle" x="1731.5" y="-657.1" font-family="Times,serif" font-size="14.00" fill="#000000">1</text>
</g>
<!-- FAN -->
<g id="node41" class="node">
<title>FAN</title>
<ellipse fill="none" stroke="#000000" cx="1870" cy="-661.3" rx="30.1958" ry="18"/>
<text text-anchor="middle" x="1870" y="-657.1" font-family="Times,serif" font-size="14.00" fill="#000000">FAN</text>
</g>
<!-- BMF&#45;&gt;FAN -->
<g id="edge52" class="edge">
<title>BMF&#45;&gt;FAN</title>
<path fill="none" stroke="#000000" d="M1798.8675,-765.1232C1817.7092,-737.6223 1843.6516,-699.7575 1858.4377,-678.176"/>
<polygon fill="#000000" stroke="#000000" points="1795.7874,-763.4263 1793.0227,-773.6541 1801.5621,-767.3828 1795.7874,-763.4263"/>
<text text-anchor="middle" x="1826.5" y="-731.6" font-family="Times,serif" font-size="14.00" fill="#000000">1</text>
</g>
<!-- MB -->
<g id="node42" class="node">
<title>MB</title>
<ellipse fill="none" stroke="#000000" cx="1956" cy="-661.3" rx="27" ry="18"/>
<text text-anchor="middle" x="1956" y="-657.1" font-family="Times,serif" font-size="14.00" fill="#000000">MB</text>
</g>
<!-- BMF&#45;&gt;MB -->
<g id="edge53" class="edge">
<title>BMF&#45;&gt;MB</title>
<path fill="none" stroke="#000000" d="M1815.2888,-768.798C1817.1997,-767.5525 1819.1095,-766.3467 1821,-765.2 1860.7348,-741.0986 1879.6004,-749.5098 1915,-719.4 1928.5415,-707.882 1939.8215,-690.9385 1947.0995,-678.3176"/>
<polygon fill="#000000" stroke="#000000" points="1813.2689,-765.9389 1806.9613,-774.4516 1817.2008,-771.7303 1813.2689,-765.9389"/>
<text text-anchor="middle" x="1905.5" y="-731.6" font-family="Times,serif" font-size="14.00" fill="#000000">1</text>
</g>
<!-- DCL -->
<g id="node43" class="node">
<title>DCL</title>
<ellipse fill="none" stroke="#000000" cx="1780" cy="-661.3" rx="30.1958" ry="18"/>
<text text-anchor="middle" x="1780" y="-657.1" font-family="Times,serif" font-size="14.00" fill="#000000">DCL</text>
</g>
<!-- BMF&#45;&gt;DCL -->
<g id="edge54" class="edge">
<title>BMF&#45;&gt;DCL</title>
<path fill="none" stroke="#000000" d="M1777.0203,-763.5054C1777.8026,-736.6723 1778.8505,-700.7287 1779.4724,-679.3953"/>
<polygon fill="#000000" stroke="#000000" points="1773.5174,-763.5563 1776.7244,-773.6541 1780.5144,-763.7604 1773.5174,-763.5563"/>
<text text-anchor="middle" x="1781.5" y="-731.6" font-family="Times,serif" font-size="14.00" fill="#000000">1</text>
</g>
<!-- AL -->
<g id="node44" class="node">
<title>AL</title>
<ellipse fill="none" stroke="#000000" cx="927" cy="-261.5" rx="27" ry="18"/>
<text text-anchor="middle" x="927" y="-257.3" font-family="Times,serif" font-size="14.00" fill="#000000">AL</text>
</g>
<!-- FLP&#45;&gt;AL -->
<g id="edge81" class="edge">
<title>FLP&#45;&gt;AL</title>
<path fill="none" stroke="#000000" d="M898.0866,-352.1436C905.6358,-328.4767 915.3152,-298.132 921.3376,-279.2516"/>
<polygon fill="#000000" stroke="#000000" points="894.703,-351.2341 894.9985,-361.8248 901.3719,-353.3614 894.703,-351.2341"/>
<text text-anchor="middle" x="912.5" y="-320" font-family="Times,serif" font-size="14.00" fill="#000000">1</text>
</g>
<!-- FE -->
<g id="node48" class="node">
<title>FE</title>
<ellipse fill="none" stroke="#000000" cx="1037" cy="-261.5" rx="27" ry="18"/>
<text text-anchor="middle" x="1037" y="-257.3" font-family="Times,serif" font-size="14.00" fill="#000000">FE</text>
</g>
<!-- FLP&#45;&gt;FE -->
<g id="edge80" class="edge">
<title>FLP&#45;&gt;FE</title>
<path fill="none" stroke="#000000" d="M921.9184,-357.6833C937.2775,-344.8342 955.5335,-329.5648 972,-315.8 988.2457,-302.2198 1006.7814,-286.7365 1019.8906,-275.7879"/>
<polygon fill="#000000" stroke="#000000" points="919.5995,-355.0599 914.1754,-364.1611 924.0911,-360.4289 919.5995,-355.0599"/>
<text text-anchor="middle" x="975.5" y="-320" font-family="Times,serif" font-size="14.00" fill="#000000">1</text>
</g>
<!-- HE -->
<g id="node55" class="node">
<title>HE</title>
<ellipse fill="none" stroke="#000000" cx="804" cy="-261.5" rx="27" ry="18"/>
<text text-anchor="middle" x="804" y="-257.3" font-family="Times,serif" font-size="14.00" fill="#000000">HE</text>
</g>
<!-- FLP&#45;&gt;HE -->
<g id="edge82" class="edge">
<title>FLP&#45;&gt;HE</title>
<path fill="none" stroke="#000000" d="M862.5058,-353.5567C857.6138,-346.6866 852.5756,-339.4559 848,-332.6 835.832,-314.368 822.7101,-292.9073 813.9931,-278.3699"/>
<polygon fill="#000000" stroke="#000000" points="859.9017,-355.9306 868.5784,-362.0104 865.5869,-351.8467 859.9017,-355.9306"/>
<text text-anchor="middle" x="851.5" y="-320" font-family="Times,serif" font-size="14.00" fill="#000000">1</text>
</g>
<!-- FC&#45;&gt;AL -->
<g id="edge75" class="edge">
<title>FC&#45;&gt;AL</title>
<path fill="none" stroke="#000000" d="M747.2648,-354.2792C759.2204,-341.0056 774.2168,-326.3419 790,-315.8 825.5301,-292.0686 873.0052,-276.1918 901.7209,-268.0207"/>
<polygon fill="#000000" stroke="#000000" points="744.5519,-352.0644 740.5939,-361.8922 749.8167,-356.6776 744.5519,-352.0644"/>
<text text-anchor="middle" x="793.5" y="-320" font-family="Times,serif" font-size="14.00" fill="#000000">1</text>
</g>
<!-- FC&#45;&gt;HE -->
<g id="edge76" class="edge">
<title>FC&#45;&gt;HE</title>
<path fill="none" stroke="#000000" d="M716.894,-351.793C717.0111,-339.7217 718.9523,-326.551 725,-315.8 737.1577,-294.1873 761.9251,-279.3384 780.5053,-270.7014"/>
<polygon fill="#000000" stroke="#000000" points="713.4028,-352.1399 717.2034,-362.0295 720.3996,-351.9283 713.4028,-352.1399"/>
<text text-anchor="middle" x="728.5" y="-320" font-family="Times,serif" font-size="14.00" fill="#000000">1</text>
</g>
<!-- BSE -->
<g id="node56" class="node">
<title>BSE</title>
<ellipse fill="none" stroke="#000000" cx="681" cy="-261.5" rx="28.991" ry="18"/>
<text text-anchor="middle" x="681" y="-257.3" font-family="Times,serif" font-size="14.00" fill="#000000">BSE</text>
</g>
<!-- FC&#45;&gt;BSE -->
<g id="edge77" class="edge">
<title>FC&#45;&gt;BSE</title>
<path fill="none" stroke="#000000" d="M694.0254,-353.3762C689.9764,-346.8172 686.3695,-339.7464 684,-332.6 678.2455,-315.2441 678.142,-294.1923 679.0788,-279.5188"/>
<polygon fill="#000000" stroke="#000000" points="691.2885,-355.5808 699.7459,-361.9623 697.1139,-351.6995 691.2885,-355.5808"/>
<text text-anchor="middle" x="687.5" y="-320" font-family="Times,serif" font-size="14.00" fill="#000000">1</text>
</g>
<!-- SWF -->
<g id="node31" class="node">
<title>SWF</title>
<path fill="none" stroke="#000000" d="M1037.8601,-362.1C1037.8601,-362.1 1076.1399,-362.1 1076.1399,-362.1 1082.1399,-362.1 1088.1399,-368.1 1088.1399,-374.1 1088.1399,-374.1 1088.1399,-399.7 1088.1399,-399.7 1088.1399,-405.7 1082.1399,-411.7 1076.1399,-411.7 1076.1399,-411.7 1037.8601,-411.7 1037.8601,-411.7 1031.8601,-411.7 1025.8601,-405.7 1025.8601,-399.7 1025.8601,-399.7 1025.8601,-374.1 1025.8601,-374.1 1025.8601,-368.1 1031.8601,-362.1 1037.8601,-362.1"/>
<text text-anchor="middle" x="1057" y="-395.1" font-family="Times,serif" font-size="14.00" fill="#000000">30 SWF</text>
<polyline fill="none" stroke="#000000" points="1025.8601,-386.9 1088.1399,-386.9 "/>
<text text-anchor="middle" x="1057" y="-370.3" font-family="Times,serif" font-size="14.00" fill="#000000">12h</text>
</g>
<!-- PCB&#45;&gt;SWF -->
<g id="edge40" class="edge">
<title>PCB&#45;&gt;SWF</title>
<path fill="none" stroke="#000000" d="M1494.4914,-493.6593C1492.3561,-492.5837 1490.1868,-491.6189 1488,-490.8 1424.3762,-466.9754 1249.783,-482.2753 1183,-469.8 1146.4082,-462.9645 1133.7049,-466.0451 1103,-445 1090.4777,-436.4172 1079.7261,-423.4026 1071.7733,-411.8652"/>
<polygon fill="#000000" stroke="#000000" points="1493.1847,-496.9496 1503.5842,-498.9749 1496.7175,-490.9064 1493.1847,-496.9496"/>
<text text-anchor="middle" x="1190" y="-457.2" font-family="Times,serif" font-size="14.00" fill="#000000">10</text>
</g>
<!-- BCO -->
<g id="node32" class="node">
<title>BCO</title>
<path fill="none" stroke="#000000" d="M1392.8601,-362.1C1392.8601,-362.1 1431.1399,-362.1 1431.1399,-362.1 1437.1399,-362.1 1443.1399,-368.1 1443.1399,-374.1 1443.1399,-374.1 1443.1399,-399.7 1443.1399,-399.7 1443.1399,-405.7 1437.1399,-411.7 1431.1399,-411.7 1431.1399,-411.7 1392.8601,-411.7 1392.8601,-411.7 1386.8601,-411.7 1380.8601,-405.7 1380.8601,-399.7 1380.8601,-399.7 1380.8601,-374.1 1380.8601,-374.1 1380.8601,-368.1 1386.8601,-362.1 1392.8601,-362.1"/>
<text text-anchor="middle" x="1412" y="-395.1" font-family="Times,serif" font-size="14.00" fill="#000000">10 BCO</text>
<polyline fill="none" stroke="#000000" points="1380.8601,-386.9 1443.1399,-386.9 "/>
<text text-anchor="middle" x="1412" y="-370.3" font-family="Times,serif" font-size="14.00" fill="#000000">7h 12m</text>
</g>
<!-- PCB&#45;&gt;BCO -->
<g id="edge41" class="edge">
<title>PCB&#45;&gt;BCO</title>
<path fill="none" stroke="#000000" d="M1523.2271,-489.1918C1518.2147,-475.9935 1510.5452,-462.0017 1499,-453 1484.0144,-441.3159 1473.1999,-454.9323 1457,-445 1443.9477,-436.9975 1433.2443,-423.7313 1425.5555,-411.8944"/>
<polygon fill="#000000" stroke="#000000" points="1520.038,-490.6865 1526.5623,-499.0342 1526.6677,-488.4399 1520.038,-490.6865"/>
<text text-anchor="middle" x="1515.5" y="-457.2" font-family="Times,serif" font-size="14.00" fill="#000000">5</text>
</g>
<!-- PE -->
<g id="node33" class="node">
<title>PE</title>
<ellipse fill="none" stroke="#000000" cx="1721" cy="-261.5" rx="27" ry="18"/>
<text text-anchor="middle" x="1721" y="-257.3" font-family="Times,serif" font-size="14.00" fill="#000000">PE</text>
</g>
<!-- PCB&#45;&gt;PE -->
<g id="edge42" class="edge">
<title>PCB&#45;&gt;PE</title>
<path fill="none" stroke="#000000" d="M1569.6026,-495.2492C1595.6491,-475.1132 1626.5823,-450.8382 1632,-445 1673.0192,-400.7969 1685.2021,-388.4279 1708,-332.6 1715.0211,-315.4067 1718.269,-294.3295 1719.7598,-279.6057"/>
<polygon fill="#000000" stroke="#000000" points="1567.1348,-492.7326 1561.3562,-501.6128 1571.4113,-498.2744 1567.1348,-492.7326"/>
<text text-anchor="middle" x="1705" y="-382.7" font-family="Times,serif" font-size="14.00" fill="#000000">60</text>
</g>
<!-- BGO -->
<g id="node34" class="node">
<title>BGO</title>
<path fill="none" stroke="#000000" d="M1305.8047,-362.1C1305.8047,-362.1 1340.1953,-362.1 1340.1953,-362.1 1346.1953,-362.1 1352.1953,-368.1 1352.1953,-374.1 1352.1953,-374.1 1352.1953,-399.7 1352.1953,-399.7 1352.1953,-405.7 1346.1953,-411.7 1340.1953,-411.7 1340.1953,-411.7 1305.8047,-411.7 1305.8047,-411.7 1299.8047,-411.7 1293.8047,-405.7 1293.8047,-399.7 1293.8047,-399.7 1293.8047,-374.1 1293.8047,-374.1 1293.8047,-368.1 1299.8047,-362.1 1305.8047,-362.1"/>
<text text-anchor="middle" x="1323" y="-395.1" font-family="Times,serif" font-size="14.00" fill="#000000">5 BGO</text>
<polyline fill="none" stroke="#000000" points="1293.8047,-386.9 1352.1953,-386.9 "/>
<text text-anchor="middle" x="1323" y="-370.3" font-family="Times,serif" font-size="14.00" fill="#000000">9h 36m</text>
</g>
<!-- PCB&#45;&gt;BGO -->
<g id="edge43" class="edge">
<title>PCB&#45;&gt;BGO</title>
<path fill="none" stroke="#000000" d="M1493.9395,-494.2879C1491.9631,-493.0598 1489.9772,-491.8891 1488,-490.8 1437.2701,-462.8558 1412.233,-479.8842 1366,-445 1354.2798,-436.1567 1344.2909,-423.261 1336.8988,-411.8641"/>
<polygon fill="#000000" stroke="#000000" points="1492.2198,-497.3474 1502.4864,-499.9645 1496.0927,-491.5163 1492.2198,-497.3474"/>
<text text-anchor="middle" x="1423.5" y="-457.2" font-family="Times,serif" font-size="14.00" fill="#000000">1</text>
</g>
<!-- TRN -->
<g id="node35" class="node">
<title>TRN</title>
<path fill="none" stroke="#000000" d="M1129.2521,-362.1C1129.2521,-362.1 1166.7479,-362.1 1166.7479,-362.1 1172.7479,-362.1 1178.7479,-368.1 1178.7479,-374.1 1178.7479,-374.1 1178.7479,-399.7 1178.7479,-399.7 1178.7479,-405.7 1172.7479,-411.7 1166.7479,-411.7 1166.7479,-411.7 1129.2521,-411.7 1129.2521,-411.7 1123.2521,-411.7 1117.2521,-405.7 1117.2521,-399.7 1117.2521,-399.7 1117.2521,-374.1 1117.2521,-374.1 1117.2521,-368.1 1123.2521,-362.1 1129.2521,-362.1"/>
<text text-anchor="middle" x="1148" y="-395.1" font-family="Times,serif" font-size="14.00" fill="#000000">10 TRN</text>
<polyline fill="none" stroke="#000000" points="1117.2521,-386.9 1178.7479,-386.9 "/>
<text text-anchor="middle" x="1148" y="-370.3" font-family="Times,serif" font-size="14.00" fill="#000000">6h</text>
</g>
<!-- SEN&#45;&gt;TRN -->
<g id="edge44" class="edge">
<title>SEN&#45;&gt;TRN</title>
<path fill="none" stroke="#000000" d="M1403.6973,-518.5392C1359.1566,-511.3675 1286.0442,-496.5166 1228,-469.8 1200.9285,-457.3395 1178.2691,-431.3006 1164.0566,-411.7105"/>
<polygon fill="#000000" stroke="#000000" points="1403.4167,-522.0376 1413.8362,-520.1181 1404.4939,-515.121 1403.4167,-522.0376"/>
<text text-anchor="middle" x="1235" y="-457.2" font-family="Times,serif" font-size="14.00" fill="#000000">20</text>
</g>
<!-- H -->
<g id="node36" class="node">
<title>H</title>
<ellipse fill="none" stroke="#000000" cx="1590" cy="-386.9" rx="27" ry="18"/>
<text text-anchor="middle" x="1590" y="-382.7" font-family="Times,serif" font-size="14.00" fill="#000000">H</text>
</g>
<!-- SEN&#45;&gt;H -->
<g id="edge45" class="edge">
<title>SEN&#45;&gt;H</title>
<path fill="none" stroke="#000000" d="M1453.674,-489.3852C1459.1982,-475.9078 1467.5785,-461.6588 1480,-453 1505.3261,-435.3457 1522.4551,-460.7624 1549,-445 1564.6042,-435.7343 1575.8067,-417.9525 1582.5175,-404.49"/>
<polygon fill="#000000" stroke="#000000" points="1450.315,-488.3781 1450.1393,-498.9715 1456.8828,-490.7999 1450.315,-488.3781"/>
<text text-anchor="middle" x="1487" y="-457.2" font-family="Times,serif" font-size="14.00" fill="#000000">10</text>
</g>
<!-- N -->
<g id="node37" class="node">
<title>N</title>
<ellipse fill="#ffff00" stroke="#000000" cx="970" cy="-386.9" rx="27" ry="18"/>
<text text-anchor="middle" x="970" y="-382.7" font-family="Times,serif" font-size="14.00" fill="#000000">N</text>
</g>
<!-- SEN&#45;&gt;N -->
<g id="edge46" class="edge">
<title>SEN&#45;&gt;N</title>
<path fill="none" stroke="#000000" d="M1403.8943,-520.7604C1317.1158,-513.1811 1114.5492,-493.485 1050,-469.8 1030.7162,-462.7242 1025.87,-459.171 1011,-445 998.3093,-432.9059 987.0826,-416.3526 979.6003,-404.0081"/>
<polygon fill="#000000" stroke="#000000" points="1403.6217,-524.2498 1413.886,-521.6241 1404.2246,-517.2758 1403.6217,-524.2498"/>
<text text-anchor="middle" x="1057" y="-457.2" font-family="Times,serif" font-size="14.00" fill="#000000">10</text>
</g>
<!-- NS&#45;&gt;H2O -->
<g id="edge72" class="edge">
<title>NS&#45;&gt;H2O</title>
<path fill="none" stroke="#000000" d="M779.0142,-764.1593C788.4856,-737.0871 801.3074,-700.4379 808.8128,-678.9852"/>
<polygon fill="#000000" stroke="#000000" points="775.6911,-763.0593 775.6924,-773.6541 782.2984,-765.3709 775.6911,-763.0593"/>
<text text-anchor="middle" x="794.5" y="-731.6" font-family="Times,serif" font-size="14.00" fill="#000000">2</text>
</g>
<!-- NS&#45;&gt;N -->
<g id="edge73" class="edge">
<title>NS&#45;&gt;N</title>
<path fill="none" stroke="#000000" d="M761.0749,-763.1706C756.6592,-727.7229 753.9694,-672.1922 771,-628 809.64,-527.7342 862.8326,-529.6649 929,-445 939.6429,-431.3819 950.9071,-415.2825 958.93,-403.4885"/>
<polygon fill="#000000" stroke="#000000" points="757.663,-764.056 762.4807,-773.4921 764.599,-763.1112 757.663,-764.056"/>
<text text-anchor="middle" x="790.5" y="-594.4" font-family="Times,serif" font-size="14.00" fill="#000000">2</text>
</g>
<!-- LST -->
<g id="node54" class="node">
<title>LST</title>
<ellipse fill="none" stroke="#000000" cx="669" cy="-661.3" rx="28.4088" ry="18"/>
<text text-anchor="middle" x="669" y="-657.1" font-family="Times,serif" font-size="14.00" fill="#000000">LST</text>
</g>
<!-- NS&#45;&gt;LST -->
<g id="edge74" class="edge">
<title>NS&#45;&gt;LST</title>
<path fill="none" stroke="#000000" d="M732.3502,-767.5999C725.1636,-760.316 717.9707,-752.301 712,-744.2 696.6091,-723.3177 683.66,-696.1555 676.1125,-678.7204"/>
<polygon fill="#000000" stroke="#000000" points="729.9037,-770.1029 739.4891,-774.6164 734.8104,-765.1105 729.9037,-770.1029"/>
<text text-anchor="middle" x="715.5" y="-731.6" font-family="Times,serif" font-size="14.00" fill="#000000">1</text>
</g>
<!-- GV&#45;&gt;AL -->
<g id="edge78" class="edge">
<title>GV&#45;&gt;AL</title>
<path fill="none" stroke="#000000" d="M835.6121,-354.6711C860.212,-329.5912 893.2414,-295.9173 912.1117,-276.6788"/>
<polygon fill="#000000" stroke="#000000" points="833.099,-352.2349 828.5953,-361.8248 838.0964,-357.1366 833.099,-352.2349"/>
<text text-anchor="middle" x="875.5" y="-320" font-family="Times,serif" font-size="14.00" fill="#000000">1</text>
</g>
<!-- GV&#45;&gt;HE -->
<g id="edge79" class="edge">
<title>GV&#45;&gt;HE</title>
<path fill="none" stroke="#000000" d="M804,-351.5714C804,-328.1483 804,-298.3842 804,-279.6317"/>
<polygon fill="#000000" stroke="#000000" points="800.5001,-351.8248 804,-361.8248 807.5001,-351.8249 800.5001,-351.8248"/>
<text text-anchor="middle" x="807.5" y="-320" font-family="Times,serif" font-size="14.00" fill="#000000">1</text>
</g>
<!-- BAC&#45;&gt;HCP -->
<g id="edge68" class="edge">
<title>BAC&#45;&gt;HCP</title>
<path fill="none" stroke="#000000" d="M1244.9893,-782.74C1222.9068,-773.2645 1195.8039,-759.9847 1174,-744.2 1161.5756,-735.2055 1159.9816,-731.0462 1150,-719.4 1138.4724,-705.95 1126.3939,-689.8348 1117.8147,-677.9921"/>
<polygon fill="#000000" stroke="#000000" points="1243.8536,-786.0588 1254.4295,-786.6924 1246.557,-779.6019 1243.8536,-786.0588"/>
<text text-anchor="middle" x="1177.5" y="-731.6" font-family="Times,serif" font-size="14.00" fill="#000000">1</text>
</g>
<!-- S -->
<g id="node51" class="node">
<title>S</title>
<ellipse fill="none" stroke="#000000" cx="1286" cy="-661.3" rx="27" ry="18"/>
<text text-anchor="middle" x="1286" y="-657.1" font-family="Times,serif" font-size="14.00" fill="#000000">S</text>
</g>
<!-- BAC&#45;&gt;S -->
<g id="edge69" class="edge">
<title>BAC&#45;&gt;S</title>
<path fill="none" stroke="#000000" d="M1286,-763.5054C1286,-736.6723 1286,-700.7287 1286,-679.3953"/>
<polygon fill="#000000" stroke="#000000" points="1282.5001,-763.6541 1286,-773.6541 1289.5001,-763.6541 1282.5001,-763.6541"/>
<text text-anchor="middle" x="1289.5" y="-731.6" font-family="Times,serif" font-size="14.00" fill="#000000">1</text>
</g>
<!-- O -->
<g id="node52" class="node">
<title>O</title>
<ellipse fill="none" stroke="#000000" cx="1369" cy="-661.3" rx="27" ry="18"/>
<text text-anchor="middle" x="1369" y="-657.1" font-family="Times,serif" font-size="14.00" fill="#000000">O</text>
</g>
<!-- BAC&#45;&gt;O -->
<g id="edge70" class="edge">
<title>BAC&#45;&gt;O</title>
<path fill="none" stroke="#000000" d="M1306.4079,-764.7655C1323.0265,-737.2948 1345.7914,-699.664 1358.7907,-678.176"/>
<polygon fill="#000000" stroke="#000000" points="1303.2122,-763.2863 1301.0307,-773.6541 1309.2015,-766.9096 1303.2122,-763.2863"/>
<text text-anchor="middle" x="1330.5" y="-731.6" font-family="Times,serif" font-size="14.00" fill="#000000">1</text>
</g>
<!-- BRM -->
<g id="node53" class="node">
<title>BRM</title>
<ellipse fill="none" stroke="#000000" cx="1197" cy="-661.3" rx="32.502" ry="18"/>
<text text-anchor="middle" x="1197" y="-657.1" font-family="Times,serif" font-size="14.00" fill="#000000">BRM</text>
</g>
<!-- BAC&#45;&gt;BRM -->
<g id="edge71" class="edge">
<title>BAC&#45;&gt;BRM</title>
<path fill="none" stroke="#000000" d="M1245.3585,-785.0126C1226.4963,-776.4778 1205.8793,-763.3606 1195,-744.2 1183.6266,-724.1692 1187.2512,-696.7941 1191.569,-679.0796"/>
<polygon fill="#000000" stroke="#000000" points="1244.1387,-788.2966 1254.7132,-788.9531 1246.8561,-781.8455 1244.1387,-788.2966"/>
<text text-anchor="middle" x="1202" y="-731.6" font-family="Times,serif" font-size="14.00" fill="#000000">25</text>
</g>
<!-- BSC&#45;&gt;SAR -->
<g id="edge37" class="edge">
<title>BSC&#45;&gt;SAR</title>
<path fill="none" stroke="#000000" d="M380.4195,-792.8174C437.4125,-785.2286 543.2753,-771.9588 634,-765.2 890.348,-746.1025 958.01,-783.799 1212,-744.2 1239.3617,-739.9341 1244.685,-731.9553 1272,-727.4 1302.5185,-722.3104 1383.9503,-734.4199 1411,-719.4 1424.1677,-712.0884 1434.0965,-698.5505 1440.883,-686.3812"/>
<polygon fill="#000000" stroke="#000000" points="379.8074,-789.368 370.361,-794.1654 380.7373,-796.306 379.8074,-789.368"/>
<text text-anchor="middle" x="1275.5" y="-731.6" font-family="Times,serif" font-size="14.00" fill="#000000">1</text>
</g>
<!-- BSC&#45;&gt;MFK -->
<g id="edge36" class="edge">
<title>BSC&#45;&gt;MFK</title>
<path fill="none" stroke="#000000" d="M378.7652,-773.9265C392.9309,-764.8774 408.8691,-754.3533 423,-744.2 490.3495,-695.8083 491.7993,-658.2946 569,-628 683.932,-582.8992 725.6109,-634.3848 846,-607 1009.7258,-569.7575 1075.8699,-585.0276 1198,-469.8 1214.4677,-454.263 1224.3949,-430.2167 1229.9502,-412.0156"/>
<polygon fill="#000000" stroke="#000000" points="376.7771,-771.0427 370.2061,-779.3537 380.5257,-776.9545 376.7771,-771.0427"/>
<text text-anchor="middle" x="930.5" y="-594.4" font-family="Times,serif" font-size="14.00" fill="#000000">1</text>
</g>
<!-- BSC&#45;&gt;DCM -->
<g id="edge35" class="edge">
<title>BSC&#45;&gt;DCM</title>
<path fill="none" stroke="#000000" d="M308.3341,-766.3828C285.0398,-741.986 253.4556,-708.9069 231.9893,-686.4247"/>
<polygon fill="#000000" stroke="#000000" points="305.8397,-768.8385 315.2769,-773.6541 310.9025,-764.0045 305.8397,-768.8385"/>
<text text-anchor="middle" x="288.5" y="-731.6" font-family="Times,serif" font-size="14.00" fill="#000000">1</text>
</g>
<!-- STL -->
<g id="node50" class="node">
<title>STL</title>
<ellipse fill="none" stroke="#000000" cx="1578" cy="-261.5" rx="28.4088" ry="18"/>
<text text-anchor="middle" x="1578" y="-257.3" font-family="Times,serif" font-size="14.00" fill="#000000">STL</text>
</g>
<!-- MFK&#45;&gt;STL -->
<g id="edge63" class="edge">
<title>MFK&#45;&gt;STL</title>
<path fill="none" stroke="#000000" d="M1273.0246,-356.7978C1275.0015,-355.6468 1276.9987,-354.5718 1279,-353.6 1389.0371,-300.1674 1436.2328,-340.7849 1546,-286.8 1551.5925,-284.0495 1557.1215,-280.2004 1561.9697,-276.3331"/>
<polygon fill="#000000" stroke="#000000" points="1271.0619,-353.8987 1264.5376,-362.2464 1274.8436,-359.7892 1271.0619,-353.8987"/>
<text text-anchor="middle" x="1453.5" y="-320" font-family="Times,serif" font-size="14.00" fill="#000000">1</text>
</g>
<!-- DCM&#45;&gt;PSM -->
<g id="edge85" class="edge">
<title>DCM&#45;&gt;PSM</title>
<path fill="none" stroke="#000000" d="M208.2552,-626.2804C208.6651,-570.0427 209.4603,-460.948 209.818,-411.8767"/>
<polygon fill="#000000" stroke="#000000" points="204.7541,-626.4396 208.181,-636.4649 211.7539,-626.4907 204.7541,-626.4396"/>
<text text-anchor="middle" x="212.5" y="-519.9" font-family="Times,serif" font-size="14.00" fill="#000000">2</text>
</g>
<!-- DCM&#45;&gt;PG -->
<g id="edge87" class="edge">
<title>DCM&#45;&gt;PG</title>
<path fill="none" stroke="#000000" d="M189.703,-627.1191C159.908,-566.272 109.7824,-437.6802 168,-353.6 193.6738,-316.5208 326.8347,-281.57 385.3578,-267.74"/>
<polygon fill="#000000" stroke="#000000" points="186.6852,-628.9096 194.2907,-636.2858 192.9451,-625.7767 186.6852,-628.9096"/>
<text text-anchor="middle" x="149" y="-457.2" font-family="Times,serif" font-size="14.00" fill="#000000">20</text>
</g>
<!-- SFK -->
<g id="node57" class="node">
<title>SFK</title>
<ellipse fill="none" stroke="#000000" cx="282" cy="-524.1" rx="28.991" ry="18"/>
<text text-anchor="middle" x="282" y="-519.9" font-family="Times,serif" font-size="14.00" fill="#000000">SFK</text>
</g>
<!-- DCM&#45;&gt;SFK -->
<g id="edge86" class="edge">
<title>DCM&#45;&gt;SFK</title>
<path fill="none" stroke="#000000" d="M226.1669,-627.6175C240.8938,-600.3131 261.0484,-562.9453 272.6806,-541.3787"/>
<polygon fill="#000000" stroke="#000000" points="223.0675,-625.9912 221.4008,-636.4541 229.2285,-629.3142 223.0675,-625.9912"/>
<text text-anchor="middle" x="248.5" y="-594.4" font-family="Times,serif" font-size="14.00" fill="#000000">8</text>
</g>
<!-- TPU&#45;&gt;TRN -->
<g id="edge48" class="edge">
<title>TPU&#45;&gt;TRN</title>
<path fill="none" stroke="#000000" d="M1583.4436,-494.1886C1580.9961,-492.913 1578.5064,-491.7668 1576,-490.8 1488.073,-456.8849 1458.5498,-481.194 1365,-469.8 1362.6041,-469.5082 1195.0855,-446.2149 1193,-445 1179.6606,-437.2291 1168.878,-423.8244 1161.2152,-411.8476"/>
<polygon fill="#000000" stroke="#000000" points="1581.6849,-497.2147 1592.0755,-499.2848 1585.2437,-491.1868 1581.6849,-497.2147"/>
<text text-anchor="middle" x="1368.5" y="-457.2" font-family="Times,serif" font-size="14.00" fill="#000000">4</text>
</g>
<!-- MWF -->
<g id="node38" class="node">
<title>MWF</title>
<ellipse fill="none" stroke="#000000" cx="1812" cy="-386.9" rx="34.2084" ry="18"/>
<text text-anchor="middle" x="1812" y="-382.7" font-family="Times,serif" font-size="14.00" fill="#000000">MWF</text>
</g>
<!-- TPU&#45;&gt;MWF -->
<g id="edge47" class="edge">
<title>TPU&#45;&gt;MWF</title>
<path fill="none" stroke="#000000" d="M1661.9036,-514.7396C1690.8105,-506.5625 1729.2035,-492.3908 1757,-469.8 1778.8477,-452.044 1795.1713,-423.2906 1804.1481,-404.7428"/>
<polygon fill="#000000" stroke="#000000" points="1660.8486,-511.3991 1652.1075,-517.3859 1662.6742,-518.1569 1660.8486,-511.3991"/>
<text text-anchor="middle" x="1775.5" y="-457.2" font-family="Times,serif" font-size="14.00" fill="#000000">4</text>
</g>
<!-- CAP -->
<g id="node39" class="node">
<title>CAP</title>
<ellipse fill="none" stroke="#000000" cx="1905" cy="-386.9" rx="29.6339" ry="18"/>
<text text-anchor="middle" x="1905" y="-382.7" font-family="Times,serif" font-size="14.00" fill="#000000">CAP</text>
</g>
<!-- TPU&#45;&gt;CAP -->
<g id="edge49" class="edge">
<title>TPU&#45;&gt;CAP</title>
<path fill="none" stroke="#000000" d="M1662.0289,-518.2706C1712.7173,-509.4411 1799.7459,-488.8214 1861,-445 1875.9215,-434.3251 1888.0556,-417.1035 1895.7729,-404.176"/>
<polygon fill="#000000" stroke="#000000" points="1661.3767,-514.831 1652.0903,-519.9313 1662.5304,-521.7352 1661.3767,-514.831"/>
<text text-anchor="middle" x="1846.5" y="-457.2" font-family="Times,serif" font-size="14.00" fill="#000000">4</text>
</g>
<!-- HCC -->
<g id="node40" class="node">
<title>HCC</title>
<path fill="none" stroke="#000000" d="M1483.8601,-362.1C1483.8601,-362.1 1522.1399,-362.1 1522.1399,-362.1 1528.1399,-362.1 1534.1399,-368.1 1534.1399,-374.1 1534.1399,-374.1 1534.1399,-399.7 1534.1399,-399.7 1534.1399,-405.7 1528.1399,-411.7 1522.1399,-411.7 1522.1399,-411.7 1483.8601,-411.7 1483.8601,-411.7 1477.8601,-411.7 1471.8601,-405.7 1471.8601,-399.7 1471.8601,-399.7 1471.8601,-374.1 1471.8601,-374.1 1471.8601,-368.1 1477.8601,-362.1 1483.8601,-362.1"/>
<text text-anchor="middle" x="1503" y="-395.1" font-family="Times,serif" font-size="14.00" fill="#000000">10 HCC</text>
<polyline fill="none" stroke="#000000" points="1471.8601,-386.9 1534.1399,-386.9 "/>
<text text-anchor="middle" x="1503" y="-370.3" font-family="Times,serif" font-size="14.00" fill="#000000">7h12m</text>
</g>
<!-- TPU&#45;&gt;HCC -->
<g id="edge50" class="edge">
<title>TPU&#45;&gt;HCC</title>
<path fill="none" stroke="#000000" d="M1590.5465,-491.6587C1577.5219,-477.5257 1562.2865,-460.6448 1549,-445 1539.9224,-434.3111 1530.2356,-422.1915 1522.104,-411.7974"/>
<polygon fill="#000000" stroke="#000000" points="1588.1672,-494.2408 1597.5285,-499.2024 1593.3046,-489.486 1588.1672,-494.2408"/>
<text text-anchor="middle" x="1573.5" y="-457.2" font-family="Times,serif" font-size="14.00" fill="#000000">4</text>
</g>
<!-- SWF&#45;&gt;AL -->
<g id="edge57" class="edge">
<title>SWF&#45;&gt;AL</title>
<path fill="none" stroke="#000000" d="M1023.5456,-354.6294C997.3897,-329.399 962.2375,-295.4907 942.368,-276.3242"/>
<polygon fill="#000000" stroke="#000000" points="1021.3778,-357.4013 1031.005,-361.8248 1026.2376,-352.3632 1021.3778,-357.4013"/>
<text text-anchor="middle" x="1002.5" y="-320" font-family="Times,serif" font-size="14.00" fill="#000000">1</text>
</g>
<!-- SI -->
<g id="node45" class="node">
<title>SI</title>
<ellipse fill="none" stroke="#000000" cx="1134" cy="-261.5" rx="27" ry="18"/>
<text text-anchor="middle" x="1134" y="-257.3" font-family="Times,serif" font-size="14.00" fill="#000000">SI</text>
</g>
<!-- SWF&#45;&gt;SI -->
<g id="edge58" class="edge">
<title>SWF&#45;&gt;SI</title>
<path fill="none" stroke="#000000" d="M1053.7394,-351.6229C1054.0824,-339.6382 1056.1545,-326.5659 1062,-315.8 1072.907,-295.7118 1094.7917,-280.8753 1111.585,-271.8341"/>
<polygon fill="#000000" stroke="#000000" points="1050.241,-351.8219 1053.8317,-361.7897 1057.2407,-351.7583 1050.241,-351.8219"/>
<text text-anchor="middle" x="1065.5" y="-320" font-family="Times,serif" font-size="14.00" fill="#000000">1</text>
</g>
<!-- BCO&#45;&gt;PE -->
<g id="edge62" class="edge">
<title>BCO&#45;&gt;PE</title>
<path fill="none" stroke="#000000" d="M1450.5772,-356.5961C1452.6975,-355.4917 1454.8441,-354.4825 1457,-353.6 1518.8918,-328.2643 1543.1391,-355.4256 1606,-332.6 1619.2846,-327.7762 1620.9861,-323.2442 1633,-315.8 1656.348,-301.3329 1683.2208,-284.7629 1701.0655,-273.7712"/>
<polygon fill="#000000" stroke="#000000" points="1448.3372,-353.8539 1441.5034,-361.9502 1451.8946,-359.8826 1448.3372,-353.8539"/>
<text text-anchor="middle" x="1643.5" y="-320" font-family="Times,serif" font-size="14.00" fill="#000000">300</text>
</g>
<!-- CU -->
<g id="node49" class="node">
<title>CU</title>
<ellipse fill="none" stroke="#000000" cx="1524" cy="-18" rx="27" ry="18"/>
<text text-anchor="middle" x="1524" y="-13.8" font-family="Times,serif" font-size="14.00" fill="#000000">CU</text>
</g>
<!-- BCO&#45;&gt;CU -->
<g id="edge61" class="edge">
<title>BCO&#45;&gt;CU</title>
<path fill="none" stroke="#000000" d="M1451.8346,-356.6449C1453.5583,-355.584 1455.2842,-354.5641 1457,-353.6 1525.6135,-315.046 1577.0819,-352.1102 1621,-286.8 1678.7225,-200.9615 1578.0771,-76.6417 1538.7409,-33.4626"/>
<polygon fill="#000000" stroke="#000000" points="1449.752,-353.8247 1443.2917,-362.2221 1453.5786,-359.6862 1449.752,-353.8247"/>
<text text-anchor="middle" x="1639.5" y="-194.6" font-family="Times,serif" font-size="14.00" fill="#000000">1</text>
</g>
<!-- AU -->
<g id="node47" class="node">
<title>AU</title>
<ellipse fill="#ffff00" stroke="#000000" cx="1438" cy="-18" rx="27" ry="18"/>
<text text-anchor="middle" x="1438" y="-13.8" font-family="Times,serif" font-size="14.00" fill="#000000">AU</text>
</g>
<!-- BGO&#45;&gt;AU -->
<g id="edge59" class="edge">
<title>BGO&#45;&gt;AU</title>
<path fill="none" stroke="#000000" d="M1333.8337,-352.1472C1357.7719,-275.3579 1414.4691,-93.483 1432.4368,-35.8458"/>
<polygon fill="#000000" stroke="#000000" points="1330.4488,-351.2455 1330.814,-361.834 1337.1316,-353.3288 1330.4488,-351.2455"/>
<text text-anchor="middle" x="1386.5" y="-194.6" font-family="Times,serif" font-size="14.00" fill="#000000">4</text>
</g>
<!-- BGO&#45;&gt;FE -->
<g id="edge60" class="edge">
<title>BGO&#45;&gt;FE</title>
<path fill="none" stroke="#000000" d="M1284.9587,-357.0528C1282.9772,-355.834 1280.9849,-354.6749 1279,-353.6 1201.7621,-311.7728 1174.4208,-319.7524 1093,-286.8 1081.7263,-282.2374 1069.3883,-276.7212 1059.1694,-272.0056"/>
<polygon fill="#000000" stroke="#000000" points="1283.2461,-360.1161 1293.5206,-362.7018 1287.1012,-354.2732 1283.2461,-360.1161"/>
<text text-anchor="middle" x="1237.5" y="-320" font-family="Times,serif" font-size="14.00" fill="#000000">1</text>
</g>
<!-- TRN&#45;&gt;AL -->
<g id="edge55" class="edge">
<title>TRN&#45;&gt;AL</title>
<path fill="none" stroke="#000000" d="M1118.5519,-354.6559C1105.0576,-341.2858 1088.2437,-326.4456 1071,-315.8 1065.6573,-312.5016 990.5015,-284.7634 950.952,-270.2602"/>
<polygon fill="#000000" stroke="#000000" points="1116.1762,-357.2316 1125.6888,-361.8965 1121.1616,-352.3176 1116.1762,-357.2316"/>
<text text-anchor="middle" x="1097.5" y="-320" font-family="Times,serif" font-size="14.00" fill="#000000">1</text>
</g>
<!-- TRN&#45;&gt;SI -->
<g id="edge56" class="edge">
<title>TRN&#45;&gt;SI</title>
<path fill="none" stroke="#000000" d="M1144.0558,-351.5714C1141.4408,-328.1483 1138.1179,-298.3842 1136.0243,-279.6317"/>
<polygon fill="#000000" stroke="#000000" points="1140.6125,-352.2749 1145.2005,-361.8248 1147.5693,-351.4982 1140.6125,-352.2749"/>
<text text-anchor="middle" x="1144.5" y="-320" font-family="Times,serif" font-size="14.00" fill="#000000">1</text>
</g>
<!-- HCC&#45;&gt;PE -->
<g id="edge65" class="edge">
<title>HCC&#45;&gt;PE</title>
<path fill="none" stroke="#000000" d="M1542.6244,-356.6632C1544.7347,-355.548 1546.8658,-354.5174 1549,-353.6 1595.5287,-333.5996 1617.2418,-358.0982 1661,-332.6 1683.3284,-319.5891 1701.1838,-295.0684 1711.4354,-278.5075"/>
<polygon fill="#000000" stroke="#000000" points="1540.3966,-353.9135 1533.5584,-362.006 1543.9506,-359.9442 1540.3966,-353.9135"/>
<text text-anchor="middle" x="1690.5" y="-320" font-family="Times,serif" font-size="14.00" fill="#000000">300</text>
</g>
<!-- RGO -->
<g id="node46" class="node">
<title>RGO</title>
<path fill="none" stroke="#000000" d="M1486.9751,-111.3C1486.9751,-111.3 1519.0249,-111.3 1519.0249,-111.3 1525.0249,-111.3 1531.0249,-117.3 1531.0249,-123.3 1531.0249,-123.3 1531.0249,-148.9 1531.0249,-148.9 1531.0249,-154.9 1525.0249,-160.9 1519.0249,-160.9 1519.0249,-160.9 1486.9751,-160.9 1486.9751,-160.9 1480.9751,-160.9 1474.9751,-154.9 1474.9751,-148.9 1474.9751,-148.9 1474.9751,-123.3 1474.9751,-123.3 1474.9751,-117.3 1480.9751,-111.3 1486.9751,-111.3"/>
<text text-anchor="middle" x="1503" y="-144.3" font-family="Times,serif" font-size="14.00" fill="#000000">5 RGO</text>
<polyline fill="none" stroke="#000000" points="1474.9751,-136.1 1531.0249,-136.1 "/>
<text text-anchor="middle" x="1503" y="-119.5" font-family="Times,serif" font-size="14.00" fill="#000000">9h36m</text>
</g>
<!-- HCC&#45;&gt;RGO -->
<g id="edge64" class="edge">
<title>HCC&#45;&gt;RGO</title>
<path fill="none" stroke="#000000" d="M1503,-351.6398C1503,-300.1804 1503,-205.7701 1503,-160.9636"/>
<polygon fill="#000000" stroke="#000000" points="1499.5001,-351.9354 1503,-361.9354 1506.5001,-351.9355 1499.5001,-351.9354"/>
<text text-anchor="middle" x="1506.5" y="-257.3" font-family="Times,serif" font-size="14.00" fill="#000000">1</text>
</g>
<!-- RGO&#45;&gt;AU -->
<g id="edge66" class="edge">
<title>RGO&#45;&gt;AU</title>
<path fill="none" stroke="#000000" d="M1484.2504,-102.0334C1472.1622,-80.0701 1456.9623,-52.4531 1447.3605,-35.0073"/>
<polygon fill="#000000" stroke="#000000" points="1481.3271,-103.9809 1489.2152,-111.054 1487.4596,-100.6056 1481.3271,-103.9809"/>
<text text-anchor="middle" x="1475.5" y="-69.2" font-family="Times,serif" font-size="14.00" fill="#000000">4</text>
</g>
<!-- RGO&#45;&gt;CU -->
<g id="edge67" class="edge">
<title>RGO&#45;&gt;CU</title>
<path fill="none" stroke="#000000" d="M1509.234,-101.0411C1513.0301,-79.6926 1517.7225,-53.3035 1520.7848,-36.0815"/>
<polygon fill="#000000" stroke="#000000" points="1505.7584,-100.5957 1507.4536,-111.054 1512.6503,-101.8212 1505.7584,-100.5957"/>
<text text-anchor="middle" x="1518.5" y="-69.2" font-family="Times,serif" font-size="14.00" fill="#000000">1</text>
</g>
</g>
</svg>
