<?xml version="1.0" encoding="UTF-8" standalone="no"?>
<!DOCTYPE svg PUBLIC "-//W3C//DTD SVG 1.1//EN"
 "http://www.w3.org/Graphics/SVG/1.1/DTD/svg11.dtd">
<!-- Generated by graphviz version 2.40.1 (20161225.0304)
 -->
<!-- Title: HSS Pages: 1 -->
<svg width="842pt" height="485pt"
 viewBox="0.00 0.00 842.00 484.60" xmlns="http://www.w3.org/2000/svg" xmlns:xlink="http://www.w3.org/1999/xlink">
<g id="graph0" class="graph" transform="scale(1 1) rotate(0) translate(4 480.6)">
<title>HSS</title>
<polygon fill="#ffffff" stroke="transparent" points="-4,4 -4,-480.6 838,-480.6 838,4 -4,4"/>
<g id="clust1" class="cluster">
<title>cluster_CLF</title>
<polygon fill="#00ff00" stroke="#000000" points="465,-377.2 465,-468.6 541,-468.6 541,-377.2 465,-377.2"/>
<text text-anchor="middle" x="503" y="-452" font-family="Times,serif" font-size="14.00" fill="#000000">CLF</text>
</g>
<g id="clust2" class="cluster">
<title>cluster_SCA</title>
<polygon fill="#add8e6" stroke="#000000" points="270,-240 270,-331.4 433,-331.4 433,-240 270,-240"/>
<text text-anchor="middle" x="351.5" y="-314.8" font-family="Times,serif" font-size="14.00" fill="#000000">SCA</text>
</g>
<g id="clust3" class="cluster">
<title>cluster_CLR</title>
<polygon fill="#00ff00" stroke="#000000" points="8,-102.8 8,-194.2 177,-194.2 177,-102.8 8,-102.8"/>
<text text-anchor="middle" x="92.5" y="-177.6" font-family="Times,serif" font-size="14.00" fill="#000000">CLR</text>
</g>
<g id="clust4" class="cluster">
<title>cluster_LAB</title>
<polygon fill="#add8e6" stroke="#000000" points="606,-240 606,-331.4 676,-331.4 676,-240 606,-240"/>
<text text-anchor="middle" x="641" y="-314.8" font-family="Times,serif" font-size="14.00" fill="#000000">LAB</text>
</g>
<g id="clust5" class="cluster">
<title>cluster_FS</title>
<polygon fill="#00ff00" stroke="#000000" points="428,-102.8 428,-194.2 593,-194.2 593,-102.8 428,-102.8"/>
<text text-anchor="middle" x="510.5" y="-177.6" font-family="Times,serif" font-size="14.00" fill="#000000">FS</text>
</g>
<!-- HSS -->
<g id="node1" class="node">
<title>HSS</title>
<path fill="none" stroke="#000000" d="M485.4141,-385.7C485.4141,-385.7 520.5859,-385.7 520.5859,-385.7 526.5859,-385.7 532.5859,-391.7 532.5859,-397.7 532.5859,-397.7 532.5859,-423.3 532.5859,-423.3 532.5859,-429.3 526.5859,-435.3 520.5859,-435.3 520.5859,-435.3 485.4141,-435.3 485.4141,-435.3 479.4141,-435.3 473.4141,-429.3 473.4141,-423.3 473.4141,-423.3 473.4141,-397.7 473.4141,-397.7 473.4141,-391.7 479.4141,-385.7 485.4141,-385.7"/>
<text text-anchor="middle" x="503" y="-418.7" font-family="Times,serif" font-size="14.00" fill="#000000">20 HSS</text>
<polyline fill="none" stroke="#000000" points="473.4141,-410.5 532.5859,-410.5 "/>
<text text-anchor="middle" x="503" y="-393.9" font-family="Times,serif" font-size="14.00" fill="#000000">24h</text>
</g>
<!-- SEN -->
<g id="node2" class="node">
<title>SEN</title>
<path fill="none" stroke="#000000" d="M290.0291,-248.5C290.0291,-248.5 325.9709,-248.5 325.9709,-248.5 331.9709,-248.5 337.9709,-254.5 337.9709,-260.5 337.9709,-260.5 337.9709,-286.1 337.9709,-286.1 337.9709,-292.1 331.9709,-298.1 325.9709,-298.1 325.9709,-298.1 290.0291,-298.1 290.0291,-298.1 284.0291,-298.1 278.0291,-292.1 278.0291,-286.1 278.0291,-286.1 278.0291,-260.5 278.0291,-260.5 278.0291,-254.5 284.0291,-248.5 290.0291,-248.5"/>
<text text-anchor="middle" x="308" y="-281.5" font-family="Times,serif" font-size="14.00" fill="#000000">20 SEN</text>
<polyline fill="none" stroke="#000000" points="278.0291,-273.3 337.9709,-273.3 "/>
<text text-anchor="middle" x="308" y="-256.7" font-family="Times,serif" font-size="14.00" fill="#000000">6h 58m</text>
</g>
<!-- HSS&#45;&gt;SEN -->
<g id="edge3" class="edge">
<title>HSS&#45;&gt;SEN</title>
<path fill="none" stroke="#000000" d="M463.6013,-395.5506C431.3322,-382.0385 385.6703,-359.9092 352,-331.4 340.8952,-321.9974 330.8882,-309.318 323.2337,-298.2032"/>
<polygon fill="#000000" stroke="#000000" points="462.5772,-398.9133 473.1577,-399.4648 465.2305,-392.4356 462.5772,-398.9133"/>
<text text-anchor="middle" x="388.5" y="-343.6" font-family="Times,serif" font-size="14.00" fill="#000000">5</text>
</g>
<!-- PCB -->
<g id="node3" class="node">
<title>PCB</title>
<path fill="none" stroke="#000000" d="M378.8047,-248.5C378.8047,-248.5 413.1953,-248.5 413.1953,-248.5 419.1953,-248.5 425.1953,-254.5 425.1953,-260.5 425.1953,-260.5 425.1953,-286.1 425.1953,-286.1 425.1953,-292.1 419.1953,-298.1 413.1953,-298.1 413.1953,-298.1 378.8047,-298.1 378.8047,-298.1 372.8047,-298.1 366.8047,-292.1 366.8047,-286.1 366.8047,-286.1 366.8047,-260.5 366.8047,-260.5 366.8047,-254.5 372.8047,-248.5 378.8047,-248.5"/>
<text text-anchor="middle" x="396" y="-281.5" font-family="Times,serif" font-size="14.00" fill="#000000">5 PCB</text>
<polyline fill="none" stroke="#000000" points="366.8047,-273.3 425.1953,-273.3 "/>
<text text-anchor="middle" x="396" y="-256.7" font-family="Times,serif" font-size="14.00" fill="#000000">6h 43m</text>
</g>
<!-- HSS&#45;&gt;PCB -->
<g id="edge4" class="edge">
<title>HSS&#45;&gt;PCB</title>
<path fill="none" stroke="#000000" d="M477.4587,-377.7499C458.4815,-353.4164 432.9767,-320.7131 415.5943,-298.4247"/>
<polygon fill="#000000" stroke="#000000" points="474.7134,-379.921 483.6231,-385.6541 480.2332,-375.6162 474.7134,-379.921"/>
<text text-anchor="middle" x="462.5" y="-343.6" font-family="Times,serif" font-size="14.00" fill="#000000">5</text>
</g>
<!-- BLE -->
<g id="node6" class="node">
<title>BLE</title>
<path fill="none" stroke="#000000" d="M626,-248.5C626,-248.5 656,-248.5 656,-248.5 662,-248.5 668,-254.5 668,-260.5 668,-260.5 668,-286.1 668,-286.1 668,-292.1 662,-298.1 656,-298.1 656,-298.1 626,-298.1 626,-298.1 620,-298.1 614,-292.1 614,-286.1 614,-286.1 614,-260.5 614,-260.5 614,-254.5 620,-248.5 626,-248.5"/>
<text text-anchor="middle" x="640.9709" y="-281.5" font-family="Times,serif" font-size="14.00" fill="#000000">3 BLE</text>
<polyline fill="none" stroke="#000000" points="614,-273.3 667.9418,-273.3 "/>
<text text-anchor="middle" x="640.9709" y="-256.7" font-family="Times,serif" font-size="14.00" fill="#000000">12h</text>
</g>
<!-- HSS&#45;&gt;BLE -->
<g id="edge2" class="edge">
<title>HSS&#45;&gt;BLE</title>
<path fill="none" stroke="#000000" d="M535.3045,-378.3828C559.8435,-353.986 593.1155,-320.9069 615.7288,-298.4247"/>
<polygon fill="#000000" stroke="#000000" points="532.6147,-376.1215 527.9908,-385.6541 537.5501,-381.0857 532.6147,-376.1215"/>
<text text-anchor="middle" x="575.5" y="-343.6" font-family="Times,serif" font-size="14.00" fill="#000000">1</text>
</g>
<!-- NL -->
<g id="node9" class="node">
<title>NL</title>
<ellipse fill="none" stroke="#000000" cx="724" cy="-273.3" rx="27" ry="18"/>
<text text-anchor="middle" x="724" y="-269.1" font-family="Times,serif" font-size="14.00" fill="#000000">NL</text>
</g>
<!-- HSS&#45;&gt;NL -->
<g id="edge1" class="edge">
<title>HSS&#45;&gt;NL</title>
<path fill="none" stroke="#000000" d="M542.6472,-399.889C581.517,-388.0143 640.9042,-365.8017 683,-331.4 696.7655,-320.1505 708.0174,-303.1735 715.2281,-290.4718"/>
<polygon fill="#000000" stroke="#000000" points="541.3371,-396.6268 532.7453,-402.8261 543.3278,-403.3378 541.3371,-396.6268"/>
<text text-anchor="middle" x="673.5" y="-343.6" font-family="Times,serif" font-size="14.00" fill="#000000">5</text>
</g>
<!-- TRN -->
<g id="node4" class="node">
<title>TRN</title>
<path fill="none" stroke="#000000" d="M28.2521,-111.3C28.2521,-111.3 65.7479,-111.3 65.7479,-111.3 71.7479,-111.3 77.7479,-117.3 77.7479,-123.3 77.7479,-123.3 77.7479,-148.9 77.7479,-148.9 77.7479,-154.9 71.7479,-160.9 65.7479,-160.9 65.7479,-160.9 28.2521,-160.9 28.2521,-160.9 22.2521,-160.9 16.2521,-154.9 16.2521,-148.9 16.2521,-148.9 16.2521,-123.3 16.2521,-123.3 16.2521,-117.3 22.2521,-111.3 28.2521,-111.3"/>
<text text-anchor="middle" x="47" y="-144.3" font-family="Times,serif" font-size="14.00" fill="#000000">10 TRN</text>
<polyline fill="none" stroke="#000000" points="16.2521,-136.1 77.7479,-136.1 "/>
<text text-anchor="middle" x="47" y="-119.5" font-family="Times,serif" font-size="14.00" fill="#000000">6h</text>
</g>
<!-- SEN&#45;&gt;TRN -->
<g id="edge9" class="edge">
<title>SEN&#45;&gt;TRN</title>
<path fill="none" stroke="#000000" d="M268.0179,-265.6895C222.0823,-255.4431 146.0943,-233.7578 92,-194.2 79.9506,-185.3886 69.5157,-172.4956 61.7363,-161.0923"/>
<polygon fill="#000000" stroke="#000000" points="267.3889,-269.1343 277.902,-267.8208 268.8645,-262.2915 267.3889,-269.1343"/>
<text text-anchor="middle" x="137" y="-206.4" font-family="Times,serif" font-size="14.00" fill="#000000">20</text>
</g>
<!-- H -->
<g id="node11" class="node">
<title>H</title>
<ellipse fill="none" stroke="#000000" cx="308" cy="-136.1" rx="27" ry="18"/>
<text text-anchor="middle" x="308" y="-131.9" font-family="Times,serif" font-size="14.00" fill="#000000">H</text>
</g>
<!-- SEN&#45;&gt;H -->
<g id="edge10" class="edge">
<title>SEN&#45;&gt;H</title>
<path fill="none" stroke="#000000" d="M308,-238.3054C308,-211.4723 308,-175.5287 308,-154.1953"/>
<polygon fill="#000000" stroke="#000000" points="304.5001,-238.4541 308,-248.4541 311.5001,-238.4541 304.5001,-238.4541"/>
<text text-anchor="middle" x="315" y="-206.4" font-family="Times,serif" font-size="14.00" fill="#000000">10</text>
</g>
<!-- N -->
<g id="node12" class="node">
<title>N</title>
<ellipse fill="#ffff00" stroke="#000000" cx="225" cy="-136.1" rx="27" ry="18"/>
<text text-anchor="middle" x="225" y="-131.9" font-family="Times,serif" font-size="14.00" fill="#000000">N</text>
</g>
<!-- SEN&#45;&gt;N -->
<g id="edge11" class="edge">
<title>SEN&#45;&gt;N</title>
<path fill="none" stroke="#000000" d="M287.5921,-239.5655C270.9735,-212.0948 248.2086,-174.464 235.2093,-152.976"/>
<polygon fill="#000000" stroke="#000000" points="284.7985,-241.7096 292.9693,-248.4541 290.7878,-238.0863 284.7985,-241.7096"/>
<text text-anchor="middle" x="280" y="-206.4" font-family="Times,serif" font-size="14.00" fill="#000000">10</text>
</g>
<!-- SWF -->
<g id="node5" class="node">
<title>SWF</title>
<path fill="none" stroke="#000000" d="M118.8601,-111.3C118.8601,-111.3 157.1399,-111.3 157.1399,-111.3 163.1399,-111.3 169.1399,-117.3 169.1399,-123.3 169.1399,-123.3 169.1399,-148.9 169.1399,-148.9 169.1399,-154.9 163.1399,-160.9 157.1399,-160.9 157.1399,-160.9 118.8601,-160.9 118.8601,-160.9 112.8601,-160.9 106.8601,-154.9 106.8601,-148.9 106.8601,-148.9 106.8601,-123.3 106.8601,-123.3 106.8601,-117.3 112.8601,-111.3 118.8601,-111.3"/>
<text text-anchor="middle" x="138" y="-144.3" font-family="Times,serif" font-size="14.00" fill="#000000">30 SWF</text>
<polyline fill="none" stroke="#000000" points="106.8601,-136.1 169.1399,-136.1 "/>
<text text-anchor="middle" x="138" y="-119.5" font-family="Times,serif" font-size="14.00" fill="#000000">12h</text>
</g>
<!-- PCB&#45;&gt;SWF -->
<g id="edge5" class="edge">
<title>PCB&#45;&gt;SWF</title>
<path fill="none" stroke="#000000" d="M372.2305,-240.3505C359.8992,-225.9633 343.5367,-210.5044 325,-202.2 296.1566,-189.2781 210.975,-208.9077 183,-194.2 169.1098,-186.8973 158.1789,-173.1996 150.5702,-160.938"/>
<polygon fill="#000000" stroke="#000000" points="369.6061,-242.6698 378.6548,-248.1809 375.0178,-238.2299 369.6061,-242.6698"/>
<text text-anchor="middle" x="357" y="-206.4" font-family="Times,serif" font-size="14.00" fill="#000000">10</text>
</g>
<!-- BGO -->
<g id="node7" class="node">
<title>BGO</title>
<path fill="none" stroke="#000000" d="M447.8047,-111.3C447.8047,-111.3 482.1953,-111.3 482.1953,-111.3 488.1953,-111.3 494.1953,-117.3 494.1953,-123.3 494.1953,-123.3 494.1953,-148.9 494.1953,-148.9 494.1953,-154.9 488.1953,-160.9 482.1953,-160.9 482.1953,-160.9 447.8047,-160.9 447.8047,-160.9 441.8047,-160.9 435.8047,-154.9 435.8047,-148.9 435.8047,-148.9 435.8047,-123.3 435.8047,-123.3 435.8047,-117.3 441.8047,-111.3 447.8047,-111.3"/>
<text text-anchor="middle" x="465" y="-144.3" font-family="Times,serif" font-size="14.00" fill="#000000">5 BGO</text>
<polyline fill="none" stroke="#000000" points="435.8047,-136.1 494.1953,-136.1 "/>
<text text-anchor="middle" x="465" y="-119.5" font-family="Times,serif" font-size="14.00" fill="#000000">9h 36m</text>
</g>
<!-- PCB&#45;&gt;BGO -->
<g id="edge8" class="edge">
<title>PCB&#45;&gt;BGO</title>
<path fill="none" stroke="#000000" d="M413.1128,-239.2728C425.2787,-215.0821 441.3501,-183.1255 452.3644,-161.2247"/>
<polygon fill="#000000" stroke="#000000" points="409.8615,-237.9477 408.4954,-248.4541 416.1152,-241.0928 409.8615,-237.9477"/>
<text text-anchor="middle" x="433.5" y="-206.4" font-family="Times,serif" font-size="14.00" fill="#000000">1</text>
</g>
<!-- BCO -->
<g id="node8" class="node">
<title>BCO</title>
<path fill="none" stroke="#000000" d="M534.8601,-111.3C534.8601,-111.3 573.1399,-111.3 573.1399,-111.3 579.1399,-111.3 585.1399,-117.3 585.1399,-123.3 585.1399,-123.3 585.1399,-148.9 585.1399,-148.9 585.1399,-154.9 579.1399,-160.9 573.1399,-160.9 573.1399,-160.9 534.8601,-160.9 534.8601,-160.9 528.8601,-160.9 522.8601,-154.9 522.8601,-148.9 522.8601,-148.9 522.8601,-123.3 522.8601,-123.3 522.8601,-117.3 528.8601,-111.3 534.8601,-111.3"/>
<text text-anchor="middle" x="554" y="-144.3" font-family="Times,serif" font-size="14.00" fill="#000000">10 BCO</text>
<polyline fill="none" stroke="#000000" points="522.8601,-136.1 585.1399,-136.1 "/>
<text text-anchor="middle" x="554" y="-119.5" font-family="Times,serif" font-size="14.00" fill="#000000">7h 12m</text>
</g>
<!-- PCB&#45;&gt;BCO -->
<g id="edge6" class="edge">
<title>PCB&#45;&gt;BCO</title>
<path fill="none" stroke="#000000" d="M434.1465,-250.6967C457.1273,-236.1182 486.2481,-215.879 509,-194.2 519.4376,-184.2547 529.4285,-171.769 537.3334,-160.9234"/>
<polygon fill="#000000" stroke="#000000" points="432.29,-247.7295 425.6656,-255.998 436.0004,-253.6653 432.29,-247.7295"/>
<text text-anchor="middle" x="500.5" y="-206.4" font-family="Times,serif" font-size="14.00" fill="#000000">5</text>
</g>
<!-- PE -->
<g id="node10" class="node">
<title>PE</title>
<ellipse fill="none" stroke="#000000" cx="422" cy="-18" rx="27" ry="18"/>
<text text-anchor="middle" x="422" y="-13.8" font-family="Times,serif" font-size="14.00" fill="#000000">PE</text>
</g>
<!-- PCB&#45;&gt;PE -->
<g id="edge7" class="edge">
<title>PCB&#45;&gt;PE</title>
<path fill="none" stroke="#000000" d="M396.687,-238.2655C397.9634,-196.6716 401.607,-125.3368 412,-65 413.671,-55.2989 415.9262,-44.5552 417.872,-35.7912"/>
<polygon fill="#000000" stroke="#000000" points="393.1839,-238.3313 396.4046,-248.4247 400.1812,-238.5258 393.1839,-238.3313"/>
<text text-anchor="middle" x="413" y="-131.9" font-family="Times,serif" font-size="14.00" fill="#000000">60</text>
</g>
<!-- AL -->
<g id="node19" class="node">
<title>AL</title>
<ellipse fill="none" stroke="#000000" cx="134" cy="-18" rx="27" ry="18"/>
<text text-anchor="middle" x="134" y="-13.8" font-family="Times,serif" font-size="14.00" fill="#000000">AL</text>
</g>
<!-- TRN&#45;&gt;AL -->
<g id="edge19" class="edge">
<title>TRN&#45;&gt;AL</title>
<path fill="none" stroke="#000000" d="M56.5008,-101.6036C60.9014,-89.3225 66.972,-75.8583 75,-65 85.4325,-50.8894 101.1087,-38.6734 113.6808,-30.2348"/>
<polygon fill="#000000" stroke="#000000" points="53.1683,-100.5331 53.3241,-111.1268 59.8087,-102.7481 53.1683,-100.5331"/>
<text text-anchor="middle" x="78.5" y="-69.2" font-family="Times,serif" font-size="14.00" fill="#000000">1</text>
</g>
<!-- SI -->
<g id="node20" class="node">
<title>SI</title>
<ellipse fill="none" stroke="#000000" cx="41" cy="-18" rx="27" ry="18"/>
<text text-anchor="middle" x="41" y="-13.8" font-family="Times,serif" font-size="14.00" fill="#000000">SI</text>
</g>
<!-- TRN&#45;&gt;SI -->
<g id="edge20" class="edge">
<title>TRN&#45;&gt;SI</title>
<path fill="none" stroke="#000000" d="M37.404,-101.3482C35.9878,-94.8973 34.7532,-88.1807 34,-81.8 33.1247,-74.3848 33.4485,-72.4463 34,-65 34.7068,-55.4565 36.2103,-44.9116 37.6434,-36.2324"/>
<polygon fill="#000000" stroke="#000000" points="34.0226,-102.2578 39.736,-111.18 40.8336,-100.6422 34.0226,-102.2578"/>
<text text-anchor="middle" x="37.5" y="-69.2" font-family="Times,serif" font-size="14.00" fill="#000000">1</text>
</g>
<!-- SWF&#45;&gt;AL -->
<g id="edge21" class="edge">
<title>SWF&#45;&gt;AL</title>
<path fill="none" stroke="#000000" d="M136.8126,-101.0411C136.0895,-79.6926 135.1957,-53.3035 134.6124,-36.0815"/>
<polygon fill="#000000" stroke="#000000" points="133.3151,-101.1783 137.1517,-111.054 140.3111,-100.9412 133.3151,-101.1783"/>
<text text-anchor="middle" x="140.5" y="-69.2" font-family="Times,serif" font-size="14.00" fill="#000000">1</text>
</g>
<!-- SWF&#45;&gt;SI -->
<g id="edge22" class="edge">
<title>SWF&#45;&gt;SI</title>
<path fill="none" stroke="#000000" d="M111.1297,-103.0435C101.3511,-91.0446 90.1969,-77.3938 80,-65 71.5118,-54.6831 61.9315,-43.1363 54.3904,-34.0694"/>
<polygon fill="#000000" stroke="#000000" points="108.6223,-105.5072 117.6511,-111.0507 114.0499,-101.0867 108.6223,-105.5072"/>
<text text-anchor="middle" x="96.5" y="-69.2" font-family="Times,serif" font-size="14.00" fill="#000000">1</text>
</g>
<!-- NA -->
<g id="node13" class="node">
<title>NA</title>
<ellipse fill="none" stroke="#000000" cx="724" cy="-136.1" rx="27" ry="18"/>
<text text-anchor="middle" x="724" y="-131.9" font-family="Times,serif" font-size="14.00" fill="#000000">NA</text>
</g>
<!-- BLE&#45;&gt;NA -->
<g id="edge12" class="edge">
<title>BLE&#45;&gt;NA</title>
<path fill="none" stroke="#000000" d="M661.4079,-239.5655C678.0265,-212.0948 700.7914,-174.464 713.7907,-152.976"/>
<polygon fill="#000000" stroke="#000000" points="658.2122,-238.0863 656.0307,-248.4541 664.2015,-241.7096 658.2122,-238.0863"/>
<text text-anchor="middle" x="685.5" y="-206.4" font-family="Times,serif" font-size="14.00" fill="#000000">1</text>
</g>
<!-- CL -->
<g id="node14" class="node">
<title>CL</title>
<ellipse fill="none" stroke="#000000" cx="807" cy="-136.1" rx="27" ry="18"/>
<text text-anchor="middle" x="807" y="-131.9" font-family="Times,serif" font-size="14.00" fill="#000000">CL</text>
</g>
<!-- BLE&#45;&gt;CL -->
<g id="edge13" class="edge">
<title>BLE&#45;&gt;CL</title>
<path fill="none" stroke="#000000" d="M676.4413,-244.5436C678.6341,-242.9701 680.8311,-241.4438 683,-240 718.0727,-216.6538 734.611,-222.3046 766,-194.2 779.1524,-182.4238 790.4042,-165.6751 797.7748,-153.1835"/>
<polygon fill="#000000" stroke="#000000" points="674.0046,-241.9941 668.0716,-250.7719 678.1836,-247.6098 674.0046,-241.9941"/>
<text text-anchor="middle" x="758.5" y="-206.4" font-family="Times,serif" font-size="14.00" fill="#000000">1</text>
</g>
<!-- O -->
<g id="node15" class="node">
<title>O</title>
<ellipse fill="none" stroke="#000000" cx="641" cy="-136.1" rx="27" ry="18"/>
<text text-anchor="middle" x="641" y="-131.9" font-family="Times,serif" font-size="14.00" fill="#000000">O</text>
</g>
<!-- BLE&#45;&gt;O -->
<g id="edge14" class="edge">
<title>BLE&#45;&gt;O</title>
<path fill="none" stroke="#000000" d="M641,-238.3054C641,-211.4723 641,-175.5287 641,-154.1953"/>
<polygon fill="#000000" stroke="#000000" points="637.5001,-238.4541 641,-248.4541 644.5001,-238.4541 637.5001,-238.4541"/>
<text text-anchor="middle" x="644.5" y="-206.4" font-family="Times,serif" font-size="14.00" fill="#000000">1</text>
</g>
<!-- AU -->
<g id="node16" class="node">
<title>AU</title>
<ellipse fill="#ffff00" stroke="#000000" cx="505" cy="-18" rx="27" ry="18"/>
<text text-anchor="middle" x="505" y="-13.8" font-family="Times,serif" font-size="14.00" fill="#000000">AU</text>
</g>
<!-- BGO&#45;&gt;AU -->
<g id="edge15" class="edge">
<title>BGO&#45;&gt;AU</title>
<path fill="none" stroke="#000000" d="M476.6977,-101.5626C484.0094,-79.9748 493.121,-53.0727 498.9981,-35.7207"/>
<polygon fill="#000000" stroke="#000000" points="473.376,-100.4597 473.483,-111.054 480.006,-102.7053 473.376,-100.4597"/>
<text text-anchor="middle" x="491.5" y="-69.2" font-family="Times,serif" font-size="14.00" fill="#000000">4</text>
</g>
<!-- FE -->
<g id="node17" class="node">
<title>FE</title>
<ellipse fill="none" stroke="#000000" cx="339" cy="-18" rx="27" ry="18"/>
<text text-anchor="middle" x="339" y="-13.8" font-family="Times,serif" font-size="14.00" fill="#000000">FE</text>
</g>
<!-- BGO&#45;&gt;FE -->
<g id="edge16" class="edge">
<title>BGO&#45;&gt;FE</title>
<path fill="none" stroke="#000000" d="M430.8789,-104.1182C406.1792,-80.9671 373.9217,-50.7322 354.934,-32.935"/>
<polygon fill="#000000" stroke="#000000" points="428.589,-106.769 438.2786,-111.054 433.3761,-101.6617 428.589,-106.769"/>
<text text-anchor="middle" x="408.5" y="-69.2" font-family="Times,serif" font-size="14.00" fill="#000000">1</text>
</g>
<!-- BCO&#45;&gt;PE -->
<g id="edge18" class="edge">
<title>BCO&#45;&gt;PE</title>
<path fill="none" stroke="#000000" d="M533.6529,-102.5391C524.9265,-89.8329 513.98,-75.835 502,-65 484.7963,-49.4406 461.6343,-36.5144 444.6604,-28.1822"/>
<polygon fill="#000000" stroke="#000000" points="530.8752,-104.683 539.3249,-111.0746 536.7053,-100.8087 530.8752,-104.683"/>
<text text-anchor="middle" x="526.5" y="-69.2" font-family="Times,serif" font-size="14.00" fill="#000000">300</text>
</g>
<!-- CU -->
<g id="node18" class="node">
<title>CU</title>
<ellipse fill="none" stroke="#000000" cx="594" cy="-18" rx="27" ry="18"/>
<text text-anchor="middle" x="594" y="-13.8" font-family="Times,serif" font-size="14.00" fill="#000000">CU</text>
</g>
<!-- BCO&#45;&gt;CU -->
<g id="edge17" class="edge">
<title>BCO&#45;&gt;CU</title>
<path fill="none" stroke="#000000" d="M565.6977,-101.5626C573.0094,-79.9748 582.121,-53.0727 587.9981,-35.7207"/>
<polygon fill="#000000" stroke="#000000" points="562.376,-100.4597 562.483,-111.054 569.006,-102.7053 562.376,-100.4597"/>
<text text-anchor="middle" x="580.5" y="-69.2" font-family="Times,serif" font-size="14.00" fill="#000000">1</text>
</g>
</g>
</svg>
