<?xml version="1.0" encoding="UTF-8" standalone="no"?>
<!DOCTYPE svg PUBLIC "-//W3C//DTD SVG 1.1//EN"
 "http://www.w3.org/Graphics/SVG/1.1/DTD/svg11.dtd">
<!-- Generated by graphviz version 2.40.1 (20161225.0304)
 -->
<!-- Title: PDA Pages: 1 -->
<svg width="750pt" height="1258pt"
 viewBox="0.00 0.00 749.89 1258.20" xmlns="http://www.w3.org/2000/svg" xmlns:xlink="http://www.w3.org/1999/xlink">
<g id="graph0" class="graph" transform="scale(1 1) rotate(0) translate(4 1254.2)">
<title>PDA</title>
<polygon fill="#ffffff" stroke="transparent" points="-4,4 -4,-1254.2 745.8906,-1254.2 745.8906,4 -4,4"/>
<!-- PDA -->
<g id="node1" class="node">
<title>PDA</title>
<ellipse fill="#ffc0cb" stroke="#000000" cx="406" cy="-1232.2" rx="30.1958" ry="18"/>
<text text-anchor="middle" x="406" y="-1228" font-family="Times,serif" font-size="14.00" fill="#000000">PDA</text>
</g>
<!-- APF -->
<g id="node2" class="node">
<title>APF</title>
<path fill="#add8e6" stroke="#000000" d="M363.1462,-1111.3C363.1462,-1111.3 448.8538,-1111.3 448.8538,-1111.3 454.8538,-1111.3 460.8538,-1117.3 460.8538,-1123.3 460.8538,-1123.3 460.8538,-1148.9 460.8538,-1148.9 460.8538,-1154.9 454.8538,-1160.9 448.8538,-1160.9 448.8538,-1160.9 363.1462,-1160.9 363.1462,-1160.9 357.1462,-1160.9 351.1462,-1154.9 351.1462,-1148.9 351.1462,-1148.9 351.1462,-1123.3 351.1462,-1123.3 351.1462,-1117.3 357.1462,-1111.3 363.1462,-1111.3"/>
<text text-anchor="middle" x="406" y="-1144.3" font-family="Times,serif" font-size="14.00" fill="#000000">APF</text>
<polyline fill="none" stroke="#000000" points="351.1462,-1136.1 460.8538,-1136.1 "/>
<text text-anchor="middle" x="406" y="-1119.5" font-family="Times,serif" font-size="14.00" fill="#000000">TEC 60 ENG 20</text>
</g>
<!-- PDA&#45;&gt;APF -->
<g id="edge1" class="edge">
<title>PDA&#45;&gt;APF</title>
<path fill="none" stroke="#000000" d="M406,-1203.8679C406,-1190.264 406,-1174.109 406,-1160.9848"/>
<polygon fill="#000000" stroke="#000000" points="402.5001,-1204.1243 406,-1214.1243 409.5001,-1204.1244 402.5001,-1204.1243"/>
<text text-anchor="middle" x="442.9453" y="-1183.6" font-family="Times,serif" font-size="14.00" fill="#000000">32 x 14h24m</text>
</g>
<!-- HPC -->
<g id="node3" class="node">
<title>HPC</title>
<ellipse fill="none" stroke="#000000" cx="466" cy="-1055.8" rx="29.6339" ry="18"/>
<text text-anchor="middle" x="466" y="-1051.6" font-family="Times,serif" font-size="14.00" fill="#000000">HPC</text>
</g>
<!-- APF&#45;&gt;HPC -->
<g id="edge2" class="edge">
<title>APF&#45;&gt;HPC</title>
<path fill="none" stroke="#000000" d="M430.7652,-1102.9559C438.5661,-1092.5157 446.8543,-1081.4233 453.4312,-1072.6213"/>
<polygon fill="#000000" stroke="#000000" points="427.8374,-1101.027 424.6555,-1111.1328 433.4449,-1105.217 427.8374,-1101.027"/>
</g>
<!-- DA -->
<g id="node4" class="node">
<title>DA</title>
<ellipse fill="none" stroke="#000000" cx="369" cy="-1055.8" rx="27" ry="18"/>
<text text-anchor="middle" x="369" y="-1051.6" font-family="Times,serif" font-size="14.00" fill="#000000">DA</text>
</g>
<!-- APF&#45;&gt;DA -->
<g id="edge3" class="edge">
<title>APF&#45;&gt;DA</title>
<path fill="none" stroke="#000000" d="M390.2207,-1101.8546C385.6502,-1091.9354 380.8532,-1081.5247 376.9786,-1073.1158"/>
<polygon fill="#000000" stroke="#000000" points="387.1321,-1103.5152 394.4958,-1111.1328 393.4897,-1100.5858 387.1321,-1103.5152"/>
</g>
<!-- ELP -->
<g id="node22" class="node">
<title>ELP</title>
<path fill="#add8e6" stroke="#000000" d="M514.0291,-934.9C514.0291,-934.9 549.9709,-934.9 549.9709,-934.9 555.9709,-934.9 561.9709,-940.9 561.9709,-946.9 561.9709,-946.9 561.9709,-972.5 561.9709,-972.5 561.9709,-978.5 555.9709,-984.5 549.9709,-984.5 549.9709,-984.5 514.0291,-984.5 514.0291,-984.5 508.0291,-984.5 502.0291,-978.5 502.0291,-972.5 502.0291,-972.5 502.0291,-946.9 502.0291,-946.9 502.0291,-940.9 508.0291,-934.9 514.0291,-934.9"/>
<text text-anchor="middle" x="532" y="-967.9" font-family="Times,serif" font-size="14.00" fill="#000000">ELP</text>
<polyline fill="none" stroke="#000000" points="502.0291,-959.7 561.9709,-959.7 "/>
<text text-anchor="middle" x="532" y="-943.1" font-family="Times,serif" font-size="14.00" fill="#000000">TEC 40</text>
</g>
<!-- HPC&#45;&gt;ELP -->
<g id="edge24" class="edge">
<title>HPC&#45;&gt;ELP</title>
<path fill="none" stroke="#000000" d="M483.2273,-1030.7161C493.0023,-1016.483 505.1915,-998.7347 514.939,-984.5419"/>
<polygon fill="#000000" stroke="#000000" points="480.2725,-1028.836 477.4963,-1039.0607 486.0428,-1032.7989 480.2725,-1028.836"/>
<text text-anchor="middle" x="530.9453" y="-1007.2" font-family="Times,serif" font-size="14.00" fill="#000000">1 x 8h24m</text>
</g>
<!-- SE -->
<g id="node5" class="node">
<title>SE</title>
<path fill="#ffc0cb" stroke="#000000" d="M265.8671,-934.9C265.8671,-934.9 304.1329,-934.9 304.1329,-934.9 310.1329,-934.9 316.1329,-940.9 316.1329,-946.9 316.1329,-946.9 316.1329,-972.5 316.1329,-972.5 316.1329,-978.5 310.1329,-984.5 304.1329,-984.5 304.1329,-984.5 265.8671,-984.5 265.8671,-984.5 259.8671,-984.5 253.8671,-978.5 253.8671,-972.5 253.8671,-972.5 253.8671,-946.9 253.8671,-946.9 253.8671,-940.9 259.8671,-934.9 265.8671,-934.9"/>
<text text-anchor="middle" x="285" y="-967.9" font-family="Times,serif" font-size="14.00" fill="#000000">SE</text>
<polyline fill="none" stroke="#000000" points="253.8671,-959.7 316.1329,-959.7 "/>
<text text-anchor="middle" x="285" y="-943.1" font-family="Times,serif" font-size="14.00" fill="#000000">ENG 30</text>
</g>
<!-- DA&#45;&gt;SE -->
<g id="edge4" class="edge">
<title>DA&#45;&gt;SE</title>
<path fill="none" stroke="#000000" d="M348.5152,-1032.3644C335.8714,-1017.8993 319.6638,-999.357 306.7858,-984.6239"/>
<polygon fill="#000000" stroke="#000000" points="345.9127,-1034.7053 355.1291,-1039.931 351.1831,-1030.0984 345.9127,-1034.7053"/>
<text text-anchor="middle" x="365" y="-1007.2" font-family="Times,serif" font-size="14.00" fill="#000000">1 x 1d12h</text>
</g>
<!-- SAL -->
<g id="node6" class="node">
<title>SAL</title>
<ellipse fill="none" stroke="#000000" cx="211" cy="-863.6" rx="29.0529" ry="18"/>
<text text-anchor="middle" x="211" y="-859.4" font-family="Times,serif" font-size="14.00" fill="#000000">SAL</text>
</g>
<!-- SE&#45;&gt;SAL -->
<g id="edge5" class="edge">
<title>SE&#45;&gt;SAL</title>
<path fill="none" stroke="#000000" d="M259.6065,-926.7227C247.4736,-910.9664 233.4881,-892.8042 223.6429,-880.0187"/>
<polygon fill="#000000" stroke="#000000" points="256.8763,-928.9139 265.7505,-934.7017 262.4225,-924.6431 256.8763,-928.9139"/>
</g>
<!-- LD -->
<g id="node7" class="node">
<title>LD</title>
<ellipse fill="none" stroke="#000000" cx="357" cy="-863.6" rx="27" ry="18"/>
<text text-anchor="middle" x="357" y="-859.4" font-family="Times,serif" font-size="14.00" fill="#000000">LD</text>
</g>
<!-- SE&#45;&gt;LD -->
<g id="edge6" class="edge">
<title>SE&#45;&gt;LD</title>
<path fill="none" stroke="#000000" d="M309.747,-926.6696C321.6322,-910.8062 335.3367,-892.5146 344.9158,-879.729"/>
<polygon fill="#000000" stroke="#000000" points="306.9242,-924.6001 303.7292,-934.7017 312.5263,-928.7973 306.9242,-924.6001"/>
</g>
<!-- SA -->
<g id="node8" class="node">
<title>SA</title>
<ellipse fill="none" stroke="#000000" cx="285" cy="-863.6" rx="27" ry="18"/>
<text text-anchor="middle" x="285" y="-859.4" font-family="Times,serif" font-size="14.00" fill="#000000">SA</text>
</g>
<!-- SE&#45;&gt;SA -->
<g id="edge7" class="edge">
<title>SE&#45;&gt;SA</title>
<path fill="none" stroke="#000000" d="M285,-924.5258C285,-910.0265 285,-893.8383 285,-881.7948"/>
<polygon fill="#000000" stroke="#000000" points="281.5001,-924.7017 285,-934.7017 288.5001,-924.7018 281.5001,-924.7017"/>
</g>
<!-- ROM -->
<g id="node9" class="node">
<title>ROM</title>
<ellipse fill="none" stroke="#000000" cx="146" cy="-687" rx="33.0643" ry="18"/>
<text text-anchor="middle" x="146" y="-682.8" font-family="Times,serif" font-size="14.00" fill="#000000">ROM</text>
</g>
<!-- SE&#45;&gt;ROM -->
<g id="edge8" class="edge">
<title>SE&#45;&gt;ROM</title>
<path fill="none" stroke="#000000" d="M244.4315,-941.9445C219.6589,-928.9129 189.6414,-908.7508 173,-881.6 138.2429,-824.8929 140.7702,-741.6656 143.9481,-705.2223"/>
<polygon fill="#000000" stroke="#000000" points="243.1261,-945.2061 253.6302,-946.5895 246.2814,-938.9576 243.1261,-945.2061"/>
</g>
<!-- SD -->
<g id="node10" class="node">
<title>SD</title>
<path fill="#add8e6" stroke="#000000" d="M272.0291,-723.5C272.0291,-723.5 307.9709,-723.5 307.9709,-723.5 313.9709,-723.5 319.9709,-729.5 319.9709,-735.5 319.9709,-735.5 319.9709,-761.1 319.9709,-761.1 319.9709,-767.1 313.9709,-773.1 307.9709,-773.1 307.9709,-773.1 272.0291,-773.1 272.0291,-773.1 266.0291,-773.1 260.0291,-767.1 260.0291,-761.1 260.0291,-761.1 260.0291,-735.5 260.0291,-735.5 260.0291,-729.5 266.0291,-723.5 272.0291,-723.5"/>
<text text-anchor="middle" x="290" y="-756.5" font-family="Times,serif" font-size="14.00" fill="#000000">SD</text>
<polyline fill="none" stroke="#000000" points="260.0291,-748.3 319.9709,-748.3 "/>
<text text-anchor="middle" x="290" y="-731.7" font-family="Times,serif" font-size="14.00" fill="#000000">TEC 50</text>
</g>
<!-- SAL&#45;&gt;SD -->
<g id="edge9" class="edge">
<title>SAL&#45;&gt;SD</title>
<path fill="none" stroke="#000000" d="M212.419,-835.4082C214.2759,-821.2651 218.3238,-804.4562 227,-791.6 235.1666,-779.4989 247.9468,-769.8027 259.868,-762.6788"/>
<polygon fill="#000000" stroke="#000000" points="208.9129,-835.292 211.3856,-845.5942 215.8771,-835.9986 208.9129,-835.292"/>
<text text-anchor="middle" x="255" y="-805.4" font-family="Times,serif" font-size="14.00" fill="#000000">1 x 1d12h</text>
</g>
<!-- LD&#45;&gt;SD -->
<g id="edge10" class="edge">
<title>LD&#45;&gt;SD</title>
<path fill="none" stroke="#000000" d="M348.4042,-836.1333C343.457,-822.2493 336.5241,-805.4534 328,-791.6 324.1214,-785.2964 319.3099,-779.0191 314.429,-773.2795"/>
<polygon fill="#000000" stroke="#000000" points="345.1078,-837.311 351.6499,-845.6447 351.7327,-835.0502 345.1078,-837.311"/>
<text text-anchor="middle" x="366" y="-805.4" font-family="Times,serif" font-size="14.00" fill="#000000">1 x 12h</text>
</g>
<!-- SA&#45;&gt;SD -->
<g id="edge11" class="edge">
<title>SA&#45;&gt;SD</title>
<path fill="none" stroke="#000000" d="M286.22,-835.4665C287.0416,-816.521 288.1157,-791.7515 288.9089,-773.4606"/>
<polygon fill="#000000" stroke="#000000" points="282.7179,-835.4421 285.7813,-845.5844 289.7113,-835.7454 282.7179,-835.4421"/>
<text text-anchor="middle" x="306.5" y="-805.4" font-family="Times,serif" font-size="14.00" fill="#000000">1 x 1d</text>
</g>
<!-- SCA -->
<g id="node11" class="node">
<title>SCA</title>
<path fill="#add8e6" stroke="#000000" d="M312.0291,-492.9C312.0291,-492.9 347.9709,-492.9 347.9709,-492.9 353.9709,-492.9 359.9709,-498.9 359.9709,-504.9 359.9709,-504.9 359.9709,-530.5 359.9709,-530.5 359.9709,-536.5 353.9709,-542.5 347.9709,-542.5 347.9709,-542.5 312.0291,-542.5 312.0291,-542.5 306.0291,-542.5 300.0291,-536.5 300.0291,-530.5 300.0291,-530.5 300.0291,-504.9 300.0291,-504.9 300.0291,-498.9 306.0291,-492.9 312.0291,-492.9"/>
<text text-anchor="middle" x="330" y="-525.9" font-family="Times,serif" font-size="14.00" fill="#000000">SCA</text>
<polyline fill="none" stroke="#000000" points="300.0291,-517.7 359.9709,-517.7 "/>
<text text-anchor="middle" x="330" y="-501.1" font-family="Times,serif" font-size="14.00" fill="#000000">TEC 30</text>
</g>
<!-- ROM&#45;&gt;SCA -->
<g id="edge12" class="edge">
<title>ROM&#45;&gt;SCA</title>
<path fill="none" stroke="#000000" d="M137.459,-659.0319C130.7307,-630.8149 125.8978,-587.707 149,-561 168.447,-538.5185 253.4438,-525.9853 299.7162,-520.7137"/>
<polygon fill="#000000" stroke="#000000" points="134.1626,-660.2611 140.0762,-669.052 140.9354,-658.492 134.1626,-660.2611"/>
<text text-anchor="middle" x="169.4453" y="-628.8" font-family="Times,serif" font-size="14.00" fill="#000000">10 x 7h10m</text>
</g>
<!-- PSS -->
<g id="node12" class="node">
<title>PSS</title>
<ellipse fill="none" stroke="#000000" cx="411" cy="-421.6" rx="27.2835" ry="18"/>
<text text-anchor="middle" x="411" y="-417.4" font-family="Times,serif" font-size="14.00" fill="#000000">PSS</text>
</g>
<!-- SCA&#45;&gt;PSS -->
<g id="edge13" class="edge">
<title>SCA&#45;&gt;PSS</title>
<path fill="none" stroke="#000000" d="M357.5153,-485.0553C371.0611,-468.9843 386.7741,-450.3421 397.6479,-437.4412"/>
<polygon fill="#000000" stroke="#000000" points="354.839,-482.7998 351.0703,-492.7017 360.1914,-487.3112 354.839,-482.7998"/>
</g>
<!-- BGC -->
<g id="node13" class="node">
<title>BGC</title>
<ellipse fill="none" stroke="#000000" cx="536" cy="-367.6" rx="30.777" ry="18"/>
<text text-anchor="middle" x="536" y="-363.4" font-family="Times,serif" font-size="14.00" fill="#000000">BGC</text>
</g>
<!-- SCA&#45;&gt;BGC -->
<g id="edge14" class="edge">
<title>SCA&#45;&gt;BGC</title>
<path fill="none" stroke="#000000" d="M370.5085,-515.3084C425.648,-511.1106 519.9056,-500.2629 541,-474.4 561.5312,-449.2277 551.6559,-408.563 543.3512,-385.3499"/>
<polygon fill="#000000" stroke="#000000" points="370.0875,-511.8295 360.365,-516.0394 370.5907,-518.8114 370.0875,-511.8295"/>
</g>
<!-- SI -->
<g id="node14" class="node">
<title>SI</title>
<ellipse fill="none" stroke="#000000" cx="120" cy="-210.2" rx="27" ry="18"/>
<text text-anchor="middle" x="120" y="-206" font-family="Times,serif" font-size="14.00" fill="#000000">SI</text>
</g>
<!-- SCA&#45;&gt;SI -->
<g id="edge15" class="edge">
<title>SCA&#45;&gt;SI</title>
<path fill="none" stroke="#000000" d="M289.9884,-513.4972C245.2621,-506.4848 174.471,-487.9808 139,-439.6 91.3876,-374.659 106.9563,-269.8266 115.743,-228.1342"/>
<polygon fill="#000000" stroke="#000000" points="289.5389,-516.9685 299.9368,-514.9354 290.5405,-510.0405 289.5389,-516.9685"/>
</g>
<!-- CAP -->
<g id="node31" class="node">
<title>CAP</title>
<ellipse fill="none" stroke="#000000" cx="256" cy="-421.6" rx="29.6339" ry="18"/>
<text text-anchor="middle" x="256" y="-417.4" font-family="Times,serif" font-size="14.00" fill="#000000">CAP</text>
</g>
<!-- SCA&#45;&gt;CAP -->
<g id="edge34" class="edge">
<title>SCA&#45;&gt;CAP</title>
<path fill="none" stroke="#000000" d="M304.6065,-484.7227C292.4736,-468.9664 278.4881,-450.8042 268.6429,-438.0187"/>
<polygon fill="#000000" stroke="#000000" points="301.8763,-486.9139 310.7505,-492.7017 307.4225,-482.6431 301.8763,-486.9139"/>
</g>
<!-- BCO -->
<g id="node32" class="node">
<title>BCO</title>
<ellipse fill="none" stroke="#000000" cx="691" cy="-421.6" rx="30.777" ry="18"/>
<text text-anchor="middle" x="691" y="-417.4" font-family="Times,serif" font-size="14.00" fill="#000000">BCO</text>
</g>
<!-- SCA&#45;&gt;BCO -->
<g id="edge35" class="edge">
<title>SCA&#45;&gt;BCO</title>
<path fill="none" stroke="#000000" d="M370.3349,-513.2576C418.3902,-507.3128 500.7522,-495.0516 569,-474.4 604.5647,-463.6382 643.6495,-445.5291 667.7601,-433.5708"/>
<polygon fill="#000000" stroke="#000000" points="369.8385,-509.7921 360.3299,-514.4651 370.6772,-516.7416 369.8385,-509.7921"/>
</g>
<!-- SWF -->
<g id="node33" class="node">
<title>SWF</title>
<ellipse fill="none" stroke="#000000" cx="335" cy="-421.6" rx="30.777" ry="18"/>
<text text-anchor="middle" x="335" y="-417.4" font-family="Times,serif" font-size="14.00" fill="#000000">SWF</text>
</g>
<!-- SCA&#45;&gt;SWF -->
<g id="edge37" class="edge">
<title>SCA&#45;&gt;SWF</title>
<path fill="none" stroke="#000000" d="M331.8301,-482.5258C332.5845,-468.0265 333.4267,-451.8383 334.0533,-439.7948"/>
<polygon fill="#000000" stroke="#000000" points="328.325,-482.5333 331.3006,-492.7017 335.3156,-482.8971 328.325,-482.5333"/>
</g>
<!-- TRN -->
<g id="node34" class="node">
<title>TRN</title>
<ellipse fill="none" stroke="#000000" cx="178" cy="-421.6" rx="30.1958" ry="18"/>
<text text-anchor="middle" x="178" y="-417.4" font-family="Times,serif" font-size="14.00" fill="#000000">TRN</text>
</g>
<!-- SCA&#45;&gt;TRN -->
<g id="edge38" class="edge">
<title>SCA&#45;&gt;TRN</title>
<path fill="none" stroke="#000000" d="M291.2295,-493.1879C261.9656,-474.6862 222.9215,-450.001 199.1649,-434.9812"/>
<polygon fill="#000000" stroke="#000000" points="289.6469,-496.3281 299.9697,-498.7137 293.3877,-490.4114 289.6469,-496.3281"/>
</g>
<!-- PPF -->
<g id="node15" class="node">
<title>PPF</title>
<path fill="#00ff00" stroke="#000000" d="M436.8061,-281.5C436.8061,-281.5 471.1939,-281.5 471.1939,-281.5 477.1939,-281.5 483.1939,-287.5 483.1939,-293.5 483.1939,-293.5 483.1939,-319.1 483.1939,-319.1 483.1939,-325.1 477.1939,-331.1 471.1939,-331.1 471.1939,-331.1 436.8061,-331.1 436.8061,-331.1 430.8061,-331.1 424.8061,-325.1 424.8061,-319.1 424.8061,-319.1 424.8061,-293.5 424.8061,-293.5 424.8061,-287.5 430.8061,-281.5 436.8061,-281.5"/>
<text text-anchor="middle" x="454" y="-314.5" font-family="Times,serif" font-size="14.00" fill="#000000">PPF</text>
<polyline fill="none" stroke="#000000" points="424.8061,-306.3 483.1939,-306.3 "/>
<text text-anchor="middle" x="454" y="-289.7" font-family="Times,serif" font-size="14.00" fill="#000000">SET 50</text>
</g>
<!-- PSS&#45;&gt;PPF -->
<g id="edge16" class="edge">
<title>PSS&#45;&gt;PPF</title>
<path fill="none" stroke="#000000" d="M388.4301,-399.0229C385.4336,-394.8548 382.8128,-390.3182 381.1094,-385.6 375.6761,-370.5508 373.1957,-363.5058 381.1094,-349.6 390.428,-333.2255 408.6507,-322.4005 424.5437,-315.6692"/>
<polygon fill="#000000" stroke="#000000" points="385.9031,-401.4623 394.9348,-407.0011 391.3284,-397.039 385.9031,-401.4623"/>
<text text-anchor="middle" x="411.9453" y="-363.4" font-family="Times,serif" font-size="14.00" fill="#000000">1 x 4h48m</text>
</g>
<!-- FS -->
<g id="node17" class="node">
<title>FS</title>
<path fill="#00ff00" stroke="#000000" d="M515.8061,-89.3C515.8061,-89.3 550.1939,-89.3 550.1939,-89.3 556.1939,-89.3 562.1939,-95.3 562.1939,-101.3 562.1939,-101.3 562.1939,-126.9 562.1939,-126.9 562.1939,-132.9 556.1939,-138.9 550.1939,-138.9 550.1939,-138.9 515.8061,-138.9 515.8061,-138.9 509.8061,-138.9 503.8061,-132.9 503.8061,-126.9 503.8061,-126.9 503.8061,-101.3 503.8061,-101.3 503.8061,-95.3 509.8061,-89.3 515.8061,-89.3"/>
<text text-anchor="middle" x="533" y="-122.3" font-family="Times,serif" font-size="14.00" fill="#000000">FS</text>
<polyline fill="none" stroke="#000000" points="503.8061,-114.1 562.1939,-114.1 "/>
<text text-anchor="middle" x="533" y="-97.5" font-family="Times,serif" font-size="14.00" fill="#000000">SET 50</text>
</g>
<!-- BGC&#45;&gt;FS -->
<g id="edge18" class="edge">
<title>BGC&#45;&gt;FS</title>
<path fill="none" stroke="#000000" d="M527.8729,-339.8631C522.185,-318.9491 515.0909,-289.4441 512.1094,-263 507.1814,-219.2919 517.7911,-168.6133 525.6196,-139.0759"/>
<polygon fill="#000000" stroke="#000000" points="524.5507,-340.9796 530.6089,-349.6715 531.2933,-339.0988 524.5507,-340.9796"/>
<text text-anchor="middle" x="546.4453" y="-250.4" font-family="Times,serif" font-size="14.00" fill="#000000">10 x 7h12m</text>
</g>
<!-- PPF&#45;&gt;PSS -->
<g id="edge60" class="edge">
<title>PPF&#45;&gt;PSS</title>
<path fill="none" stroke="#000000" d="M452.2978,-341.1766C450.5927,-355.4502 447.2988,-371.8154 441,-385.6 437.4835,-393.2957 431.873,-400.6801 426.4502,-406.736"/>
<polygon fill="#000000" stroke="#000000" points="455.7814,-341.5148 453.2788,-331.2197 448.8151,-340.8283 455.7814,-341.5148"/>
</g>
<!-- PG -->
<g id="node16" class="node">
<title>PG</title>
<ellipse fill="none" stroke="#000000" cx="453" cy="-210.2" rx="27" ry="18"/>
<text text-anchor="middle" x="453" y="-206" font-family="Times,serif" font-size="14.00" fill="#000000">PG</text>
</g>
<!-- PPF&#45;&gt;PG -->
<g id="edge17" class="edge">
<title>PPF&#45;&gt;PG</title>
<path fill="none" stroke="#000000" d="M453.634,-271.1258C453.4831,-256.6265 453.3147,-240.4383 453.1893,-228.3948"/>
<polygon fill="#000000" stroke="#000000" points="450.1359,-271.3387 453.7399,-281.3017 457.1355,-271.2658 450.1359,-271.3387"/>
</g>
<!-- SFK -->
<g id="node30" class="node">
<title>SFK</title>
<ellipse fill="none" stroke="#000000" cx="568" cy="-210.2" rx="28.991" ry="18"/>
<text text-anchor="middle" x="568" y="-206" font-family="Times,serif" font-size="14.00" fill="#000000">SFK</text>
</g>
<!-- PPF&#45;&gt;SFK -->
<g id="edge59" class="edge">
<title>PPF&#45;&gt;SFK</title>
<path fill="none" stroke="#000000" d="M470.6847,-272.6078C476.4868,-263.2179 483.665,-253.5796 492,-246.2 506.4291,-233.4248 526.1842,-224.2528 541.9367,-218.3646"/>
<polygon fill="#000000" stroke="#000000" points="467.5439,-271.0469 465.5507,-281.4526 473.5979,-274.5611 467.5439,-271.0469"/>
</g>
<!-- BGO -->
<g id="node18" class="node">
<title>BGO</title>
<ellipse fill="none" stroke="#000000" cx="576" cy="-18" rx="31.339" ry="18"/>
<text text-anchor="middle" x="576" y="-13.8" font-family="Times,serif" font-size="14.00" fill="#000000">BGO</text>
</g>
<!-- FS&#45;&gt;BGO -->
<g id="edge19" class="edge">
<title>FS&#45;&gt;BGO</title>
<path fill="none" stroke="#000000" d="M570.7847,-95.5913C580.0528,-89.1084 588.7983,-80.8713 594,-70.8 599.9553,-59.2696 594.7444,-45.3436 588.4252,-34.689"/>
<polygon fill="#000000" stroke="#000000" points="568.7648,-92.7282 562.2128,-101.0542 572.5269,-98.6313 568.7648,-92.7282"/>
</g>
<!-- PE -->
<g id="node19" class="node">
<title>PE</title>
<ellipse fill="none" stroke="#000000" cx="428" cy="-18" rx="27" ry="18"/>
<text text-anchor="middle" x="428" y="-13.8" font-family="Times,serif" font-size="14.00" fill="#000000">PE</text>
</g>
<!-- FS&#45;&gt;PE -->
<g id="edge20" class="edge">
<title>FS&#45;&gt;PE</title>
<path fill="none" stroke="#000000" d="M498.0928,-82.1516C479.8456,-65.4511 458.3923,-45.8162 444.0714,-32.7091"/>
<polygon fill="#000000" stroke="#000000" points="495.9467,-84.9321 505.6866,-89.1017 500.6728,-79.7683 495.9467,-84.9321"/>
</g>
<!-- AU -->
<g id="node20" class="node">
<title>AU</title>
<ellipse fill="#ffff00" stroke="#000000" cx="500" cy="-18" rx="27" ry="18"/>
<text text-anchor="middle" x="500" y="-13.8" font-family="Times,serif" font-size="14.00" fill="#000000">AU</text>
</g>
<!-- FS&#45;&gt;AU -->
<g id="edge22" class="edge">
<title>FS&#45;&gt;AU</title>
<path fill="none" stroke="#000000" d="M517.3507,-79.733C516.159,-76.7345 515.0236,-73.7278 514,-70.8 509.9937,-59.3414 506.4937,-46.1414 503.9953,-35.806"/>
<polygon fill="#000000" stroke="#000000" points="514.2074,-81.2894 521.2818,-89.1764 520.6698,-78.5992 514.2074,-81.2894"/>
</g>
<!-- FE -->
<g id="node21" class="node">
<title>FE</title>
<ellipse fill="none" stroke="#000000" cx="298" cy="-18" rx="27" ry="18"/>
<text text-anchor="middle" x="298" y="-13.8" font-family="Times,serif" font-size="14.00" fill="#000000">FE</text>
</g>
<!-- FS&#45;&gt;FE -->
<g id="edge23" class="edge">
<title>FS&#45;&gt;FE</title>
<path fill="none" stroke="#000000" d="M494.3509,-98.295C445.1455,-78.1731 361.6824,-44.042 321.2837,-27.5216"/>
<polygon fill="#000000" stroke="#000000" points="493.1315,-101.5776 503.7122,-102.1232 495.7811,-95.0984 493.1315,-101.5776"/>
</g>
<!-- CU -->
<g id="node36" class="node">
<title>CU</title>
<ellipse fill="none" stroke="#000000" cx="652" cy="-18" rx="27" ry="18"/>
<text text-anchor="middle" x="652" y="-13.8" font-family="Times,serif" font-size="14.00" fill="#000000">CU</text>
</g>
<!-- FS&#45;&gt;CU -->
<g id="edge45" class="edge">
<title>FS&#45;&gt;CU</title>
<path fill="none" stroke="#000000" d="M571.6445,-96.1522C584.5437,-89.2062 598.5383,-80.5633 610,-70.8 622.305,-60.3184 633.5484,-45.7942 641.299,-34.6317"/>
<polygon fill="#000000" stroke="#000000" points="569.7593,-93.1873 562.4973,-100.9018 572.9851,-99.3997 569.7593,-93.1873"/>
</g>
<!-- BGO&#45;&gt;FS -->
<g id="edge21" class="edge">
<title>BGO&#45;&gt;FS</title>
<path fill="none" stroke="#000000" d="M544.4252,-36.448C538.6403,-41.3716 533.3987,-47.2391 530.1094,-54 524.8996,-64.7085 524.903,-77.7977 526.5097,-89.0239"/>
<polygon fill="#000000" stroke="#000000" points="546.6558,-39.1493 552.5179,-30.3239 542.4317,-33.5674 546.6558,-39.1493"/>
<text text-anchor="middle" x="560.9453" y="-58.2" font-family="Times,serif" font-size="14.00" fill="#000000">5 x 9h36m</text>
</g>
<!-- MB -->
<g id="node23" class="node">
<title>MB</title>
<ellipse fill="none" stroke="#000000" cx="505" cy="-863.6" rx="27" ry="18"/>
<text text-anchor="middle" x="505" y="-859.4" font-family="Times,serif" font-size="14.00" fill="#000000">MB</text>
</g>
<!-- ELP&#45;&gt;MB -->
<g id="edge25" class="edge">
<title>ELP&#45;&gt;MB</title>
<path fill="none" stroke="#000000" d="M515.8103,-924.9272C514.7688,-922.0749 513.8137,-919.2091 513,-916.4 509.7499,-905.1794 507.7612,-892.2133 506.5794,-881.9382"/>
<polygon fill="#000000" stroke="#000000" points="512.6575,-926.471 519.6039,-934.4709 519.1625,-923.8853 512.6575,-926.471"/>
</g>
<!-- DCS -->
<g id="node24" class="node">
<title>DCS</title>
<ellipse fill="none" stroke="#000000" cx="632" cy="-809.6" rx="29.6339" ry="18"/>
<text text-anchor="middle" x="632" y="-805.4" font-family="Times,serif" font-size="14.00" fill="#000000">DCS</text>
</g>
<!-- ELP&#45;&gt;DCS -->
<g id="edge26" class="edge">
<title>ELP&#45;&gt;DCS</title>
<path fill="none" stroke="#000000" d="M571.5154,-945.4497C585.2778,-938.6419 599.6085,-929.1377 609,-916.4 628.4722,-889.9899 632.1301,-850.5012 632.4552,-827.6715"/>
<polygon fill="#000000" stroke="#000000" points="569.7819,-942.3939 562.1461,-949.7386 572.6955,-948.7587 569.7819,-942.3939"/>
</g>
<!-- CD -->
<g id="node25" class="node">
<title>CD</title>
<ellipse fill="none" stroke="#000000" cx="577" cy="-863.6" rx="27" ry="18"/>
<text text-anchor="middle" x="577" y="-859.4" font-family="Times,serif" font-size="14.00" fill="#000000">CD</text>
</g>
<!-- ELP&#45;&gt;CD -->
<g id="edge27" class="edge">
<title>ELP&#45;&gt;CD</title>
<path fill="none" stroke="#000000" d="M570.7904,-940.4794C579.6822,-934.1088 587.9869,-926.1062 593,-916.4 598.8899,-904.9963 594.23,-891.0643 588.4509,-880.3754"/>
<polygon fill="#000000" stroke="#000000" points="568.6443,-937.7002 562.1736,-946.0895 572.4636,-943.5664 568.6443,-937.7002"/>
</g>
<!-- ELP&#45;&gt;BCO -->
<g id="edge43" class="edge">
<title>ELP&#45;&gt;BCO</title>
<path fill="none" stroke="#000000" d="M572.2798,-955.3319C623.9553,-947.2396 707,-924.7258 707,-863.6 707,-863.6 707,-863.6 707,-517.7 707,-490.1307 700.5134,-458.7092 695.8005,-439.5179"/>
<polygon fill="#000000" stroke="#000000" points="571.4794,-951.9112 562.0836,-956.807 572.4817,-958.8391 571.4794,-951.9112"/>
</g>
<!-- DIS -->
<g id="node35" class="node">
<title>DIS</title>
<ellipse fill="none" stroke="#000000" cx="432" cy="-863.6" rx="27" ry="18"/>
<text text-anchor="middle" x="432" y="-859.4" font-family="Times,serif" font-size="14.00" fill="#000000">DIS</text>
</g>
<!-- ELP&#45;&gt;DIS -->
<g id="edge42" class="edge">
<title>ELP&#45;&gt;DIS</title>
<path fill="none" stroke="#000000" d="M498.3381,-927.3509C481.1746,-910.8568 461.1253,-891.5894 447.5975,-878.5892"/>
<polygon fill="#000000" stroke="#000000" points="496.3517,-930.2962 505.9872,-934.7017 501.2021,-925.249 496.3517,-930.2962"/>
</g>
<!-- MCA -->
<g id="node26" class="node">
<title>MCA</title>
<path fill="#add8e6" stroke="#000000" d="M403.0852,-723.5C403.0852,-723.5 484.9148,-723.5 484.9148,-723.5 490.9148,-723.5 496.9148,-729.5 496.9148,-735.5 496.9148,-735.5 496.9148,-761.1 496.9148,-761.1 496.9148,-767.1 490.9148,-773.1 484.9148,-773.1 484.9148,-773.1 403.0852,-773.1 403.0852,-773.1 397.0852,-773.1 391.0852,-767.1 391.0852,-761.1 391.0852,-761.1 391.0852,-735.5 391.0852,-735.5 391.0852,-729.5 397.0852,-723.5 403.0852,-723.5"/>
<text text-anchor="middle" x="444" y="-756.5" font-family="Times,serif" font-size="14.00" fill="#000000">MCA</text>
<polyline fill="none" stroke="#000000" points="391.0852,-748.3 496.9148,-748.3 "/>
<text text-anchor="middle" x="444" y="-731.7" font-family="Times,serif" font-size="14.00" fill="#000000">SET 20 TEC 20</text>
</g>
<!-- MB&#45;&gt;MCA -->
<g id="edge28" class="edge">
<title>MB&#45;&gt;MCA</title>
<path fill="none" stroke="#000000" d="M504.1491,-835.3435C502.7045,-821.4424 499.3819,-804.8677 492,-791.6 488.2895,-784.9311 483.1635,-778.75 477.6358,-773.268"/>
<polygon fill="#000000" stroke="#000000" points="500.6626,-835.6534 504.9239,-845.3535 507.6417,-835.1132 500.6626,-835.6534"/>
<text text-anchor="middle" x="533.9453" y="-805.4" font-family="Times,serif" font-size="14.00" fill="#000000">4 x 7h12m</text>
</g>
<!-- DCS&#45;&gt;PPF -->
<g id="edge58" class="edge">
<title>DCS&#45;&gt;PPF</title>
<path fill="none" stroke="#000000" d="M632,-781.146C632,-756.2979 632,-719.2613 632,-687 632,-687 632,-687 632,-421.6 632,-351.6429 533.9501,-322.0163 483.3931,-311.3899"/>
<polygon fill="#000000" stroke="#000000" points="628.5001,-781.3214 632,-791.3215 635.5001,-781.3215 628.5001,-781.3214"/>
<text text-anchor="middle" x="661.9453" y="-574.8" font-family="Times,serif" font-size="14.00" fill="#000000">2 x 7h12m</text>
</g>
<!-- CD&#45;&gt;ELP -->
<g id="edge41" class="edge">
<title>CD&#45;&gt;ELP</title>
<path fill="none" stroke="#000000" d="M546.6824,-879.7764C539.6364,-885.0931 533.0503,-891.7074 529.1094,-899.6 523.7429,-910.3477 523.7812,-923.5673 525.4513,-934.8691"/>
<polygon fill="#000000" stroke="#000000" points="548.7085,-882.6315 555.0342,-874.1323 544.789,-876.8317 548.7085,-882.6315"/>
<text text-anchor="middle" x="559.9453" y="-903.8" font-family="Times,serif" font-size="14.00" fill="#000000">1 x 16h5m</text>
</g>
<!-- RAM -->
<g id="node27" class="node">
<title>RAM</title>
<ellipse fill="none" stroke="#000000" cx="483" cy="-633" rx="33.0643" ry="18"/>
<text text-anchor="middle" x="483" y="-628.8" font-family="Times,serif" font-size="14.00" fill="#000000">RAM</text>
</g>
<!-- MCA&#45;&gt;RAM -->
<g id="edge29" class="edge">
<title>MCA&#45;&gt;RAM</title>
<path fill="none" stroke="#000000" d="M455.7487,-713.5661C462.7434,-692.8867 471.3275,-667.5086 476.9697,-650.828"/>
<polygon fill="#000000" stroke="#000000" points="452.3512,-712.6874 452.4624,-723.2816 458.9821,-714.9303 452.3512,-712.6874"/>
</g>
<!-- MPC -->
<g id="node28" class="node">
<title>MPC</title>
<ellipse fill="none" stroke="#000000" cx="329" cy="-633" rx="31.3583" ry="18"/>
<text text-anchor="middle" x="329" y="-628.8" font-family="Times,serif" font-size="14.00" fill="#000000">MPC</text>
</g>
<!-- MCA&#45;&gt;MPC -->
<g id="edge30" class="edge">
<title>MCA&#45;&gt;MPC</title>
<path fill="none" stroke="#000000" d="M411.8784,-716.0946C389.9736,-694.1327 361.9219,-666.0078 344.7172,-648.7582"/>
<polygon fill="#000000" stroke="#000000" points="409.5067,-718.673 419.0467,-723.2816 414.4629,-713.7297 409.5067,-718.673"/>
</g>
<!-- PSM -->
<g id="node29" class="node">
<title>PSM</title>
<ellipse fill="none" stroke="#000000" cx="533" cy="-579" rx="30.215" ry="18"/>
<text text-anchor="middle" x="533" y="-574.8" font-family="Times,serif" font-size="14.00" fill="#000000">PSM</text>
</g>
<!-- MCA&#45;&gt;PSM -->
<g id="edge31" class="edge">
<title>MCA&#45;&gt;PSM</title>
<path fill="none" stroke="#000000" d="M479.2327,-715.9696C495.9951,-698.4507 514.6049,-675.42 525,-651 532.3397,-633.7576 533.8456,-612.1957 533.8222,-597.1835"/>
<polygon fill="#000000" stroke="#000000" points="476.7086,-713.5447 472.1913,-723.1282 481.699,-718.4534 476.7086,-713.5447"/>
</g>
<!-- MCA&#45;&gt;SFK -->
<g id="edge32" class="edge">
<title>MCA&#45;&gt;SFK</title>
<path fill="none" stroke="#000000" d="M502.9107,-717.6112C507.9857,-713.7395 512.7835,-709.5303 517,-705 553.1653,-666.1432 556.0004,-648.7087 568,-597 601.5746,-452.3197 577.1832,-411.5138 579,-263 579.0913,-255.5339 580.1031,-253.5847 579,-246.2 578.0925,-240.1243 576.3683,-233.6566 574.5496,-227.9041"/>
<polygon fill="#000000" stroke="#000000" points="500.8715,-714.7665 494.7514,-723.4149 504.9289,-720.4707 500.8715,-714.7665"/>
</g>
<!-- LCR -->
<g id="node39" class="node">
<title>LCR</title>
<ellipse fill="none" stroke="#000000" cx="250" cy="-633" rx="29.6339" ry="18"/>
<text text-anchor="middle" x="250" y="-628.8" font-family="Times,serif" font-size="14.00" fill="#000000">LCR</text>
</g>
<!-- MCA&#45;&gt;LCR -->
<g id="edge53" class="edge">
<title>MCA&#45;&gt;LCR</title>
<path fill="none" stroke="#000000" d="M387.285,-718.6929C379.081,-714.2047 370.7838,-709.5514 363,-705 329.8663,-685.626 292.5015,-661.316 270.1242,-646.4812"/>
<polygon fill="#000000" stroke="#000000" points="385.6628,-721.7947 396.1219,-723.4856 389.0001,-715.6414 385.6628,-721.7947"/>
</g>
<!-- GL -->
<g id="node40" class="node">
<title>GL</title>
<ellipse fill="none" stroke="#000000" cx="405" cy="-633" rx="27" ry="18"/>
<text text-anchor="middle" x="405" y="-628.8" font-family="Times,serif" font-size="14.00" fill="#000000">GL</text>
</g>
<!-- MCA&#45;&gt;GL -->
<g id="edge54" class="edge">
<title>MCA&#45;&gt;GL</title>
<path fill="none" stroke="#000000" d="M432.2513,-713.5661C425.2566,-692.8867 416.6725,-667.5086 411.0303,-650.828"/>
<polygon fill="#000000" stroke="#000000" points="429.0179,-714.9303 435.5376,-723.2816 435.6488,-712.6874 429.0179,-714.9303"/>
</g>
<!-- RAM&#45;&gt;SCA -->
<g id="edge33" class="edge">
<title>RAM&#45;&gt;SCA</title>
<path fill="none" stroke="#000000" d="M453.6697,-612.8245C447.0442,-607.8824 440.1794,-602.4425 434.1094,-597 417.9246,-582.4882 417.801,-574.7937 401,-561 388.5022,-550.7392 373.3501,-541.1687 360.2584,-533.6485"/>
<polygon fill="#000000" stroke="#000000" points="451.7106,-615.7276 461.8559,-618.7811 455.8291,-610.0673 451.7106,-615.7276"/>
<text text-anchor="middle" x="464.9453" y="-574.8" font-family="Times,serif" font-size="14.00" fill="#000000">4 x 7h12m</text>
</g>
<!-- MPC&#45;&gt;SCA -->
<g id="edge36" class="edge">
<title>MPC&#45;&gt;SCA</title>
<path fill="none" stroke="#000000" d="M329.244,-604.8665C329.4083,-585.921 329.6231,-561.1515 329.7818,-542.8606"/>
<polygon fill="#000000" stroke="#000000" points="325.7432,-604.9544 329.1563,-614.9844 332.7429,-605.0151 325.7432,-604.9544"/>
<text text-anchor="middle" x="363.4453" y="-574.8" font-family="Times,serif" font-size="14.00" fill="#000000">10 x 10h5m</text>
</g>
<!-- PSM&#45;&gt;PPF -->
<g id="edge40" class="edge">
<title>PSM&#45;&gt;PPF</title>
<path fill="none" stroke="#000000" d="M524.9843,-551.3306C509.5566,-498.0757 475.9578,-382.0962 461.1982,-331.1475"/>
<polygon fill="#000000" stroke="#000000" points="521.6722,-552.4762 527.8166,-561.1074 528.3957,-550.5284 521.6722,-552.4762"/>
<text text-anchor="middle" x="532.9453" y="-461.8" font-family="Times,serif" font-size="14.00" fill="#000000">1 x 9h36m</text>
</g>
<!-- SFK&#45;&gt;FS -->
<g id="edge39" class="edge">
<title>SFK&#45;&gt;FS</title>
<path fill="none" stroke="#000000" d="M558.1419,-183.1325C553.1233,-169.3529 547.0613,-152.7084 542.1473,-139.2158"/>
<polygon fill="#000000" stroke="#000000" points="554.8696,-184.3753 561.5805,-192.5738 561.4469,-181.9798 554.8696,-184.3753"/>
<text text-anchor="middle" x="588.4453" y="-161.6" font-family="Times,serif" font-size="14.00" fill="#000000">16 x 2h53m</text>
</g>
<!-- CLR -->
<g id="node37" class="node">
<title>CLR</title>
<path fill="#00ff00" stroke="#000000" d="M177.0852,-281.5C177.0852,-281.5 258.9148,-281.5 258.9148,-281.5 264.9148,-281.5 270.9148,-287.5 270.9148,-293.5 270.9148,-293.5 270.9148,-319.1 270.9148,-319.1 270.9148,-325.1 264.9148,-331.1 258.9148,-331.1 258.9148,-331.1 177.0852,-331.1 177.0852,-331.1 171.0852,-331.1 165.0852,-325.1 165.0852,-319.1 165.0852,-319.1 165.0852,-293.5 165.0852,-293.5 165.0852,-287.5 171.0852,-281.5 177.0852,-281.5"/>
<text text-anchor="middle" x="218" y="-314.5" font-family="Times,serif" font-size="14.00" fill="#000000">CLR</text>
<polyline fill="none" stroke="#000000" points="165.0852,-306.3 270.9148,-306.3 "/>
<text text-anchor="middle" x="218" y="-289.7" font-family="Times,serif" font-size="14.00" fill="#000000">SET 25 TEC 15</text>
</g>
<!-- CAP&#45;&gt;CLR -->
<g id="edge49" class="edge">
<title>CAP&#45;&gt;CLR</title>
<path fill="none" stroke="#000000" d="M229.1687,-400.6389C225.0902,-396.1429 221.463,-391.0779 219.1094,-385.6 211.7718,-368.5218 211.8645,-347.4031 213.5915,-331.2547"/>
<polygon fill="#000000" stroke="#000000" points="226.7214,-403.141 236.3133,-407.6405 231.6208,-398.1414 226.7214,-403.141"/>
<text text-anchor="middle" x="253.4453" y="-363.4" font-family="Times,serif" font-size="14.00" fill="#000000">15 x 9h36m</text>
</g>
<!-- BCO&#45;&gt;FS -->
<g id="edge44" class="edge">
<title>BCO&#45;&gt;FS</title>
<path fill="none" stroke="#000000" d="M691.643,-393.3337C691.3503,-340.866 683.5554,-227.4001 626,-157.4 609.938,-137.8651 583.0807,-126.6793 562.3461,-120.5907"/>
<polygon fill="#000000" stroke="#000000" points="688.1423,-393.554 691.6068,-403.5663 695.1422,-393.5788 688.1423,-393.554"/>
<text text-anchor="middle" x="708.4453" y="-250.4" font-family="Times,serif" font-size="14.00" fill="#000000">10 x 7h12m</text>
</g>
<!-- SWF&#45;&gt;CLR -->
<g id="edge51" class="edge">
<title>SWF&#45;&gt;CLR</title>
<path fill="none" stroke="#000000" d="M320.5737,-395.1309C311.8223,-380.6052 299.7111,-362.8986 286,-349.6 279.1684,-342.9739 271.1682,-336.8128 263.1023,-331.3372"/>
<polygon fill="#000000" stroke="#000000" points="317.7639,-397.2607 325.8226,-404.1388 323.812,-393.7365 317.7639,-397.2607"/>
<text text-anchor="middle" x="339.5" y="-363.4" font-family="Times,serif" font-size="14.00" fill="#000000">30 x 12h</text>
</g>
<!-- TRN&#45;&gt;CLR -->
<g id="edge46" class="edge">
<title>TRN&#45;&gt;CLR</title>
<path fill="none" stroke="#000000" d="M166.7387,-394.4091C162.6978,-380.4715 160.547,-363.5439 167,-349.6 170.1708,-342.7484 175.0193,-336.5847 180.4892,-331.2012"/>
<polygon fill="#000000" stroke="#000000" points="163.4348,-395.5654 169.9192,-403.944 170.0751,-393.3504 163.4348,-395.5654"/>
<text text-anchor="middle" x="188" y="-363.4" font-family="Times,serif" font-size="14.00" fill="#000000">10 x 6h</text>
</g>
<!-- DIS&#45;&gt;MCA -->
<g id="edge52" class="edge">
<title>DIS&#45;&gt;MCA</title>
<path fill="none" stroke="#000000" d="M430.3144,-835.4413C429.9562,-822.0966 430.1614,-805.9676 432.1094,-791.6 432.9264,-785.5745 434.3493,-779.2011 435.9332,-773.2511"/>
<polygon fill="#000000" stroke="#000000" points="426.8179,-835.6018 430.6999,-845.4598 433.8127,-835.3325 426.8179,-835.6018"/>
<text text-anchor="middle" x="462.9453" y="-805.4" font-family="Times,serif" font-size="14.00" fill="#000000">1 x 16h5m</text>
</g>
<!-- CLR&#45;&gt;SI -->
<g id="edge48" class="edge">
<title>CLR&#45;&gt;SI</title>
<path fill="none" stroke="#000000" d="M185.0114,-273.9509C168.1911,-257.4568 148.5428,-238.1894 135.2856,-225.1892"/>
<polygon fill="#000000" stroke="#000000" points="182.917,-276.7992 192.5075,-281.3017 187.8181,-271.8012 182.917,-276.7992"/>
</g>
<!-- CLR&#45;&gt;FE -->
<g id="edge50" class="edge">
<title>CLR&#45;&gt;FE</title>
<path fill="none" stroke="#000000" d="M222.2937,-270.9213C225.44,-248.2211 230.3281,-218.2297 237,-192.2 252.0372,-133.534 278.1197,-66.5427 290.7422,-35.4954"/>
<polygon fill="#000000" stroke="#000000" points="218.7872,-270.7373 220.9298,-281.1132 225.7254,-271.6658 218.7872,-270.7373"/>
</g>
<!-- AL -->
<g id="node38" class="node">
<title>AL</title>
<ellipse fill="none" stroke="#000000" cx="273" cy="-210.2" rx="27" ry="18"/>
<text text-anchor="middle" x="273" y="-206" font-family="Times,serif" font-size="14.00" fill="#000000">AL</text>
</g>
<!-- CLR&#45;&gt;AL -->
<g id="edge47" class="edge">
<title>CLR&#45;&gt;AL</title>
<path fill="none" stroke="#000000" d="M237.3037,-272.5711C246.0829,-257.2315 256.0887,-239.7487 263.2685,-227.2035"/>
<polygon fill="#000000" stroke="#000000" points="234.2366,-270.8841 232.307,-281.3017 240.312,-274.3612 234.2366,-270.8841"/>
</g>
<!-- CHP -->
<g id="node41" class="node">
<title>CHP</title>
<path fill="#00ff00" stroke="#000000" d="M43.0312,-492.9C43.0312,-492.9 120.9688,-492.9 120.9688,-492.9 126.9688,-492.9 132.9688,-498.9 132.9688,-504.9 132.9688,-504.9 132.9688,-530.5 132.9688,-530.5 132.9688,-536.5 126.9688,-542.5 120.9688,-542.5 120.9688,-542.5 43.0312,-542.5 43.0312,-542.5 37.0312,-542.5 31.0312,-536.5 31.0312,-530.5 31.0312,-530.5 31.0312,-504.9 31.0312,-504.9 31.0312,-498.9 37.0312,-492.9 43.0312,-492.9"/>
<text text-anchor="middle" x="82" y="-525.9" font-family="Times,serif" font-size="14.00" fill="#000000">CHP</text>
<polyline fill="none" stroke="#000000" points="31.0312,-517.7 132.9688,-517.7 "/>
<text text-anchor="middle" x="82" y="-501.1" font-family="Times,serif" font-size="14.00" fill="#000000">PIO 20 SET 60</text>
</g>
<!-- LCR&#45;&gt;CHP -->
<g id="edge55" class="edge">
<title>LCR&#45;&gt;CHP</title>
<path fill="none" stroke="#000000" d="M221.782,-613.6337C193.3726,-594.1361 149.4287,-563.977 118.4082,-542.6873"/>
<polygon fill="#000000" stroke="#000000" points="219.8429,-616.5479 230.0685,-619.3208 223.804,-610.7764 219.8429,-616.5479"/>
<text text-anchor="middle" x="229.4453" y="-574.8" font-family="Times,serif" font-size="14.00" fill="#000000">1 x 15h36m</text>
</g>
<!-- CHP&#45;&gt;SI -->
<g id="edge56" class="edge">
<title>CHP&#45;&gt;SI</title>
<path fill="none" stroke="#000000" d="M81.9598,-482.5397C82.6038,-430.2978 86.5607,-329.3991 106,-246.2 107.4647,-239.9311 109.7996,-233.3014 112.1461,-227.463"/>
<polygon fill="#000000" stroke="#000000" points="78.4593,-482.5917 81.8699,-492.6225 85.459,-482.6542 78.4593,-482.5917"/>
</g>
<!-- O -->
<g id="node42" class="node">
<title>O</title>
<ellipse fill="none" stroke="#000000" cx="27" cy="-421.6" rx="27" ry="18"/>
<text text-anchor="middle" x="27" y="-417.4" font-family="Times,serif" font-size="14.00" fill="#000000">O</text>
</g>
<!-- CHP&#45;&gt;O -->
<g id="edge57" class="edge">
<title>CHP&#45;&gt;O</title>
<path fill="none" stroke="#000000" d="M62.6963,-483.9711C53.9171,-468.6315 43.9113,-451.1487 36.7315,-438.6035"/>
<polygon fill="#000000" stroke="#000000" points="59.688,-485.7612 67.693,-492.7017 65.7634,-482.2841 59.688,-485.7612"/>
</g>
</g>
</svg>
